<?xml version="1.0" encoding="utf-8" standalone="no"?>
<!DOCTYPE svg PUBLIC "-//W3C//DTD SVG 1.1//EN"
  "http://www.w3.org/Graphics/SVG/1.1/DTD/svg11.dtd">
<svg xmlns:xlink="http://www.w3.org/1999/xlink" width="603.045312pt" height="474.613875pt" viewBox="0 0 603.045312 474.613875" xmlns="http://www.w3.org/2000/svg" version="1.1">
 <metadata>
  <rdf:RDF xmlns:dc="http://purl.org/dc/elements/1.1/" xmlns:cc="http://creativecommons.org/ns#" xmlns:rdf="http://www.w3.org/1999/02/22-rdf-syntax-ns#">
   <cc:Work>
    <dc:type rdf:resource="http://purl.org/dc/dcmitype/StillImage"/>
    <dc:date>2025-05-05T19:30:01.017998</dc:date>
    <dc:format>image/svg+xml</dc:format>
    <dc:creator>
     <cc:Agent>
      <dc:title>MSAGAT-Net</dc:title>
     </cc:Agent>
    </dc:creator>
   </cc:Work>
  </rdf:RDF>
 </metadata>
 <defs>
  <style type="text/css">*{stroke-linejoin: round; stroke-linecap: butt}</style>
 </defs>
 <g id="figure_1">
  <g id="patch_1">
   <path d="M 0 474.613875 
L 603.045312 474.613875 
L 603.045312 0 
L 0 0 
z
" style="fill: #ffffff"/>
  </g>
  <g id="axes_1">
   <g id="patch_2">
    <path d="M 505.927187 251.64 
C 505.927187 226.158901 500.907967 200.925573 491.156772 177.384107 
C 481.405577 153.842641 467.112045 132.450858 449.094187 114.433 
C 431.076329 96.415142 409.684547 82.12161 386.143081 72.370416 
C 362.601615 62.619221 337.368287 57.6 311.887187 57.6 
C 286.406088 57.6 261.17276 62.619221 237.631294 72.370416 
C 214.089828 82.12161 192.698046 96.415142 174.680188 114.433 
C 156.66233 132.450858 142.368798 153.842641 132.617603 177.384107 
C 122.866408 200.925573 117.847187 226.158901 117.847187 251.64 
C 117.847187 277.121099 122.866408 302.354427 132.617603 325.895893 
C 142.368798 349.437359 156.66233 370.829142 174.680188 388.847 
C 192.698046 406.864858 214.089828 421.15839 237.631294 430.909584 
C 261.17276 440.660779 286.406088 445.68 311.887187 445.68 
C 337.368287 445.68 362.601615 440.660779 386.143081 430.909584 
C 409.684547 421.15839 431.076329 406.864858 449.094187 388.847 
C 467.112045 370.829142 481.405577 349.437359 491.156772 325.895893 
C 500.907967 302.354427 505.927187 277.121099 505.927187 251.64 
M 311.887187 251.64 
C 311.887187 251.64 311.887187 251.64 311.887187 251.64 
C 311.887187 251.64 311.887187 251.64 311.887187 251.64 
C 311.887187 251.64 311.887187 251.64 311.887187 251.64 
C 311.887187 251.64 311.887187 251.64 311.887187 251.64 
C 311.887187 251.64 311.887187 251.64 311.887187 251.64 
C 311.887187 251.64 311.887187 251.64 311.887187 251.64 
C 311.887187 251.64 311.887187 251.64 311.887187 251.64 
C 311.887187 251.64 311.887187 251.64 311.887187 251.64 
C 311.887187 251.64 311.887187 251.64 311.887187 251.64 
C 311.887187 251.64 311.887187 251.64 311.887187 251.64 
C 311.887187 251.64 311.887187 251.64 311.887187 251.64 
C 311.887187 251.64 311.887187 251.64 311.887187 251.64 
C 311.887187 251.64 311.887187 251.64 311.887187 251.64 
C 311.887187 251.64 311.887187 251.64 311.887187 251.64 
C 311.887187 251.64 311.887187 251.64 311.887187 251.64 
C 311.887187 251.64 311.887187 251.64 311.887187 251.64 
z
" style="fill: #ffffff"/>
   </g>
   <g id="matplotlib.axis_1">
    <g id="xtick_1">
     <g id="line2d_1">
      <path d="M 311.887187 251.64 
L 505.927187 251.64 
" clip-path="url(#p79f03afa39)" style="fill: none; stroke: #cccccc; stroke-width: 0.8; stroke-linecap: round"/>
     </g>
     <g id="text_1">
      <!-- Root Mean Square Error -->
      <g style="fill: #262626" transform="translate(445.009062 254.95125) scale(0.12 -0.12)">
       <defs>
        <path id="DejaVuSerif-52" d="M 3066 2316 
Q 3284 2256 3442 2114 
Q 3600 1972 3725 1716 
L 4403 331 
L 4972 331 
L 4972 0 
L 3872 0 
L 3144 1484 
Q 2934 1916 2759 2042 
Q 2584 2169 2278 2169 
L 1581 2169 
L 1581 331 
L 2241 331 
L 2241 0 
L 353 0 
L 353 331 
L 947 331 
L 947 4331 
L 353 4331 
L 353 4666 
L 2719 4666 
Q 3400 4666 3770 4341 
Q 4141 4016 4141 3419 
Q 4141 2938 3870 2661 
Q 3600 2384 3066 2316 
z
M 1581 2503 
L 2503 2503 
Q 2975 2503 3200 2726 
Q 3425 2950 3425 3419 
Q 3425 3888 3200 4109 
Q 2975 4331 2503 4331 
L 1581 4331 
L 1581 2503 
z
" transform="scale(0.015625)"/>
        <path id="DejaVuSerif-6f" d="M 1925 219 
Q 2388 219 2623 584 
Q 2859 950 2859 1663 
Q 2859 2375 2623 2739 
Q 2388 3103 1925 3103 
Q 1463 3103 1227 2739 
Q 991 2375 991 1663 
Q 991 950 1228 584 
Q 1466 219 1925 219 
z
M 1925 -91 
Q 1200 -91 759 389 
Q 319 869 319 1663 
Q 319 2456 758 2934 
Q 1197 3413 1925 3413 
Q 2653 3413 3092 2934 
Q 3531 2456 3531 1663 
Q 3531 869 3092 389 
Q 2653 -91 1925 -91 
z
" transform="scale(0.015625)"/>
        <path id="DejaVuSerif-74" d="M 691 2988 
L 184 2988 
L 184 3322 
L 691 3322 
L 691 4353 
L 1269 4353 
L 1269 3322 
L 2350 3322 
L 2350 2988 
L 1269 2988 
L 1269 878 
Q 1269 456 1350 337 
Q 1431 219 1650 219 
Q 1875 219 1978 351 
Q 2081 484 2088 781 
L 2522 781 
Q 2497 328 2275 118 
Q 2053 -91 1600 -91 
Q 1103 -91 897 129 
Q 691 350 691 878 
L 691 2988 
z
" transform="scale(0.015625)"/>
        <path id="DejaVuSerif-20" transform="scale(0.015625)"/>
        <path id="DejaVuSerif-4d" d="M 353 0 
L 353 331 
L 947 331 
L 947 4331 
L 319 4331 
L 319 4666 
L 1678 4666 
L 3316 1344 
L 4953 4666 
L 6228 4666 
L 6228 4331 
L 5606 4331 
L 5606 331 
L 6203 331 
L 6203 0 
L 4378 0 
L 4378 331 
L 4972 331 
L 4972 3938 
L 3372 684 
L 2931 684 
L 1331 3938 
L 1331 331 
L 1925 331 
L 1925 0 
L 353 0 
z
" transform="scale(0.015625)"/>
        <path id="DejaVuSerif-65" d="M 3469 1600 
L 991 1600 
L 991 1575 
Q 991 903 1244 561 
Q 1497 219 1991 219 
Q 2369 219 2611 417 
Q 2853 616 2950 1006 
L 3413 1006 
Q 3275 459 2904 184 
Q 2534 -91 1931 -91 
Q 1203 -91 761 389 
Q 319 869 319 1663 
Q 319 2450 753 2931 
Q 1188 3413 1894 3413 
Q 2647 3413 3050 2948 
Q 3453 2484 3469 1600 
z
M 2791 1931 
Q 2772 2513 2545 2808 
Q 2319 3103 1894 3103 
Q 1497 3103 1269 2806 
Q 1041 2509 991 1931 
L 2791 1931 
z
" transform="scale(0.015625)"/>
        <path id="DejaVuSerif-61" d="M 2547 1044 
L 2547 1747 
L 1806 1747 
Q 1378 1747 1168 1562 
Q 959 1378 959 997 
Q 959 650 1171 447 
Q 1384 244 1747 244 
Q 2106 244 2326 466 
Q 2547 688 2547 1044 
z
M 3122 2075 
L 3122 331 
L 3634 331 
L 3634 0 
L 2547 0 
L 2547 359 
Q 2356 128 2106 18 
Q 1856 -91 1522 -91 
Q 969 -91 644 203 
Q 319 497 319 997 
Q 319 1513 691 1797 
Q 1063 2081 1741 2081 
L 2547 2081 
L 2547 2309 
Q 2547 2688 2317 2895 
Q 2088 3103 1672 3103 
Q 1328 3103 1125 2947 
Q 922 2791 872 2484 
L 575 2484 
L 575 3156 
Q 875 3284 1158 3348 
Q 1441 3413 1709 3413 
Q 2400 3413 2761 3070 
Q 3122 2728 3122 2075 
z
" transform="scale(0.015625)"/>
        <path id="DejaVuSerif-6e" d="M 263 0 
L 263 331 
L 781 331 
L 781 2988 
L 231 2988 
L 231 3322 
L 1356 3322 
L 1356 2731 
Q 1516 3069 1770 3241 
Q 2025 3413 2363 3413 
Q 2913 3413 3172 3097 
Q 3431 2781 3431 2113 
L 3431 331 
L 3944 331 
L 3944 0 
L 2356 0 
L 2356 331 
L 2853 331 
L 2853 1931 
Q 2853 2541 2703 2767 
Q 2553 2994 2175 2994 
Q 1775 2994 1565 2701 
Q 1356 2409 1356 1850 
L 1356 331 
L 1856 331 
L 1856 0 
L 263 0 
z
" transform="scale(0.015625)"/>
        <path id="DejaVuSerif-53" d="M 594 225 
L 594 1288 
L 953 1284 
Q 969 753 1261 498 
Q 1553 244 2150 244 
Q 2706 244 2998 464 
Q 3291 684 3291 1106 
Q 3291 1444 3114 1625 
Q 2938 1806 2369 1978 
L 1753 2163 
Q 1084 2366 811 2669 
Q 538 2972 538 3500 
Q 538 4094 959 4422 
Q 1381 4750 2144 4750 
Q 2469 4750 2856 4679 
Q 3244 4609 3681 4475 
L 3681 3481 
L 3328 3481 
Q 3275 3975 2998 4195 
Q 2722 4416 2156 4416 
Q 1663 4416 1405 4214 
Q 1147 4013 1147 3628 
Q 1147 3294 1340 3103 
Q 1534 2913 2163 2725 
L 2741 2553 
Q 3375 2363 3645 2067 
Q 3916 1772 3916 1275 
Q 3916 597 3481 253 
Q 3047 -91 2188 -91 
Q 1803 -91 1404 -12 
Q 1006 66 594 225 
z
" transform="scale(0.015625)"/>
        <path id="DejaVuSerif-71" d="M 3359 2988 
L 3359 -997 
L 3909 -997 
L 3909 -1331 
L 2241 -1331 
L 2241 -997 
L 2784 -997 
L 2784 519 
Q 2616 206 2355 57 
Q 2094 -91 1709 -91 
Q 1097 -91 708 395 
Q 319 881 319 1663 
Q 319 2444 706 2928 
Q 1094 3413 1709 3413 
Q 2094 3413 2355 3264 
Q 2616 3116 2784 2803 
L 2784 3322 
L 3909 3322 
L 3909 2988 
L 3359 2988 
z
M 2784 1825 
Q 2784 2422 2554 2737 
Q 2325 3053 1888 3053 
Q 1444 3053 1217 2703 
Q 991 2353 991 1663 
Q 991 975 1217 622 
Q 1444 269 1888 269 
Q 2325 269 2554 583 
Q 2784 897 2784 1497 
L 2784 1825 
z
" transform="scale(0.015625)"/>
        <path id="DejaVuSerif-75" d="M 2266 3322 
L 3341 3322 
L 3341 331 
L 3884 331 
L 3884 0 
L 2766 0 
L 2766 588 
Q 2606 256 2353 82 
Q 2100 -91 1766 -91 
Q 1213 -91 952 223 
Q 691 538 691 1209 
L 691 2988 
L 172 2988 
L 172 3322 
L 1269 3322 
L 1269 1388 
Q 1269 781 1417 556 
Q 1566 331 1947 331 
Q 2347 331 2556 625 
Q 2766 919 2766 1478 
L 2766 2988 
L 2266 2988 
L 2266 3322 
z
" transform="scale(0.015625)"/>
        <path id="DejaVuSerif-72" d="M 3059 3328 
L 3059 2497 
L 2728 2497 
Q 2713 2744 2591 2866 
Q 2469 2988 2234 2988 
Q 1809 2988 1582 2694 
Q 1356 2400 1356 1850 
L 1356 331 
L 2022 331 
L 2022 0 
L 263 0 
L 263 331 
L 781 331 
L 781 2994 
L 231 2994 
L 231 3322 
L 1356 3322 
L 1356 2731 
Q 1525 3078 1790 3245 
Q 2056 3413 2438 3413 
Q 2578 3413 2733 3391 
Q 2888 3369 3059 3328 
z
" transform="scale(0.015625)"/>
        <path id="DejaVuSerif-45" d="M 353 0 
L 353 331 
L 947 331 
L 947 4331 
L 353 4331 
L 353 4666 
L 4109 4666 
L 4109 3628 
L 3725 3628 
L 3725 4281 
L 1581 4281 
L 1581 2719 
L 3109 2719 
L 3109 3303 
L 3494 3303 
L 3494 1753 
L 3109 1753 
L 3109 2338 
L 1581 2338 
L 1581 384 
L 3775 384 
L 3775 1038 
L 4159 1038 
L 4159 0 
L 353 0 
z
" transform="scale(0.015625)"/>
       </defs>
       <use xlink:href="#DejaVuSerif-52"/>
       <use xlink:href="#DejaVuSerif-6f" x="75.292969"/>
       <use xlink:href="#DejaVuSerif-6f" x="135.498047"/>
       <use xlink:href="#DejaVuSerif-74" x="195.703125"/>
       <use xlink:href="#DejaVuSerif-20" x="235.888672"/>
       <use xlink:href="#DejaVuSerif-4d" x="267.675781"/>
       <use xlink:href="#DejaVuSerif-65" x="370.068359"/>
       <use xlink:href="#DejaVuSerif-61" x="429.248047"/>
       <use xlink:href="#DejaVuSerif-6e" x="488.867188"/>
       <use xlink:href="#DejaVuSerif-20" x="553.271484"/>
       <use xlink:href="#DejaVuSerif-53" x="585.058594"/>
       <use xlink:href="#DejaVuSerif-71" x="653.564453"/>
       <use xlink:href="#DejaVuSerif-75" x="717.578125"/>
       <use xlink:href="#DejaVuSerif-61" x="781.982422"/>
       <use xlink:href="#DejaVuSerif-72" x="841.601562"/>
       <use xlink:href="#DejaVuSerif-65" x="889.404297"/>
       <use xlink:href="#DejaVuSerif-20" x="948.583984"/>
       <use xlink:href="#DejaVuSerif-45" x="980.371094"/>
       <use xlink:href="#DejaVuSerif-72" x="1053.369141"/>
       <use xlink:href="#DejaVuSerif-72" x="1101.171875"/>
       <use xlink:href="#DejaVuSerif-6f" x="1148.974609"/>
       <use xlink:href="#DejaVuSerif-72" x="1209.179688"/>
      </g>
     </g>
    </g>
    <g id="xtick_2">
     <g id="line2d_2">
      <path d="M 311.887187 251.64 
L 311.887187 57.6 
" clip-path="url(#p79f03afa39)" style="fill: none; stroke: #cccccc; stroke-width: 0.8; stroke-linecap: round"/>
     </g>
     <g id="text_2">
      <!-- Mean Absolute Error -->
      <g style="fill: #262626" transform="translate(247.730312 46.41125) scale(0.12 -0.12)">
       <defs>
        <path id="DejaVuSerif-41" d="M 1281 1691 
L 2994 1691 
L 2138 3909 
L 1281 1691 
z
M -38 0 
L -38 331 
L 372 331 
L 2034 4666 
L 2559 4666 
L 4225 331 
L 4684 331 
L 4684 0 
L 2988 0 
L 2988 331 
L 3506 331 
L 3116 1356 
L 1153 1356 
L 763 331 
L 1275 331 
L 1275 0 
L -38 0 
z
" transform="scale(0.015625)"/>
        <path id="DejaVuSerif-62" d="M 738 331 
L 738 4531 
L 184 4531 
L 184 4863 
L 1313 4863 
L 1313 2803 
Q 1481 3116 1742 3264 
Q 2003 3413 2388 3413 
Q 3000 3413 3387 2928 
Q 3775 2444 3775 1663 
Q 3775 881 3387 395 
Q 3000 -91 2388 -91 
Q 2003 -91 1742 57 
Q 1481 206 1313 519 
L 1313 0 
L 184 0 
L 184 331 
L 738 331 
z
M 1313 1497 
Q 1313 897 1542 583 
Q 1772 269 2209 269 
Q 2650 269 2876 622 
Q 3103 975 3103 1663 
Q 3103 2353 2876 2703 
Q 2650 3053 2209 3053 
Q 1772 3053 1542 2737 
Q 1313 2422 1313 1825 
L 1313 1497 
z
" transform="scale(0.015625)"/>
        <path id="DejaVuSerif-73" d="M 359 184 
L 359 959 
L 691 959 
Q 703 588 923 403 
Q 1144 219 1575 219 
Q 1963 219 2166 364 
Q 2369 509 2369 788 
Q 2369 1006 2220 1140 
Q 2072 1275 1594 1428 
L 1178 1569 
Q 750 1706 558 1912 
Q 366 2119 366 2438 
Q 366 2894 700 3153 
Q 1034 3413 1625 3413 
Q 1888 3413 2178 3344 
Q 2469 3275 2778 3144 
L 2778 2419 
L 2447 2419 
Q 2434 2741 2221 2922 
Q 2009 3103 1644 3103 
Q 1281 3103 1095 2975 
Q 909 2847 909 2591 
Q 909 2381 1050 2254 
Q 1191 2128 1613 1997 
L 2069 1856 
Q 2541 1709 2748 1489 
Q 2956 1269 2956 922 
Q 2956 450 2595 179 
Q 2234 -91 1600 -91 
Q 1278 -91 972 -22 
Q 666 47 359 184 
z
" transform="scale(0.015625)"/>
        <path id="DejaVuSerif-6c" d="M 1313 331 
L 1856 331 
L 1856 0 
L 184 0 
L 184 331 
L 738 331 
L 738 4531 
L 184 4531 
L 184 4863 
L 1313 4863 
L 1313 331 
z
" transform="scale(0.015625)"/>
       </defs>
       <use xlink:href="#DejaVuSerif-4d"/>
       <use xlink:href="#DejaVuSerif-65" x="102.392578"/>
       <use xlink:href="#DejaVuSerif-61" x="161.572266"/>
       <use xlink:href="#DejaVuSerif-6e" x="221.191406"/>
       <use xlink:href="#DejaVuSerif-20" x="285.595703"/>
       <use xlink:href="#DejaVuSerif-41" x="317.382812"/>
       <use xlink:href="#DejaVuSerif-62" x="389.599609"/>
       <use xlink:href="#DejaVuSerif-73" x="453.613281"/>
       <use xlink:href="#DejaVuSerif-6f" x="504.931641"/>
       <use xlink:href="#DejaVuSerif-6c" x="565.136719"/>
       <use xlink:href="#DejaVuSerif-75" x="597.119141"/>
       <use xlink:href="#DejaVuSerif-74" x="661.523438"/>
       <use xlink:href="#DejaVuSerif-65" x="701.708984"/>
       <use xlink:href="#DejaVuSerif-20" x="760.888672"/>
       <use xlink:href="#DejaVuSerif-45" x="792.675781"/>
       <use xlink:href="#DejaVuSerif-72" x="865.673828"/>
       <use xlink:href="#DejaVuSerif-72" x="913.476562"/>
       <use xlink:href="#DejaVuSerif-6f" x="961.279297"/>
       <use xlink:href="#DejaVuSerif-72" x="1021.484375"/>
      </g>
     </g>
    </g>
    <g id="xtick_3">
     <g id="line2d_3">
      <path d="M 311.887187 251.64 
L 117.847187 251.64 
" clip-path="url(#p79f03afa39)" style="fill: none; stroke: #cccccc; stroke-width: 0.8; stroke-linecap: round"/>
     </g>
     <g id="text_3">
      <!-- Pearson Correlation Coefficient -->
      <g style="fill: #262626" transform="translate(7.2 254.95125) scale(0.12 -0.12)">
       <defs>
        <path id="DejaVuSerif-50" d="M 1581 2375 
L 2406 2375 
Q 2872 2375 3115 2626 
Q 3359 2878 3359 3353 
Q 3359 3831 3115 4081 
Q 2872 4331 2406 4331 
L 1581 4331 
L 1581 2375 
z
M 353 0 
L 353 331 
L 947 331 
L 947 4331 
L 353 4331 
L 353 4666 
L 2559 4666 
Q 3259 4666 3668 4311 
Q 4078 3956 4078 3353 
Q 4078 2753 3668 2397 
Q 3259 2041 2559 2041 
L 1581 2041 
L 1581 331 
L 2303 331 
L 2303 0 
L 353 0 
z
" transform="scale(0.015625)"/>
        <path id="DejaVuSerif-43" d="M 4513 1234 
Q 4306 581 3820 245 
Q 3334 -91 2591 -91 
Q 2134 -91 1743 65 
Q 1353 222 1050 525 
Q 700 875 529 1320 
Q 359 1766 359 2328 
Q 359 3416 987 4083 
Q 1616 4750 2644 4750 
Q 3025 4750 3456 4650 
Q 3888 4550 4384 4347 
L 4384 3272 
L 4031 3272 
Q 3916 3859 3567 4137 
Q 3219 4416 2591 4416 
Q 1844 4416 1459 3886 
Q 1075 3356 1075 2328 
Q 1075 1303 1459 773 
Q 1844 244 2591 244 
Q 3113 244 3450 492 
Q 3788 741 3938 1234 
L 4513 1234 
z
" transform="scale(0.015625)"/>
        <path id="DejaVuSerif-69" d="M 622 4353 
Q 622 4497 726 4603 
Q 831 4709 978 4709 
Q 1122 4709 1226 4603 
Q 1331 4497 1331 4353 
Q 1331 4206 1228 4103 
Q 1125 4000 978 4000 
Q 831 4000 726 4103 
Q 622 4206 622 4353 
z
M 1356 331 
L 1900 331 
L 1900 0 
L 231 0 
L 231 331 
L 781 331 
L 781 2988 
L 231 2988 
L 231 3322 
L 1356 3322 
L 1356 331 
z
" transform="scale(0.015625)"/>
        <path id="DejaVuSerif-66" d="M 2753 4078 
L 2450 4078 
Q 2447 4313 2317 4434 
Q 2188 4556 1941 4556 
Q 1619 4556 1487 4379 
Q 1356 4203 1356 3750 
L 1356 3322 
L 2284 3322 
L 2284 2988 
L 1356 2988 
L 1356 331 
L 2094 331 
L 2094 0 
L 231 0 
L 231 331 
L 781 331 
L 781 2988 
L 231 2988 
L 231 3322 
L 781 3322 
L 781 3738 
Q 781 4294 1070 4578 
Q 1359 4863 1919 4863 
Q 2128 4863 2337 4825 
Q 2547 4788 2753 4709 
L 2753 4078 
z
" transform="scale(0.015625)"/>
        <path id="DejaVuSerif-63" d="M 3291 997 
Q 3169 466 2822 187 
Q 2475 -91 1925 -91 
Q 1200 -91 759 389 
Q 319 869 319 1663 
Q 319 2459 759 2936 
Q 1200 3413 1925 3413 
Q 2241 3413 2553 3339 
Q 2866 3266 3181 3116 
L 3181 2266 
L 2847 2266 
Q 2781 2703 2561 2903 
Q 2341 3103 1931 3103 
Q 1466 3103 1228 2742 
Q 991 2381 991 1663 
Q 991 944 1227 581 
Q 1463 219 1931 219 
Q 2303 219 2525 412 
Q 2747 606 2828 997 
L 3291 997 
z
" transform="scale(0.015625)"/>
       </defs>
       <use xlink:href="#DejaVuSerif-50"/>
       <use xlink:href="#DejaVuSerif-65" x="62.785156"/>
       <use xlink:href="#DejaVuSerif-61" x="121.964844"/>
       <use xlink:href="#DejaVuSerif-72" x="181.583984"/>
       <use xlink:href="#DejaVuSerif-73" x="229.386719"/>
       <use xlink:href="#DejaVuSerif-6f" x="280.705078"/>
       <use xlink:href="#DejaVuSerif-6e" x="340.910156"/>
       <use xlink:href="#DejaVuSerif-20" x="405.314453"/>
       <use xlink:href="#DejaVuSerif-43" x="437.101562"/>
       <use xlink:href="#DejaVuSerif-6f" x="513.615234"/>
       <use xlink:href="#DejaVuSerif-72" x="573.820312"/>
       <use xlink:href="#DejaVuSerif-72" x="621.623047"/>
       <use xlink:href="#DejaVuSerif-65" x="669.425781"/>
       <use xlink:href="#DejaVuSerif-6c" x="728.605469"/>
       <use xlink:href="#DejaVuSerif-61" x="760.587891"/>
       <use xlink:href="#DejaVuSerif-74" x="820.207031"/>
       <use xlink:href="#DejaVuSerif-69" x="860.392578"/>
       <use xlink:href="#DejaVuSerif-6f" x="892.375"/>
       <use xlink:href="#DejaVuSerif-6e" x="952.580078"/>
       <use xlink:href="#DejaVuSerif-20" x="1016.984375"/>
       <use xlink:href="#DejaVuSerif-43" x="1048.771484"/>
       <use xlink:href="#DejaVuSerif-6f" x="1125.285156"/>
       <use xlink:href="#DejaVuSerif-65" x="1185.490234"/>
       <use xlink:href="#DejaVuSerif-66" x="1244.669922"/>
       <use xlink:href="#DejaVuSerif-66" x="1281.681641"/>
       <use xlink:href="#DejaVuSerif-69" x="1318.693359"/>
       <use xlink:href="#DejaVuSerif-63" x="1350.675781"/>
       <use xlink:href="#DejaVuSerif-69" x="1406.681641"/>
       <use xlink:href="#DejaVuSerif-65" x="1438.664062"/>
       <use xlink:href="#DejaVuSerif-6e" x="1497.84375"/>
       <use xlink:href="#DejaVuSerif-74" x="1562.248047"/>
      </g>
     </g>
    </g>
    <g id="xtick_4">
     <g id="line2d_4">
      <path d="M 311.887187 251.64 
L 311.887187 445.68 
" clip-path="url(#p79f03afa39)" style="fill: none; stroke: #cccccc; stroke-width: 0.8; stroke-linecap: round"/>
     </g>
     <g id="text_4">
      <!-- R-squared -->
      <g style="fill: #262626" transform="translate(280.72 463.49125) scale(0.12 -0.12)">
       <defs>
        <path id="DejaVuSerif-2d" d="M 281 1959 
L 1881 1959 
L 1881 1472 
L 281 1472 
L 281 1959 
z
" transform="scale(0.015625)"/>
        <path id="DejaVuSerif-64" d="M 3359 331 
L 3909 331 
L 3909 0 
L 2784 0 
L 2784 519 
Q 2616 206 2355 57 
Q 2094 -91 1709 -91 
Q 1097 -91 708 395 
Q 319 881 319 1663 
Q 319 2444 706 2928 
Q 1094 3413 1709 3413 
Q 2094 3413 2355 3264 
Q 2616 3116 2784 2803 
L 2784 4531 
L 2241 4531 
L 2241 4863 
L 3359 4863 
L 3359 331 
z
M 2784 1497 
L 2784 1825 
Q 2784 2422 2554 2737 
Q 2325 3053 1888 3053 
Q 1444 3053 1217 2703 
Q 991 2353 991 1663 
Q 991 975 1217 622 
Q 1444 269 1888 269 
Q 2325 269 2554 583 
Q 2784 897 2784 1497 
z
" transform="scale(0.015625)"/>
       </defs>
       <use xlink:href="#DejaVuSerif-52"/>
       <use xlink:href="#DejaVuSerif-2d" x="75.292969"/>
       <use xlink:href="#DejaVuSerif-73" x="109.082031"/>
       <use xlink:href="#DejaVuSerif-71" x="160.400391"/>
       <use xlink:href="#DejaVuSerif-75" x="224.414062"/>
       <use xlink:href="#DejaVuSerif-61" x="288.818359"/>
       <use xlink:href="#DejaVuSerif-72" x="348.4375"/>
       <use xlink:href="#DejaVuSerif-65" x="396.240234"/>
       <use xlink:href="#DejaVuSerif-64" x="455.419922"/>
      </g>
     </g>
    </g>
   </g>
   <g id="matplotlib.axis_2">
    <g id="ytick_1">
     <g id="line2d_5">
      <path d="M 349.301034 251.64 
C 349.301034 246.726859 348.333252 241.861492 346.453074 237.322341 
C 344.572897 232.78319 341.816888 228.658531 338.342772 225.184415 
C 334.868656 221.7103 330.743997 218.954291 326.204847 217.074113 
C 321.665696 215.193935 316.800329 214.226154 311.887187 214.226154 
C 306.974046 214.226154 302.108679 215.193935 297.569528 217.074113 
C 293.030378 218.954291 288.905719 221.7103 285.431603 225.184415 
C 281.957487 228.658531 279.201478 232.78319 277.321301 237.322341 
C 275.441123 241.861492 274.473341 246.726859 274.473341 251.64 
C 274.473341 256.553141 275.441123 261.418508 277.321301 265.957659 
C 279.201478 270.49681 281.957487 274.621469 285.431603 278.095585 
C 288.905719 281.5697 293.030378 284.325709 297.569528 286.205887 
C 302.108679 288.086065 306.974046 289.053846 311.887187 289.053846 
C 316.800329 289.053846 321.665696 288.086065 326.204847 286.205887 
C 330.743997 284.325709 334.868656 281.5697 338.342772 278.095585 
C 341.816888 274.621469 344.572897 270.49681 346.453074 265.957659 
C 348.333252 261.418508 349.301034 256.553141 349.301034 251.64 
" clip-path="url(#p79f03afa39)" style="fill: none; stroke: #cccccc; stroke-width: 0.8; stroke-linecap: round"/>
     </g>
     <g id="text_5">
      <!-- 0.2 -->
      <g style="fill: #262626; opacity: 0.75" transform="translate(346.453074 235.242653) scale(0.1 -0.1)">
       <defs>
        <path id="DejaVuSerif-30" d="M 2034 219 
Q 2513 219 2750 744 
Q 2988 1269 2988 2328 
Q 2988 3391 2750 3916 
Q 2513 4441 2034 4441 
Q 1556 4441 1318 3916 
Q 1081 3391 1081 2328 
Q 1081 1269 1318 744 
Q 1556 219 2034 219 
z
M 2034 -91 
Q 1275 -91 848 546 
Q 422 1184 422 2328 
Q 422 3475 848 4112 
Q 1275 4750 2034 4750 
Q 2797 4750 3222 4112 
Q 3647 3475 3647 2328 
Q 3647 1184 3222 546 
Q 2797 -91 2034 -91 
z
" transform="scale(0.015625)"/>
        <path id="DejaVuSerif-2e" d="M 603 325 
Q 603 500 722 622 
Q 841 744 1019 744 
Q 1191 744 1312 622 
Q 1434 500 1434 325 
Q 1434 153 1312 31 
Q 1191 -91 1019 -91 
Q 841 -91 722 29 
Q 603 150 603 325 
z
" transform="scale(0.015625)"/>
        <path id="DejaVuSerif-32" d="M 819 3553 
L 469 3553 
L 469 4384 
Q 803 4563 1142 4656 
Q 1481 4750 1806 4750 
Q 2534 4750 2956 4397 
Q 3378 4044 3378 3438 
Q 3378 2753 2422 1800 
Q 2347 1728 2309 1691 
L 1131 513 
L 3078 513 
L 3078 1088 
L 3444 1088 
L 3444 0 
L 434 0 
L 434 341 
L 1850 1753 
Q 2319 2222 2519 2614 
Q 2719 3006 2719 3438 
Q 2719 3909 2473 4175 
Q 2228 4441 1797 4441 
Q 1350 4441 1106 4219 
Q 863 3997 819 3553 
z
" transform="scale(0.015625)"/>
       </defs>
       <use xlink:href="#DejaVuSerif-30"/>
       <use xlink:href="#DejaVuSerif-2e" x="63.623047"/>
       <use xlink:href="#DejaVuSerif-32" x="95.410156"/>
      </g>
     </g>
    </g>
    <g id="ytick_2">
     <g id="line2d_6">
      <path d="M 386.71488 251.64 
C 386.71488 241.813717 384.779317 232.082983 381.018961 223.004682 
C 377.258606 213.92638 371.746588 205.677062 364.798357 198.728831 
C 357.850125 191.7806 349.600807 186.268582 340.522506 182.508226 
C 331.444204 178.747871 321.71347 176.812307 311.887187 176.812307 
C 302.060905 176.812307 292.330171 178.747871 283.251869 182.508226 
C 274.173568 186.268582 265.92425 191.7806 258.976018 198.728831 
C 252.027787 205.677062 246.515769 213.92638 242.755414 223.004682 
C 238.995058 232.082983 237.059495 241.813717 237.059495 251.64 
C 237.059495 261.466283 238.995058 271.197017 242.755414 280.275318 
C 246.515769 289.35362 252.027787 297.602938 258.976018 304.551169 
C 265.92425 311.4994 274.173568 317.011418 283.251869 320.771774 
C 292.330171 324.532129 302.060905 326.467693 311.887187 326.467693 
C 321.71347 326.467693 331.444204 324.532129 340.522506 320.771774 
C 349.600807 317.011418 357.850125 311.4994 364.798357 304.551169 
C 371.746588 297.602938 377.258606 289.35362 381.018961 280.275318 
C 384.779317 271.197017 386.71488 261.466283 386.71488 251.64 
" clip-path="url(#p79f03afa39)" style="fill: none; stroke: #cccccc; stroke-width: 0.8; stroke-linecap: round"/>
     </g>
     <g id="text_6">
      <!-- 0.4 -->
      <g style="fill: #262626; opacity: 0.75" transform="translate(381.018961 220.924994) scale(0.1 -0.1)">
       <defs>
        <path id="DejaVuSerif-34" d="M 2234 1581 
L 2234 4063 
L 641 1581 
L 2234 1581 
z
M 3609 0 
L 1484 0 
L 1484 331 
L 2234 331 
L 2234 1247 
L 197 1247 
L 197 1588 
L 2241 4750 
L 2859 4750 
L 2859 1581 
L 3750 1581 
L 3750 1247 
L 2859 1247 
L 2859 331 
L 3609 331 
L 3609 0 
z
" transform="scale(0.015625)"/>
       </defs>
       <use xlink:href="#DejaVuSerif-30"/>
       <use xlink:href="#DejaVuSerif-2e" x="63.623047"/>
       <use xlink:href="#DejaVuSerif-34" x="95.410156"/>
      </g>
     </g>
    </g>
    <g id="ytick_3">
     <g id="line2d_7">
      <path d="M 424.128727 251.64 
C 424.128727 236.900576 421.225382 222.304475 415.584848 208.687022 
C 409.944315 195.06957 401.676288 182.695593 391.253941 172.273246 
C 380.831594 161.8509 368.457617 153.582872 354.840165 147.942339 
C 341.222713 142.301806 326.626611 139.398461 311.887187 139.398461 
C 297.147764 139.398461 282.551662 142.301806 268.93421 147.942339 
C 255.316758 153.582872 242.942781 161.8509 232.520434 172.273246 
C 222.098087 182.695593 213.83006 195.06957 208.189527 208.687022 
C 202.548993 222.304475 199.645648 236.900576 199.645648 251.64 
C 199.645648 266.379424 202.548993 280.975525 208.189527 294.592978 
C 213.83006 308.21043 222.098087 320.584407 232.520434 331.006754 
C 242.942781 341.4291 255.316758 349.697128 268.93421 355.337661 
C 282.551662 360.978194 297.147764 363.881539 311.887187 363.881539 
C 326.626611 363.881539 341.222713 360.978194 354.840165 355.337661 
C 368.457617 349.697128 380.831594 341.4291 391.253941 331.006754 
C 401.676288 320.584407 409.944315 308.21043 415.584848 294.592978 
C 421.225382 280.975525 424.128727 266.379424 424.128727 251.64 
" clip-path="url(#p79f03afa39)" style="fill: none; stroke: #cccccc; stroke-width: 0.8; stroke-linecap: round"/>
     </g>
     <g id="text_7">
      <!-- 0.6 -->
      <g style="fill: #262626; opacity: 0.75" transform="translate(415.584848 206.607335) scale(0.1 -0.1)">
       <defs>
        <path id="DejaVuSerif-36" d="M 2094 219 
Q 2534 219 2771 542 
Q 3009 866 3009 1472 
Q 3009 2078 2771 2401 
Q 2534 2725 2094 2725 
Q 1647 2725 1412 2412 
Q 1178 2100 1178 1509 
Q 1178 888 1415 553 
Q 1653 219 2094 219 
z
M 1075 2569 
Q 1288 2803 1556 2918 
Q 1825 3034 2163 3034 
Q 2859 3034 3264 2615 
Q 3669 2197 3669 1472 
Q 3669 763 3233 336 
Q 2797 -91 2069 -91 
Q 1278 -91 853 498 
Q 428 1088 428 2181 
Q 428 3406 931 4078 
Q 1434 4750 2350 4750 
Q 2597 4750 2869 4703 
Q 3141 4656 3425 4563 
L 3425 3794 
L 3072 3794 
Q 3034 4109 2831 4275 
Q 2628 4441 2284 4441 
Q 1678 4441 1381 3981 
Q 1084 3522 1075 2569 
z
" transform="scale(0.015625)"/>
       </defs>
       <use xlink:href="#DejaVuSerif-30"/>
       <use xlink:href="#DejaVuSerif-2e" x="63.623047"/>
       <use xlink:href="#DejaVuSerif-36" x="95.410156"/>
      </g>
     </g>
    </g>
    <g id="ytick_4">
     <g id="line2d_8">
      <path d="M 461.542573 251.64 
C 461.542573 231.987435 457.671446 212.525966 450.150735 194.369363 
C 442.630024 176.212761 431.605988 159.714124 417.709526 145.817662 
C 403.813063 131.9212 387.314427 120.897163 369.157824 113.376452 
C 351.001221 105.855741 331.539753 101.984614 311.887187 101.984614 
C 292.234622 101.984614 272.773154 105.855741 254.616551 113.376452 
C 236.459948 120.897163 219.961312 131.9212 206.064849 145.817662 
C 192.168387 159.714124 181.144351 176.212761 173.62364 194.369363 
C 166.102929 212.525966 162.231802 231.987435 162.231802 251.64 
C 162.231802 271.292565 166.102929 290.754034 173.62364 308.910637 
C 181.144351 327.067239 192.168387 343.565876 206.064849 357.462338 
C 219.961312 371.3588 236.459948 382.382837 254.616551 389.903548 
C 272.773154 397.424259 292.234622 401.295386 311.887187 401.295386 
C 331.539753 401.295386 351.001221 397.424259 369.157824 389.903548 
C 387.314427 382.382837 403.813063 371.3588 417.709526 357.462338 
C 431.605988 343.565876 442.630024 327.067239 450.150735 308.910637 
C 457.671446 290.754034 461.542573 271.292565 461.542573 251.64 
" clip-path="url(#p79f03afa39)" style="fill: none; stroke: #cccccc; stroke-width: 0.8; stroke-linecap: round"/>
     </g>
     <g id="text_8">
      <!-- 0.8 -->
      <g style="fill: #262626; opacity: 0.75" transform="translate(450.150735 192.289676) scale(0.1 -0.1)">
       <defs>
        <path id="DejaVuSerif-38" d="M 2981 1275 
Q 2981 1775 2732 2051 
Q 2484 2328 2034 2328 
Q 1584 2328 1336 2051 
Q 1088 1775 1088 1275 
Q 1088 772 1336 495 
Q 1584 219 2034 219 
Q 2484 219 2732 495 
Q 2981 772 2981 1275 
z
M 2853 3541 
Q 2853 3966 2637 4203 
Q 2422 4441 2034 4441 
Q 1650 4441 1433 4203 
Q 1216 3966 1216 3541 
Q 1216 3113 1433 2875 
Q 1650 2638 2034 2638 
Q 2422 2638 2637 2875 
Q 2853 3113 2853 3541 
z
M 2516 2484 
Q 3047 2413 3344 2092 
Q 3641 1772 3641 1275 
Q 3641 619 3225 264 
Q 2809 -91 2034 -91 
Q 1263 -91 845 264 
Q 428 619 428 1275 
Q 428 1772 725 2092 
Q 1022 2413 1556 2484 
Q 1084 2569 832 2842 
Q 581 3116 581 3541 
Q 581 4103 968 4426 
Q 1356 4750 2034 4750 
Q 2713 4750 3100 4426 
Q 3488 4103 3488 3541 
Q 3488 3116 3236 2842 
Q 2984 2569 2516 2484 
z
" transform="scale(0.015625)"/>
       </defs>
       <use xlink:href="#DejaVuSerif-30"/>
       <use xlink:href="#DejaVuSerif-2e" x="63.623047"/>
       <use xlink:href="#DejaVuSerif-38" x="95.410156"/>
      </g>
     </g>
    </g>
    <g id="ytick_5">
     <g id="line2d_9">
      <path d="M 498.95642 251.64 
C 498.95642 227.074294 494.117511 202.747458 484.716622 180.051704 
C 475.315733 157.355951 461.535688 136.732655 444.16511 119.362077 
C 426.794532 101.9915 406.171237 88.211454 383.475483 78.810565 
C 360.77973 69.409676 336.452894 64.570768 311.887187 64.570768 
C 287.321481 64.570768 262.994645 69.409676 240.298892 78.810565 
C 217.603138 88.211454 196.979843 101.9915 179.609265 119.362077 
C 162.238687 136.732655 148.458642 157.355951 139.057753 180.051704 
C 129.656864 202.747458 124.817955 227.074294 124.817955 251.64 
C 124.817955 276.205706 129.656864 300.532542 139.057753 323.228296 
C 148.458642 345.924049 162.238687 366.547345 179.609265 383.917923 
C 196.979843 401.2885 217.603138 415.068546 240.298892 424.469435 
C 262.994645 433.870324 287.321481 438.709232 311.887187 438.709232 
C 336.452894 438.709232 360.77973 433.870324 383.475483 424.469435 
C 406.171237 415.068546 426.794532 401.2885 444.16511 383.917923 
C 461.535688 366.547345 475.315733 345.924049 484.716622 323.228296 
C 494.117511 300.532542 498.95642 276.205706 498.95642 251.64 
" clip-path="url(#p79f03afa39)" style="fill: none; stroke: #cccccc; stroke-width: 0.8; stroke-linecap: round"/>
     </g>
     <g id="text_9">
      <!-- 1.0 -->
      <g style="fill: #262626; opacity: 0.75" transform="translate(484.716622 177.972017) scale(0.1 -0.1)">
       <defs>
        <path id="DejaVuSerif-31" d="M 909 0 
L 909 331 
L 1722 331 
L 1722 4213 
L 781 3603 
L 781 4013 
L 1919 4750 
L 2350 4750 
L 2350 331 
L 3163 331 
L 3163 0 
L 909 0 
z
" transform="scale(0.015625)"/>
       </defs>
       <use xlink:href="#DejaVuSerif-31"/>
       <use xlink:href="#DejaVuSerif-2e" x="63.623047"/>
       <use xlink:href="#DejaVuSerif-30" x="95.410156"/>
      </g>
     </g>
    </g>
   </g>
   <g id="patch_3">
    <path d="M 333.506587 251.64 
L 311.887187 157.670584 
L 178.050822 251.64 
L 311.887187 370.951706 
z
" clip-path="url(#p79f03afa39)" style="fill: #0173b2; opacity: 0.1; stroke: #ffffff; stroke-linejoin: miter"/>
   </g>
   <g id="patch_4">
    <path d="M 367.016045 251.64 
L 311.887187 183.433875 
L 213.140618 251.64 
L 311.887187 341.22345 
z
" clip-path="url(#p79f03afa39)" style="fill: #de8f05; opacity: 0.1; stroke: #ffffff; stroke-linejoin: miter"/>
   </g>
   <g id="patch_5">
    <path d="M 497.716683 251.64 
L 311.887187 66.264797 
L 134.863616 251.64 
L 311.887187 404.594534 
z
" clip-path="url(#p79f03afa39)" style="fill: #029e73; opacity: 0.1; stroke: #ffffff; stroke-linejoin: miter"/>
   </g>
   <g id="patch_6">
    <path d="M 478.418994 251.64 
L 311.887187 81.025051 
L 224.126237 251.64 
L 311.887187 329.984026 
z
" clip-path="url(#p79f03afa39)" style="fill: #d55e00; opacity: 0.1; stroke: #ffffff; stroke-linejoin: miter"/>
   </g>
   <g id="line2d_10">
    <path d="M 333.506587 251.64 
L 311.887187 157.670584 
L 178.050822 251.64 
L 311.887187 370.951706 
L 333.506587 251.64 
" clip-path="url(#p79f03afa39)" style="fill: none; stroke: #0173b2; stroke-width: 2; stroke-linecap: round"/>
    <defs>
     <path id="m13754ec4c5" d="M 0 4 
C 1.060812 4 2.078319 3.578535 2.828427 2.828427 
C 3.578535 2.078319 4 1.060812 4 0 
C 4 -1.060812 3.578535 -2.078319 2.828427 -2.828427 
C 2.078319 -3.578535 1.060812 -4 0 -4 
C -1.060812 -4 -2.078319 -3.578535 -2.828427 -2.828427 
C -3.578535 -2.078319 -4 -1.060812 -4 0 
C -4 1.060812 -3.578535 2.078319 -2.828427 2.828427 
C -2.078319 3.578535 -1.060812 4 0 4 
z
" style="stroke: #0173b2"/>
    </defs>
    <g clip-path="url(#p79f03afa39)">
     <use xlink:href="#m13754ec4c5" x="333.506587" y="251.64" style="fill: #0173b2; stroke: #0173b2"/>
     <use xlink:href="#m13754ec4c5" x="311.887187" y="157.670584" style="fill: #0173b2; stroke: #0173b2"/>
     <use xlink:href="#m13754ec4c5" x="178.050822" y="251.64" style="fill: #0173b2; stroke: #0173b2"/>
     <use xlink:href="#m13754ec4c5" x="311.887187" y="370.951706" style="fill: #0173b2; stroke: #0173b2"/>
     <use xlink:href="#m13754ec4c5" x="333.506587" y="251.64" style="fill: #0173b2; stroke: #0173b2"/>
    </g>
   </g>
   <g id="line2d_11">
    <path d="M 367.016045 251.64 
L 311.887187 183.433875 
L 213.140618 251.64 
L 311.887187 341.22345 
L 367.016045 251.64 
" clip-path="url(#p79f03afa39)" style="fill: none; stroke: #de8f05; stroke-width: 2; stroke-linecap: round"/>
    <defs>
     <path id="m79a82e7788" d="M 0 4 
C 1.060812 4 2.078319 3.578535 2.828427 2.828427 
C 3.578535 2.078319 4 1.060812 4 0 
C 4 -1.060812 3.578535 -2.078319 2.828427 -2.828427 
C 2.078319 -3.578535 1.060812 -4 0 -4 
C -1.060812 -4 -2.078319 -3.578535 -2.828427 -2.828427 
C -3.578535 -2.078319 -4 -1.060812 -4 0 
C -4 1.060812 -3.578535 2.078319 -2.828427 2.828427 
C -2.078319 3.578535 -1.060812 4 0 4 
z
" style="stroke: #de8f05"/>
    </defs>
    <g clip-path="url(#p79f03afa39)">
     <use xlink:href="#m79a82e7788" x="367.016045" y="251.64" style="fill: #de8f05; stroke: #de8f05"/>
     <use xlink:href="#m79a82e7788" x="311.887187" y="183.433875" style="fill: #de8f05; stroke: #de8f05"/>
     <use xlink:href="#m79a82e7788" x="213.140618" y="251.64" style="fill: #de8f05; stroke: #de8f05"/>
     <use xlink:href="#m79a82e7788" x="311.887187" y="341.22345" style="fill: #de8f05; stroke: #de8f05"/>
     <use xlink:href="#m79a82e7788" x="367.016045" y="251.64" style="fill: #de8f05; stroke: #de8f05"/>
    </g>
   </g>
   <g id="line2d_12">
    <path d="M 497.716683 251.64 
L 311.887187 66.264797 
L 134.863616 251.64 
L 311.887187 404.594534 
L 497.716683 251.64 
" clip-path="url(#p79f03afa39)" style="fill: none; stroke: #029e73; stroke-width: 2; stroke-linecap: round"/>
    <defs>
     <path id="m2655677160" d="M 0 4 
C 1.060812 4 2.078319 3.578535 2.828427 2.828427 
C 3.578535 2.078319 4 1.060812 4 0 
C 4 -1.060812 3.578535 -2.078319 2.828427 -2.828427 
C 2.078319 -3.578535 1.060812 -4 0 -4 
C -1.060812 -4 -2.078319 -3.578535 -2.828427 -2.828427 
C -3.578535 -2.078319 -4 -1.060812 -4 0 
C -4 1.060812 -3.578535 2.078319 -2.828427 2.828427 
C -2.078319 3.578535 -1.060812 4 0 4 
z
" style="stroke: #029e73"/>
    </defs>
    <g clip-path="url(#p79f03afa39)">
     <use xlink:href="#m2655677160" x="497.716683" y="251.64" style="fill: #029e73; stroke: #029e73"/>
     <use xlink:href="#m2655677160" x="311.887187" y="66.264797" style="fill: #029e73; stroke: #029e73"/>
     <use xlink:href="#m2655677160" x="134.863616" y="251.64" style="fill: #029e73; stroke: #029e73"/>
     <use xlink:href="#m2655677160" x="311.887187" y="404.594534" style="fill: #029e73; stroke: #029e73"/>
     <use xlink:href="#m2655677160" x="497.716683" y="251.64" style="fill: #029e73; stroke: #029e73"/>
    </g>
   </g>
   <g id="line2d_13">
    <path d="M 478.418994 251.64 
L 311.887187 81.025051 
L 224.126237 251.64 
L 311.887187 329.984026 
L 478.418994 251.64 
" clip-path="url(#p79f03afa39)" style="fill: none; stroke: #d55e00; stroke-width: 2; stroke-linecap: round"/>
    <defs>
     <path id="m82789a5001" d="M 0 4 
C 1.060812 4 2.078319 3.578535 2.828427 2.828427 
C 3.578535 2.078319 4 1.060812 4 0 
C 4 -1.060812 3.578535 -2.078319 2.828427 -2.828427 
C 2.078319 -3.578535 1.060812 -4 0 -4 
C -1.060812 -4 -2.078319 -3.578535 -2.828427 -2.828427 
C -3.578535 -2.078319 -4 -1.060812 -4 0 
C -4 1.060812 -3.578535 2.078319 -2.828427 2.828427 
C -2.078319 3.578535 -1.060812 4 0 4 
z
" style="stroke: #d55e00"/>
    </defs>
    <g clip-path="url(#p79f03afa39)">
     <use xlink:href="#m82789a5001" x="478.418994" y="251.64" style="fill: #d55e00; stroke: #d55e00"/>
     <use xlink:href="#m82789a5001" x="311.887187" y="81.025051" style="fill: #d55e00; stroke: #d55e00"/>
     <use xlink:href="#m82789a5001" x="224.126237" y="251.64" style="fill: #d55e00; stroke: #d55e00"/>
     <use xlink:href="#m82789a5001" x="311.887187" y="329.984026" style="fill: #d55e00; stroke: #d55e00"/>
     <use xlink:href="#m82789a5001" x="478.418994" y="251.64" style="fill: #d55e00; stroke: #d55e00"/>
    </g>
   </g>
   <g id="patch_7">
    <path d="M 505.927187 251.64 
C 505.927187 226.158901 500.907967 200.925573 491.156772 177.384107 
C 481.405577 153.842641 467.112045 132.450858 449.094187 114.433 
C 431.076329 96.415142 409.684547 82.12161 386.143081 72.370416 
C 362.601615 62.619221 337.368287 57.6 311.887187 57.6 
C 286.406088 57.6 261.17276 62.619221 237.631294 72.370416 
C 214.089828 82.12161 192.698046 96.415142 174.680188 114.433 
C 156.66233 132.450858 142.368798 153.842641 132.617603 177.384107 
C 122.866408 200.925573 117.847187 226.158901 117.847187 251.64 
C 117.847187 277.121099 122.866408 302.354427 132.617603 325.895893 
C 142.368798 349.437359 156.66233 370.829142 174.680188 388.847 
C 192.698046 406.864858 214.089828 421.15839 237.631294 430.909584 
C 261.17276 440.660779 286.406088 445.68 311.887187 445.68 
C 337.368287 445.68 362.601615 440.660779 386.143081 430.909584 
C 409.684547 421.15839 431.076329 406.864858 449.094187 388.847 
C 467.112045 370.829142 481.405577 349.437359 491.156772 325.895893 
C 500.907967 302.354427 505.927187 277.121099 505.927187 251.64 
" style="fill: none; stroke: #262626; stroke-width: 0.8; stroke-linejoin: miter; stroke-linecap: square"/>
   </g>
   <g id="legend_1">
    <g id="line2d_14">
     <path d="M 38.485187 418.660594 
L 45.235187 418.660594 
L 51.985187 418.660594 
" style="fill: none; stroke: #0173b2; stroke-width: 2; stroke-linecap: round"/>
     <defs>
      <path id="mfe8d046d03" d="M 0 4.8 
C 1.272975 4.8 2.493983 4.294242 3.394113 3.394113 
C 4.294242 2.493983 4.8 1.272975 4.8 0 
C 4.8 -1.272975 4.294242 -2.493983 3.394113 -3.394113 
C 2.493983 -4.294242 1.272975 -4.8 0 -4.8 
C -1.272975 -4.8 -2.493983 -4.294242 -3.394113 -3.394113 
C -4.294242 -2.493983 -4.8 -1.272975 -4.8 0 
C -4.8 1.272975 -4.294242 2.493983 -3.394113 3.394113 
C -2.493983 4.294242 -1.272975 4.8 0 4.8 
z
" style="stroke: #0173b2"/>
     </defs>
     <g>
      <use xlink:href="#mfe8d046d03" x="45.235187" y="418.660594" style="fill: #0173b2; stroke: #0173b2"/>
     </g>
    </g>
    <g id="text_10">
     <!-- JAPAN -->
     <g style="fill: #262626" transform="translate(59.185187 421.810594) scale(0.09 -0.09)">
      <defs>
       <path id="DejaVuSerif-4a" d="M -538 -1119 
L -538 -384 
L -181 -384 
Q -172 -694 -34 -845 
Q 103 -997 378 -997 
Q 750 -997 897 -762 
Q 1044 -528 1044 153 
L 1044 4331 
L 319 4331 
L 319 4666 
L 2272 4666 
L 2272 4331 
L 1678 4331 
L 1678 128 
Q 1678 -644 1368 -987 
Q 1059 -1331 372 -1331 
Q 150 -1331 -79 -1278 
Q -309 -1225 -538 -1119 
z
" transform="scale(0.015625)"/>
       <path id="DejaVuSerif-4e" d="M 313 0 
L 313 331 
L 941 331 
L 941 4331 
L 313 4331 
L 313 4666 
L 1509 4666 
L 4306 984 
L 4306 4331 
L 3681 4331 
L 3681 4666 
L 5319 4666 
L 5319 4331 
L 4691 4331 
L 4691 -91 
L 4313 -91 
L 1325 3841 
L 1325 331 
L 1953 331 
L 1953 0 
L 313 0 
z
" transform="scale(0.015625)"/>
      </defs>
      <use xlink:href="#DejaVuSerif-4a"/>
      <use xlink:href="#DejaVuSerif-41" x="40.087891"/>
      <use xlink:href="#DejaVuSerif-50" x="112.304688"/>
      <use xlink:href="#DejaVuSerif-41" x="170.464844"/>
      <use xlink:href="#DejaVuSerif-4e" x="242.681641"/>
     </g>
    </g>
    <g id="line2d_15">
     <path d="M 38.485187 431.870906 
L 45.235187 431.870906 
L 51.985187 431.870906 
" style="fill: none; stroke: #de8f05; stroke-width: 2; stroke-linecap: round"/>
     <defs>
      <path id="maca068fef7" d="M 0 4.8 
C 1.272975 4.8 2.493983 4.294242 3.394113 3.394113 
C 4.294242 2.493983 4.8 1.272975 4.8 0 
C 4.8 -1.272975 4.294242 -2.493983 3.394113 -3.394113 
C 2.493983 -4.294242 1.272975 -4.8 0 -4.8 
C -1.272975 -4.8 -2.493983 -4.294242 -3.394113 -3.394113 
C -4.294242 -2.493983 -4.8 -1.272975 -4.8 0 
C -4.8 1.272975 -4.294242 2.493983 -3.394113 3.394113 
C -2.493983 4.294242 -1.272975 4.8 0 4.8 
z
" style="stroke: #de8f05"/>
     </defs>
     <g>
      <use xlink:href="#maca068fef7" x="45.235187" y="431.870906" style="fill: #de8f05; stroke: #de8f05"/>
     </g>
    </g>
    <g id="text_11">
     <!-- REGION785 -->
     <g style="fill: #262626" transform="translate(59.185187 435.020906) scale(0.09 -0.09)">
      <defs>
       <path id="DejaVuSerif-47" d="M 4097 3272 
Q 3988 3856 3641 4136 
Q 3294 4416 2675 4416 
Q 1869 4416 1472 3897 
Q 1075 3378 1075 2328 
Q 1075 1300 1484 772 
Q 1894 244 2688 244 
Q 3041 244 3362 331 
Q 3684 419 3975 594 
L 3975 1797 
L 3097 1797 
L 3097 2131 
L 4609 2131 
L 4609 391 
Q 4194 150 3714 29 
Q 3234 -91 2688 -91 
Q 1631 -91 995 570 
Q 359 1231 359 2328 
Q 359 3434 996 4092 
Q 1634 4750 2713 4750 
Q 3113 4750 3539 4658 
Q 3966 4566 4447 4378 
L 4447 3272 
L 4097 3272 
z
" transform="scale(0.015625)"/>
       <path id="DejaVuSerif-49" d="M 1581 331 
L 2175 331 
L 2175 0 
L 353 0 
L 353 331 
L 947 331 
L 947 4331 
L 353 4331 
L 353 4666 
L 2175 4666 
L 2175 4331 
L 1581 4331 
L 1581 331 
z
" transform="scale(0.015625)"/>
       <path id="DejaVuSerif-4f" d="M 2625 244 
Q 3391 244 3781 770 
Q 4172 1297 4172 2328 
Q 4172 3363 3781 3889 
Q 3391 4416 2625 4416 
Q 1856 4416 1465 3889 
Q 1075 3363 1075 2328 
Q 1075 1297 1465 770 
Q 1856 244 2625 244 
z
M 2625 -91 
Q 2150 -91 1751 65 
Q 1353 222 1050 525 
Q 700 875 529 1319 
Q 359 1763 359 2328 
Q 359 2894 529 3339 
Q 700 3784 1050 4134 
Q 1356 4441 1750 4595 
Q 2144 4750 2625 4750 
Q 3641 4750 4266 4084 
Q 4891 3419 4891 2328 
Q 4891 1769 4719 1320 
Q 4547 872 4197 525 
Q 3891 219 3497 64 
Q 3103 -91 2625 -91 
z
" transform="scale(0.015625)"/>
       <path id="DejaVuSerif-37" d="M 3609 4347 
L 1784 0 
L 1319 0 
L 3059 4153 
L 903 4153 
L 903 3578 
L 538 3578 
L 538 4666 
L 3609 4666 
L 3609 4347 
z
" transform="scale(0.015625)"/>
       <path id="DejaVuSerif-35" d="M 3219 4666 
L 3219 4153 
L 1081 4153 
L 1081 2816 
Q 1244 2928 1461 2984 
Q 1678 3041 1947 3041 
Q 2703 3041 3140 2622 
Q 3578 2203 3578 1478 
Q 3578 738 3136 323 
Q 2694 -91 1894 -91 
Q 1572 -91 1234 -12 
Q 897 66 544 225 
L 544 1131 
L 897 1131 
Q 925 688 1179 453 
Q 1434 219 1894 219 
Q 2388 219 2653 544 
Q 2919 869 2919 1478 
Q 2919 2084 2655 2407 
Q 2391 2731 1894 2731 
Q 1613 2731 1398 2631 
Q 1184 2531 1019 2322 
L 750 2322 
L 750 4666 
L 3219 4666 
z
" transform="scale(0.015625)"/>
      </defs>
      <use xlink:href="#DejaVuSerif-52"/>
      <use xlink:href="#DejaVuSerif-45" x="75.292969"/>
      <use xlink:href="#DejaVuSerif-47" x="148.291016"/>
      <use xlink:href="#DejaVuSerif-49" x="228.173828"/>
      <use xlink:href="#DejaVuSerif-4f" x="267.675781"/>
      <use xlink:href="#DejaVuSerif-4e" x="349.658203"/>
      <use xlink:href="#DejaVuSerif-37" x="437.158203"/>
      <use xlink:href="#DejaVuSerif-38" x="500.78125"/>
      <use xlink:href="#DejaVuSerif-35" x="564.404297"/>
     </g>
    </g>
    <g id="line2d_16">
     <path d="M 38.485187 445.081219 
L 45.235187 445.081219 
L 51.985187 445.081219 
" style="fill: none; stroke: #029e73; stroke-width: 2; stroke-linecap: round"/>
     <defs>
      <path id="md564fcd252" d="M 0 4.8 
C 1.272975 4.8 2.493983 4.294242 3.394113 3.394113 
C 4.294242 2.493983 4.8 1.272975 4.8 0 
C 4.8 -1.272975 4.294242 -2.493983 3.394113 -3.394113 
C 2.493983 -4.294242 1.272975 -4.8 0 -4.8 
C -1.272975 -4.8 -2.493983 -4.294242 -3.394113 -3.394113 
C -4.294242 -2.493983 -4.8 -1.272975 -4.8 0 
C -4.8 1.272975 -4.294242 2.493983 -3.394113 3.394113 
C -2.493983 4.294242 -1.272975 4.8 0 4.8 
z
" style="stroke: #029e73"/>
     </defs>
     <g>
      <use xlink:href="#md564fcd252" x="45.235187" y="445.081219" style="fill: #029e73; stroke: #029e73"/>
     </g>
    </g>
    <g id="text_12">
     <!-- NHS_TIMESERIES -->
     <g style="fill: #262626" transform="translate(59.185187 448.231219) scale(0.09 -0.09)">
      <defs>
       <path id="DejaVuSerif-48" d="M 353 0 
L 353 331 
L 947 331 
L 947 4331 
L 353 4331 
L 353 4666 
L 2175 4666 
L 2175 4331 
L 1581 4331 
L 1581 2719 
L 4000 2719 
L 4000 4331 
L 3406 4331 
L 3406 4666 
L 5228 4666 
L 5228 4331 
L 4634 4331 
L 4634 331 
L 5228 331 
L 5228 0 
L 3406 0 
L 3406 331 
L 4000 331 
L 4000 2338 
L 1581 2338 
L 1581 331 
L 2175 331 
L 2175 0 
L 353 0 
z
" transform="scale(0.015625)"/>
       <path id="DejaVuSerif-5f" d="M 3200 -1259 
L 3200 -1509 
L 0 -1509 
L 0 -1259 
L 3200 -1259 
z
" transform="scale(0.015625)"/>
       <path id="DejaVuSerif-54" d="M 1222 0 
L 1222 331 
L 1819 331 
L 1819 4294 
L 447 4294 
L 447 3566 
L 63 3566 
L 63 4666 
L 4206 4666 
L 4206 3566 
L 3822 3566 
L 3822 4294 
L 2450 4294 
L 2450 331 
L 3047 331 
L 3047 0 
L 1222 0 
z
" transform="scale(0.015625)"/>
      </defs>
      <use xlink:href="#DejaVuSerif-4e"/>
      <use xlink:href="#DejaVuSerif-48" x="87.5"/>
      <use xlink:href="#DejaVuSerif-53" x="174.707031"/>
      <use xlink:href="#DejaVuSerif-5f" x="243.212891"/>
      <use xlink:href="#DejaVuSerif-54" x="293.212891"/>
      <use xlink:href="#DejaVuSerif-49" x="359.912109"/>
      <use xlink:href="#DejaVuSerif-4d" x="399.414062"/>
      <use xlink:href="#DejaVuSerif-45" x="501.806641"/>
      <use xlink:href="#DejaVuSerif-53" x="574.804688"/>
      <use xlink:href="#DejaVuSerif-45" x="643.310547"/>
      <use xlink:href="#DejaVuSerif-52" x="716.308594"/>
      <use xlink:href="#DejaVuSerif-49" x="791.601562"/>
      <use xlink:href="#DejaVuSerif-45" x="831.103516"/>
      <use xlink:href="#DejaVuSerif-53" x="904.101562"/>
     </g>
    </g>
    <g id="line2d_17">
     <path d="M 38.485187 458.541844 
L 45.235187 458.541844 
L 51.985187 458.541844 
" style="fill: none; stroke: #d55e00; stroke-width: 2; stroke-linecap: round"/>
     <defs>
      <path id="m872e0bd36d" d="M 0 4.8 
C 1.272975 4.8 2.493983 4.294242 3.394113 3.394113 
C 4.294242 2.493983 4.8 1.272975 4.8 0 
C 4.8 -1.272975 4.294242 -2.493983 3.394113 -3.394113 
C 2.493983 -4.294242 1.272975 -4.8 0 -4.8 
C -1.272975 -4.8 -2.493983 -4.294242 -3.394113 -3.394113 
C -4.294242 -2.493983 -4.8 -1.272975 -4.8 0 
C -4.8 1.272975 -4.294242 2.493983 -3.394113 3.394113 
C -2.493983 4.294242 -1.272975 4.8 0 4.8 
z
" style="stroke: #d55e00"/>
     </defs>
     <g>
      <use xlink:href="#m872e0bd36d" x="45.235187" y="458.541844" style="fill: #d55e00; stroke: #d55e00"/>
     </g>
    </g>
    <g id="text_13">
     <!-- LTLA_TIMESERIES -->
     <g style="fill: #262626" transform="translate(59.185187 461.691844) scale(0.09 -0.09)">
      <defs>
       <path id="DejaVuSerif-4c" d="M 353 0 
L 353 331 
L 947 331 
L 947 4331 
L 353 4331 
L 353 4666 
L 2175 4666 
L 2175 4331 
L 1581 4331 
L 1581 384 
L 3713 384 
L 3713 1166 
L 4097 1166 
L 4097 0 
L 353 0 
z
" transform="scale(0.015625)"/>
      </defs>
      <use xlink:href="#DejaVuSerif-4c"/>
      <use xlink:href="#DejaVuSerif-54" x="58.28125"/>
      <use xlink:href="#DejaVuSerif-4c" x="124.980469"/>
      <use xlink:href="#DejaVuSerif-41" x="191.386719"/>
      <use xlink:href="#DejaVuSerif-5f" x="263.603516"/>
      <use xlink:href="#DejaVuSerif-54" x="313.603516"/>
      <use xlink:href="#DejaVuSerif-49" x="380.302734"/>
      <use xlink:href="#DejaVuSerif-4d" x="419.804688"/>
      <use xlink:href="#DejaVuSerif-45" x="522.197266"/>
      <use xlink:href="#DejaVuSerif-53" x="595.195312"/>
      <use xlink:href="#DejaVuSerif-45" x="663.701172"/>
      <use xlink:href="#DejaVuSerif-52" x="736.699219"/>
      <use xlink:href="#DejaVuSerif-49" x="811.992188"/>
      <use xlink:href="#DejaVuSerif-45" x="851.494141"/>
      <use xlink:href="#DejaVuSerif-53" x="924.492188"/>
     </g>
    </g>
   </g>
  </g>
  <g id="text_14">
   <!-- Comparative Performance Across Metrics -->
   <g style="fill: #262626" transform="translate(165.630625 16.318125) scale(0.12 -0.12)">
    <defs>
     <path id="DejaVuSerif-Bold-43" d="M 4769 1331 
Q 4584 609 4106 259 
Q 3628 -91 2822 -91 
Q 1641 -91 955 561 
Q 269 1213 269 2328 
Q 269 3447 955 4098 
Q 1641 4750 2822 4750 
Q 3238 4750 3688 4650 
Q 4138 4550 4641 4347 
L 4641 3200 
L 4244 3200 
Q 4122 3788 3800 4080 
Q 3478 4372 2950 4372 
Q 2269 4372 1937 3870 
Q 1606 3369 1606 2328 
Q 1606 1288 1937 788 
Q 2269 288 2956 288 
Q 3422 288 3717 547 
Q 4013 806 4147 1331 
L 4769 1331 
z
" transform="scale(0.015625)"/>
     <path id="DejaVuSerif-Bold-6f" d="M 2138 263 
Q 2488 263 2630 563 
Q 2772 863 2772 1663 
Q 2772 2463 2631 2761 
Q 2491 3059 2138 3059 
Q 1784 3059 1640 2757 
Q 1497 2456 1497 1663 
Q 1497 869 1640 566 
Q 1784 263 2138 263 
z
M 2138 -91 
Q 1259 -91 761 376 
Q 263 844 263 1663 
Q 263 2484 761 2948 
Q 1259 3413 2138 3413 
Q 3019 3413 3516 2948 
Q 4013 2484 4013 1663 
Q 4013 844 3514 376 
Q 3016 -91 2138 -91 
z
" transform="scale(0.015625)"/>
     <path id="DejaVuSerif-Bold-6d" d="M 3884 2778 
Q 4116 3109 4384 3261 
Q 4653 3413 5013 3413 
Q 5584 3413 5867 3089 
Q 6150 2766 6150 2113 
L 6150 378 
L 6625 378 
L 6625 0 
L 4647 0 
L 4647 378 
L 5044 378 
L 5044 1947 
Q 5044 2569 4948 2731 
Q 4853 2894 4594 2894 
Q 4300 2894 4137 2667 
Q 3975 2441 3975 2022 
L 3975 378 
L 4372 378 
L 4372 0 
L 2472 0 
L 2472 378 
L 2869 378 
L 2869 1947 
Q 2869 2569 2772 2731 
Q 2675 2894 2419 2894 
Q 2122 2894 1959 2667 
Q 1797 2441 1797 2022 
L 1797 378 
L 2194 378 
L 2194 0 
L 219 0 
L 219 378 
L 691 378 
L 691 2944 
L 219 2944 
L 219 3322 
L 1797 3322 
L 1797 2853 
Q 1991 3144 2241 3278 
Q 2491 3413 2834 3413 
Q 3241 3413 3494 3258 
Q 3747 3103 3884 2778 
z
" transform="scale(0.015625)"/>
     <path id="DejaVuSerif-Bold-70" d="M 1728 1825 
L 1728 1497 
Q 1728 916 1876 656 
Q 2025 397 2356 397 
Q 2697 397 2836 672 
Q 2975 947 2975 1663 
Q 2975 2378 2836 2651 
Q 2697 2925 2356 2925 
Q 2025 2925 1876 2665 
Q 1728 2406 1728 1825 
z
M 622 2944 
L 147 2944 
L 147 3322 
L 1728 3322 
L 1728 2900 
Q 1869 3159 2106 3286 
Q 2344 3413 2694 3413 
Q 3403 3413 3811 2945 
Q 4219 2478 4219 1663 
Q 4219 847 3811 378 
Q 3403 -91 2694 -91 
Q 2344 -91 2106 36 
Q 1869 163 1728 422 
L 1728 -953 
L 2241 -953 
L 2241 -1331 
L 147 -1331 
L 147 -953 
L 622 -953 
L 622 2944 
z
" transform="scale(0.015625)"/>
     <path id="DejaVuSerif-Bold-61" d="M 3525 2041 
L 3525 378 
L 4000 378 
L 4000 0 
L 2419 0 
L 2419 422 
Q 2200 159 1931 34 
Q 1663 -91 1319 -91 
Q 809 -91 536 182 
Q 263 456 263 966 
Q 263 1525 655 1803 
Q 1047 2081 1838 2081 
L 2419 2081 
L 2419 2278 
Q 2419 2681 2228 2873 
Q 2038 3066 1638 3066 
Q 1306 3066 1126 2930 
Q 947 2794 872 2484 
L 519 2484 
L 519 3200 
Q 816 3306 1134 3359 
Q 1453 3413 1806 3413 
Q 2697 3413 3111 3081 
Q 3525 2750 3525 2041 
z
M 2419 1044 
L 2419 1709 
L 2003 1709 
Q 1694 1709 1528 1540 
Q 1363 1372 1363 1056 
Q 1363 741 1483 584 
Q 1603 428 1850 428 
Q 2106 428 2262 597 
Q 2419 766 2419 1044 
z
" transform="scale(0.015625)"/>
     <path id="DejaVuSerif-Bold-72" d="M 3438 3359 
L 3438 2369 
L 3084 2369 
Q 3066 2634 2941 2764 
Q 2816 2894 2578 2894 
Q 2216 2894 2006 2575 
Q 1797 2256 1797 1691 
L 1797 378 
L 2400 378 
L 2400 0 
L 219 0 
L 219 378 
L 691 378 
L 691 2944 
L 184 2944 
L 184 3322 
L 1797 3322 
L 1797 2731 
Q 1959 3078 2226 3245 
Q 2494 3413 2881 3413 
Q 2978 3413 3117 3398 
Q 3256 3384 3438 3359 
z
" transform="scale(0.015625)"/>
     <path id="DejaVuSerif-Bold-74" d="M 634 2944 
L 153 2944 
L 153 3322 
L 634 3322 
L 634 4353 
L 1741 4353 
L 1741 3322 
L 2663 3322 
L 2663 2944 
L 1741 2944 
L 1741 909 
Q 1741 475 1809 369 
Q 1878 263 2059 263 
Q 2259 263 2356 397 
Q 2453 531 2459 813 
L 2925 813 
Q 2897 313 2651 111 
Q 2406 -91 1806 -91 
Q 1122 -91 878 123 
Q 634 338 634 909 
L 634 2944 
z
" transform="scale(0.015625)"/>
     <path id="DejaVuSerif-Bold-69" d="M 588 4263 
Q 588 4516 763 4689 
Q 938 4863 1191 4863 
Q 1438 4863 1611 4689 
Q 1784 4516 1784 4263 
Q 1784 4016 1611 3842 
Q 1438 3669 1191 3669 
Q 938 3669 763 3841 
Q 588 4013 588 4263 
z
M 1797 378 
L 2272 378 
L 2272 0 
L 219 0 
L 219 378 
L 691 378 
L 691 2944 
L 219 2944 
L 219 3322 
L 1797 3322 
L 1797 378 
z
" transform="scale(0.015625)"/>
     <path id="DejaVuSerif-Bold-76" d="M 1428 0 
L 250 2944 
L -116 2944 
L -116 3322 
L 1791 3322 
L 1791 2944 
L 1388 2944 
L 2228 844 
L 3066 2944 
L 2631 2944 
L 2631 3322 
L 3878 3322 
L 3878 2944 
L 3494 2944 
L 2316 0 
L 1428 0 
z
" transform="scale(0.015625)"/>
     <path id="DejaVuSerif-Bold-65" d="M 2566 1875 
Q 2566 2531 2444 2795 
Q 2322 3059 2028 3059 
Q 1744 3059 1620 2800 
Q 1497 2541 1497 1931 
L 1497 1875 
L 2566 1875 
z
M 3781 1503 
L 1497 1503 
L 1497 1478 
Q 1497 834 1690 548 
Q 1884 263 2316 263 
Q 2675 263 2897 453 
Q 3119 644 3181 1006 
L 3700 1006 
Q 3566 441 3166 175 
Q 2766 -91 2047 -91 
Q 1184 -91 723 364 
Q 263 819 263 1663 
Q 263 2488 734 2950 
Q 1206 3413 2047 3413 
Q 2872 3413 3312 2927 
Q 3753 2441 3781 1503 
z
" transform="scale(0.015625)"/>
     <path id="DejaVuSerif-Bold-20" transform="scale(0.015625)"/>
     <path id="DejaVuSerif-Bold-50" d="M 300 0 
L 300 378 
L 897 378 
L 897 4288 
L 300 4288 
L 300 4666 
L 2956 4666 
Q 3734 4666 4193 4295 
Q 4653 3925 4653 3303 
Q 4653 2678 4192 2304 
Q 3731 1931 2956 1931 
L 2100 1931 
L 2100 378 
L 2853 378 
L 2853 0 
L 300 0 
z
M 2100 2309 
L 2450 2309 
Q 2856 2309 3098 2579 
Q 3341 2850 3341 3303 
Q 3341 3753 3100 4020 
Q 2859 4288 2450 4288 
L 2100 4288 
L 2100 2309 
z
" transform="scale(0.015625)"/>
     <path id="DejaVuSerif-Bold-66" d="M 3097 4031 
L 2747 4031 
Q 2722 4275 2605 4394 
Q 2488 4513 2272 4513 
Q 2022 4513 1909 4333 
Q 1797 4153 1797 3750 
L 1797 3322 
L 2631 3322 
L 2631 2944 
L 1797 2944 
L 1797 378 
L 2438 378 
L 2438 0 
L 219 0 
L 219 378 
L 691 378 
L 691 2944 
L 197 2944 
L 197 3322 
L 691 3322 
L 691 3738 
Q 691 4291 1044 4577 
Q 1397 4863 2081 4863 
Q 2347 4863 2600 4833 
Q 2853 4803 3097 4744 
L 3097 4031 
z
" transform="scale(0.015625)"/>
     <path id="DejaVuSerif-Bold-6e" d="M 219 0 
L 219 378 
L 691 378 
L 691 2944 
L 219 2944 
L 219 3322 
L 1797 3322 
L 1797 2853 
Q 1997 3150 2253 3281 
Q 2509 3413 2900 3413 
Q 3459 3413 3745 3083 
Q 4031 2753 4031 2113 
L 4031 378 
L 4506 378 
L 4506 0 
L 2522 0 
L 2522 378 
L 2925 378 
L 2925 2144 
Q 2925 2566 2817 2730 
Q 2709 2894 2444 2894 
Q 2109 2894 1953 2648 
Q 1797 2403 1797 1869 
L 1797 378 
L 2203 378 
L 2203 0 
L 219 0 
z
" transform="scale(0.015625)"/>
     <path id="DejaVuSerif-Bold-63" d="M 3609 1038 
Q 3491 469 3123 189 
Q 2756 -91 2125 -91 
Q 1238 -91 750 368 
Q 263 828 263 1663 
Q 263 2488 744 2950 
Q 1225 3413 2081 3413 
Q 2428 3413 2781 3347 
Q 3134 3281 3500 3150 
L 3500 2228 
L 3150 2228 
Q 3100 2650 2903 2854 
Q 2706 3059 2350 3059 
Q 1888 3059 1692 2746 
Q 1497 2434 1497 1663 
Q 1497 909 1687 586 
Q 1878 263 2309 263 
Q 2644 263 2845 463 
Q 3047 663 3091 1038 
L 3609 1038 
z
" transform="scale(0.015625)"/>
     <path id="DejaVuSerif-Bold-41" d="M -50 0 
L -50 378 
L 331 378 
L 2088 4666 
L 2834 4666 
L 4594 378 
L 5038 378 
L 5038 0 
L 2853 0 
L 2853 378 
L 3309 378 
L 2925 1331 
L 1172 1331 
L 781 378 
L 1338 378 
L 1338 0 
L -50 0 
z
M 1325 1709 
L 2772 1709 
L 2053 3494 
L 1325 1709 
z
" transform="scale(0.015625)"/>
     <path id="DejaVuSerif-Bold-73" d="M 300 97 
L 300 1025 
L 653 1025 
Q 697 653 931 458 
Q 1166 263 1569 263 
Q 1906 263 2086 380 
Q 2266 497 2266 716 
Q 2266 916 2152 1025 
Q 2038 1134 1709 1216 
L 1253 1331 
Q 738 1459 506 1698 
Q 275 1938 275 2344 
Q 275 2884 650 3148 
Q 1025 3413 1806 3413 
Q 2100 3413 2433 3364 
Q 2766 3316 3169 3213 
L 3169 2375 
L 2816 2375 
Q 2788 2716 2573 2887 
Q 2359 3059 1959 3059 
Q 1622 3059 1448 2951 
Q 1275 2844 1275 2638 
Q 1275 2469 1375 2372 
Q 1475 2275 1734 2209 
L 2188 2094 
Q 2841 1928 3091 1684 
Q 3341 1441 3341 1006 
Q 3341 444 2939 176 
Q 2538 -91 1691 -91 
Q 1381 -91 1034 -44 
Q 688 3 300 97 
z
" transform="scale(0.015625)"/>
     <path id="DejaVuSerif-Bold-4d" d="M 269 0 
L 269 378 
L 863 378 
L 863 4288 
L 269 4288 
L 269 4666 
L 2194 4666 
L 3525 1672 
L 4863 4666 
L 6784 4666 
L 6784 4288 
L 6188 4288 
L 6188 378 
L 6784 378 
L 6784 0 
L 4384 0 
L 4384 378 
L 4978 378 
L 4978 3938 
L 3531 684 
L 2741 684 
L 1300 3938 
L 1300 378 
L 1894 378 
L 1894 0 
L 269 0 
z
" transform="scale(0.015625)"/>
    </defs>
    <use xlink:href="#DejaVuSerif-Bold-43"/>
    <use xlink:href="#DejaVuSerif-Bold-6f" x="79.589844"/>
    <use xlink:href="#DejaVuSerif-Bold-6d" x="146.289062"/>
    <use xlink:href="#DejaVuSerif-Bold-70" x="252.099609"/>
    <use xlink:href="#DejaVuSerif-Bold-61" x="322.021484"/>
    <use xlink:href="#DejaVuSerif-Bold-72" x="386.816406"/>
    <use xlink:href="#DejaVuSerif-Bold-61" x="439.501953"/>
    <use xlink:href="#DejaVuSerif-Bold-74" x="504.296875"/>
    <use xlink:href="#DejaVuSerif-Bold-69" x="550.488281"/>
    <use xlink:href="#DejaVuSerif-Bold-76" x="588.476562"/>
    <use xlink:href="#DejaVuSerif-Bold-65" x="646.582031"/>
    <use xlink:href="#DejaVuSerif-Bold-20" x="710.205078"/>
    <use xlink:href="#DejaVuSerif-Bold-50" x="745.019531"/>
    <use xlink:href="#DejaVuSerif-Bold-65" x="817.589844"/>
    <use xlink:href="#DejaVuSerif-Bold-72" x="881.212891"/>
    <use xlink:href="#DejaVuSerif-Bold-66" x="933.898438"/>
    <use xlink:href="#DejaVuSerif-Bold-6f" x="976.916016"/>
    <use xlink:href="#DejaVuSerif-Bold-72" x="1043.615234"/>
    <use xlink:href="#DejaVuSerif-Bold-6d" x="1096.300781"/>
    <use xlink:href="#DejaVuSerif-Bold-61" x="1202.111328"/>
    <use xlink:href="#DejaVuSerif-Bold-6e" x="1266.90625"/>
    <use xlink:href="#DejaVuSerif-Bold-63" x="1339.611328"/>
    <use xlink:href="#DejaVuSerif-Bold-65" x="1400.5"/>
    <use xlink:href="#DejaVuSerif-Bold-20" x="1464.123047"/>
    <use xlink:href="#DejaVuSerif-Bold-41" x="1498.9375"/>
    <use xlink:href="#DejaVuSerif-Bold-63" x="1576.525391"/>
    <use xlink:href="#DejaVuSerif-Bold-72" x="1637.414062"/>
    <use xlink:href="#DejaVuSerif-Bold-6f" x="1690.099609"/>
    <use xlink:href="#DejaVuSerif-Bold-73" x="1756.798828"/>
    <use xlink:href="#DejaVuSerif-Bold-73" x="1813.097656"/>
    <use xlink:href="#DejaVuSerif-Bold-20" x="1869.396484"/>
    <use xlink:href="#DejaVuSerif-Bold-4d" x="1904.210938"/>
    <use xlink:href="#DejaVuSerif-Bold-65" x="2014.904297"/>
    <use xlink:href="#DejaVuSerif-Bold-74" x="2078.527344"/>
    <use xlink:href="#DejaVuSerif-Bold-72" x="2124.71875"/>
    <use xlink:href="#DejaVuSerif-Bold-69" x="2177.404297"/>
    <use xlink:href="#DejaVuSerif-Bold-63" x="2215.392578"/>
    <use xlink:href="#DejaVuSerif-Bold-73" x="2276.28125"/>
   </g>
  </g>
 </g>
 <defs>
  <clipPath id="p79f03afa39">
   <path d="M 505.927187 251.64 
C 505.927187 226.158901 500.907967 200.925573 491.156772 177.384107 
C 481.405577 153.842641 467.112045 132.450858 449.094187 114.433 
C 431.076329 96.415142 409.684547 82.12161 386.143081 72.370416 
C 362.601615 62.619221 337.368287 57.6 311.887187 57.6 
C 286.406088 57.6 261.17276 62.619221 237.631294 72.370416 
C 214.089828 82.12161 192.698046 96.415142 174.680188 114.433 
C 156.66233 132.450858 142.368798 153.842641 132.617603 177.384107 
C 122.866408 200.925573 117.847187 226.158901 117.847187 251.64 
C 117.847187 277.121099 122.866408 302.354427 132.617603 325.895893 
C 142.368798 349.437359 156.66233 370.829142 174.680188 388.847 
C 192.698046 406.864858 214.089828 421.15839 237.631294 430.909584 
C 261.17276 440.660779 286.406088 445.68 311.887187 445.68 
C 337.368287 445.68 362.601615 440.660779 386.143081 430.909584 
C 409.684547 421.15839 431.076329 406.864858 449.094187 388.847 
C 467.112045 370.829142 481.405577 349.437359 491.156772 325.895893 
C 500.907967 302.354427 505.927187 277.121099 505.927187 251.64 
M 311.887187 251.64 
C 311.887187 251.64 311.887187 251.64 311.887187 251.64 
C 311.887187 251.64 311.887187 251.64 311.887187 251.64 
C 311.887187 251.64 311.887187 251.64 311.887187 251.64 
C 311.887187 251.64 311.887187 251.64 311.887187 251.64 
C 311.887187 251.64 311.887187 251.64 311.887187 251.64 
C 311.887187 251.64 311.887187 251.64 311.887187 251.64 
C 311.887187 251.64 311.887187 251.64 311.887187 251.64 
C 311.887187 251.64 311.887187 251.64 311.887187 251.64 
C 311.887187 251.64 311.887187 251.64 311.887187 251.64 
C 311.887187 251.64 311.887187 251.64 311.887187 251.64 
C 311.887187 251.64 311.887187 251.64 311.887187 251.64 
C 311.887187 251.64 311.887187 251.64 311.887187 251.64 
C 311.887187 251.64 311.887187 251.64 311.887187 251.64 
C 311.887187 251.64 311.887187 251.64 311.887187 251.64 
C 311.887187 251.64 311.887187 251.64 311.887187 251.64 
C 311.887187 251.64 311.887187 251.64 311.887187 251.64 
z
"/>
  </clipPath>
 </defs>
</svg>
