<?xml version="1.0" encoding="utf-8" standalone="no"?>
<!DOCTYPE svg PUBLIC "-//W3C//DTD SVG 1.1//EN"
  "http://www.w3.org/Graphics/SVG/1.1/DTD/svg11.dtd">
<svg xmlns:xlink="http://www.w3.org/1999/xlink" width="728.083125pt" height="450.726719pt" viewBox="0 0 728.083125 450.726719" xmlns="http://www.w3.org/2000/svg" version="1.1">
 <metadata>
  <rdf:RDF xmlns:dc="http://purl.org/dc/elements/1.1/" xmlns:cc="http://creativecommons.org/ns#" xmlns:rdf="http://www.w3.org/1999/02/22-rdf-syntax-ns#">
   <cc:Work>
    <dc:type rdf:resource="http://purl.org/dc/dcmitype/StillImage"/>
    <dc:date>2025-05-05T19:30:02.780197</dc:date>
    <dc:format>image/svg+xml</dc:format>
    <dc:creator>
     <cc:Agent>
      <dc:title>MSAGAT-Net</dc:title>
     </cc:Agent>
    </dc:creator>
   </cc:Work>
  </rdf:RDF>
 </metadata>
 <defs>
  <style type="text/css">*{stroke-linejoin: round; stroke-linecap: butt}</style>
 </defs>
 <g id="figure_1">
  <g id="patch_1">
   <path d="M 0 450.726719 
L 728.083125 450.726719 
L 728.083125 0 
L 0 0 
z
" style="fill: #ffffff"/>
  </g>
  <g id="axes_1">
   <g id="patch_2">
    <path d="M 51.283125 413.638281 
L 720.883125 413.638281 
L 720.883125 25.558281 
L 51.283125 25.558281 
z
" style="fill: #ffffff"/>
   </g>
   <g id="matplotlib.axis_1">
    <g id="xtick_1">
     <g id="line2d_1">
      <defs>
       <path id="m541c649503" d="M 0 0 
L 0 4 
" style="stroke: #262626"/>
      </defs>
      <g>
       <use xlink:href="#m541c649503" x="81.719489" y="413.638281" style="fill: #262626; stroke: #262626"/>
      </g>
     </g>
     <g id="text_1">
      <!-- 3 -->
      <g style="fill: #262626" transform="translate(78.856364 427.976875) scale(0.09 -0.09)">
       <defs>
        <path id="DejaVuSerif-33" d="M 622 4469 
Q 988 4606 1323 4678 
Q 1659 4750 1953 4750 
Q 2638 4750 3022 4454 
Q 3406 4159 3406 3634 
Q 3406 3213 3140 2930 
Q 2875 2647 2388 2547 
Q 2963 2466 3280 2130 
Q 3597 1794 3597 1259 
Q 3597 606 3158 257 
Q 2719 -91 1894 -91 
Q 1528 -91 1179 -12 
Q 831 66 488 225 
L 488 1131 
L 838 1131 
Q 869 681 1141 450 
Q 1413 219 1906 219 
Q 2384 219 2661 495 
Q 2938 772 2938 1253 
Q 2938 1803 2653 2086 
Q 2369 2369 1819 2369 
L 1522 2369 
L 1522 2688 
L 1678 2688 
Q 2225 2688 2498 2914 
Q 2772 3141 2772 3597 
Q 2772 4006 2547 4223 
Q 2322 4441 1900 4441 
Q 1478 4441 1245 4241 
Q 1013 4041 972 3647 
L 622 3647 
L 622 4469 
z
" transform="scale(0.015625)"/>
       </defs>
       <use xlink:href="#DejaVuSerif-33"/>
      </g>
     </g>
    </g>
    <g id="xtick_2">
     <g id="line2d_2">
      <g>
       <use xlink:href="#m541c649503" x="183.174034" y="413.638281" style="fill: #262626; stroke: #262626"/>
      </g>
     </g>
     <g id="text_2">
      <!-- 5 -->
      <g style="fill: #262626" transform="translate(180.310909 427.976875) scale(0.09 -0.09)">
       <defs>
        <path id="DejaVuSerif-35" d="M 3219 4666 
L 3219 4153 
L 1081 4153 
L 1081 2816 
Q 1244 2928 1461 2984 
Q 1678 3041 1947 3041 
Q 2703 3041 3140 2622 
Q 3578 2203 3578 1478 
Q 3578 738 3136 323 
Q 2694 -91 1894 -91 
Q 1572 -91 1234 -12 
Q 897 66 544 225 
L 544 1131 
L 897 1131 
Q 925 688 1179 453 
Q 1434 219 1894 219 
Q 2388 219 2653 544 
Q 2919 869 2919 1478 
Q 2919 2084 2655 2407 
Q 2391 2731 1894 2731 
Q 1613 2731 1398 2631 
Q 1184 2531 1019 2322 
L 750 2322 
L 750 4666 
L 3219 4666 
z
" transform="scale(0.015625)"/>
       </defs>
       <use xlink:href="#DejaVuSerif-35"/>
      </g>
     </g>
    </g>
    <g id="xtick_3">
     <g id="line2d_3">
      <g>
       <use xlink:href="#m541c649503" x="284.62858" y="413.638281" style="fill: #262626; stroke: #262626"/>
      </g>
     </g>
     <g id="text_3">
      <!-- 7 -->
      <g style="fill: #262626" transform="translate(281.765455 427.976875) scale(0.09 -0.09)">
       <defs>
        <path id="DejaVuSerif-37" d="M 3609 4347 
L 1784 0 
L 1319 0 
L 3059 4153 
L 903 4153 
L 903 3578 
L 538 3578 
L 538 4666 
L 3609 4666 
L 3609 4347 
z
" transform="scale(0.015625)"/>
       </defs>
       <use xlink:href="#DejaVuSerif-37"/>
      </g>
     </g>
    </g>
    <g id="xtick_4">
     <g id="line2d_4">
      <g>
       <use xlink:href="#m541c649503" x="436.810398" y="413.638281" style="fill: #262626; stroke: #262626"/>
      </g>
     </g>
     <g id="text_4">
      <!-- 10 -->
      <g style="fill: #262626" transform="translate(431.084148 427.976875) scale(0.09 -0.09)">
       <defs>
        <path id="DejaVuSerif-31" d="M 909 0 
L 909 331 
L 1722 331 
L 1722 4213 
L 781 3603 
L 781 4013 
L 1919 4750 
L 2350 4750 
L 2350 331 
L 3163 331 
L 3163 0 
L 909 0 
z
" transform="scale(0.015625)"/>
        <path id="DejaVuSerif-30" d="M 2034 219 
Q 2513 219 2750 744 
Q 2988 1269 2988 2328 
Q 2988 3391 2750 3916 
Q 2513 4441 2034 4441 
Q 1556 4441 1318 3916 
Q 1081 3391 1081 2328 
Q 1081 1269 1318 744 
Q 1556 219 2034 219 
z
M 2034 -91 
Q 1275 -91 848 546 
Q 422 1184 422 2328 
Q 422 3475 848 4112 
Q 1275 4750 2034 4750 
Q 2797 4750 3222 4112 
Q 3647 3475 3647 2328 
Q 3647 1184 3222 546 
Q 2797 -91 2034 -91 
z
" transform="scale(0.015625)"/>
       </defs>
       <use xlink:href="#DejaVuSerif-31"/>
       <use xlink:href="#DejaVuSerif-30" x="63.623047"/>
      </g>
     </g>
    </g>
    <g id="xtick_5">
     <g id="line2d_5">
      <g>
       <use xlink:href="#m541c649503" x="639.719489" y="413.638281" style="fill: #262626; stroke: #262626"/>
      </g>
     </g>
     <g id="text_5">
      <!-- 14 -->
      <g style="fill: #262626" transform="translate(633.993239 427.976875) scale(0.09 -0.09)">
       <defs>
        <path id="DejaVuSerif-34" d="M 2234 1581 
L 2234 4063 
L 641 1581 
L 2234 1581 
z
M 3609 0 
L 1484 0 
L 1484 331 
L 2234 331 
L 2234 1247 
L 197 1247 
L 197 1588 
L 2241 4750 
L 2859 4750 
L 2859 1581 
L 3750 1581 
L 3750 1247 
L 2859 1247 
L 2859 331 
L 3609 331 
L 3609 0 
z
" transform="scale(0.015625)"/>
       </defs>
       <use xlink:href="#DejaVuSerif-31"/>
       <use xlink:href="#DejaVuSerif-34" x="63.623047"/>
      </g>
     </g>
    </g>
    <g id="xtick_6">
     <g id="line2d_6">
      <g>
       <use xlink:href="#m541c649503" x="690.446761" y="413.638281" style="fill: #262626; stroke: #262626"/>
      </g>
     </g>
     <g id="text_6">
      <!-- 15 -->
      <g style="fill: #262626" transform="translate(684.720511 427.976875) scale(0.09 -0.09)">
       <use xlink:href="#DejaVuSerif-31"/>
       <use xlink:href="#DejaVuSerif-35" x="63.623047"/>
      </g>
     </g>
    </g>
    <g id="text_7">
     <!-- Prediction Horizon -->
     <g style="fill: #262626" transform="translate(338.1175 441.447031) scale(0.1 -0.1)">
      <defs>
       <path id="DejaVuSerif-50" d="M 1581 2375 
L 2406 2375 
Q 2872 2375 3115 2626 
Q 3359 2878 3359 3353 
Q 3359 3831 3115 4081 
Q 2872 4331 2406 4331 
L 1581 4331 
L 1581 2375 
z
M 353 0 
L 353 331 
L 947 331 
L 947 4331 
L 353 4331 
L 353 4666 
L 2559 4666 
Q 3259 4666 3668 4311 
Q 4078 3956 4078 3353 
Q 4078 2753 3668 2397 
Q 3259 2041 2559 2041 
L 1581 2041 
L 1581 331 
L 2303 331 
L 2303 0 
L 353 0 
z
" transform="scale(0.015625)"/>
       <path id="DejaVuSerif-72" d="M 3059 3328 
L 3059 2497 
L 2728 2497 
Q 2713 2744 2591 2866 
Q 2469 2988 2234 2988 
Q 1809 2988 1582 2694 
Q 1356 2400 1356 1850 
L 1356 331 
L 2022 331 
L 2022 0 
L 263 0 
L 263 331 
L 781 331 
L 781 2994 
L 231 2994 
L 231 3322 
L 1356 3322 
L 1356 2731 
Q 1525 3078 1790 3245 
Q 2056 3413 2438 3413 
Q 2578 3413 2733 3391 
Q 2888 3369 3059 3328 
z
" transform="scale(0.015625)"/>
       <path id="DejaVuSerif-65" d="M 3469 1600 
L 991 1600 
L 991 1575 
Q 991 903 1244 561 
Q 1497 219 1991 219 
Q 2369 219 2611 417 
Q 2853 616 2950 1006 
L 3413 1006 
Q 3275 459 2904 184 
Q 2534 -91 1931 -91 
Q 1203 -91 761 389 
Q 319 869 319 1663 
Q 319 2450 753 2931 
Q 1188 3413 1894 3413 
Q 2647 3413 3050 2948 
Q 3453 2484 3469 1600 
z
M 2791 1931 
Q 2772 2513 2545 2808 
Q 2319 3103 1894 3103 
Q 1497 3103 1269 2806 
Q 1041 2509 991 1931 
L 2791 1931 
z
" transform="scale(0.015625)"/>
       <path id="DejaVuSerif-64" d="M 3359 331 
L 3909 331 
L 3909 0 
L 2784 0 
L 2784 519 
Q 2616 206 2355 57 
Q 2094 -91 1709 -91 
Q 1097 -91 708 395 
Q 319 881 319 1663 
Q 319 2444 706 2928 
Q 1094 3413 1709 3413 
Q 2094 3413 2355 3264 
Q 2616 3116 2784 2803 
L 2784 4531 
L 2241 4531 
L 2241 4863 
L 3359 4863 
L 3359 331 
z
M 2784 1497 
L 2784 1825 
Q 2784 2422 2554 2737 
Q 2325 3053 1888 3053 
Q 1444 3053 1217 2703 
Q 991 2353 991 1663 
Q 991 975 1217 622 
Q 1444 269 1888 269 
Q 2325 269 2554 583 
Q 2784 897 2784 1497 
z
" transform="scale(0.015625)"/>
       <path id="DejaVuSerif-69" d="M 622 4353 
Q 622 4497 726 4603 
Q 831 4709 978 4709 
Q 1122 4709 1226 4603 
Q 1331 4497 1331 4353 
Q 1331 4206 1228 4103 
Q 1125 4000 978 4000 
Q 831 4000 726 4103 
Q 622 4206 622 4353 
z
M 1356 331 
L 1900 331 
L 1900 0 
L 231 0 
L 231 331 
L 781 331 
L 781 2988 
L 231 2988 
L 231 3322 
L 1356 3322 
L 1356 331 
z
" transform="scale(0.015625)"/>
       <path id="DejaVuSerif-63" d="M 3291 997 
Q 3169 466 2822 187 
Q 2475 -91 1925 -91 
Q 1200 -91 759 389 
Q 319 869 319 1663 
Q 319 2459 759 2936 
Q 1200 3413 1925 3413 
Q 2241 3413 2553 3339 
Q 2866 3266 3181 3116 
L 3181 2266 
L 2847 2266 
Q 2781 2703 2561 2903 
Q 2341 3103 1931 3103 
Q 1466 3103 1228 2742 
Q 991 2381 991 1663 
Q 991 944 1227 581 
Q 1463 219 1931 219 
Q 2303 219 2525 412 
Q 2747 606 2828 997 
L 3291 997 
z
" transform="scale(0.015625)"/>
       <path id="DejaVuSerif-74" d="M 691 2988 
L 184 2988 
L 184 3322 
L 691 3322 
L 691 4353 
L 1269 4353 
L 1269 3322 
L 2350 3322 
L 2350 2988 
L 1269 2988 
L 1269 878 
Q 1269 456 1350 337 
Q 1431 219 1650 219 
Q 1875 219 1978 351 
Q 2081 484 2088 781 
L 2522 781 
Q 2497 328 2275 118 
Q 2053 -91 1600 -91 
Q 1103 -91 897 129 
Q 691 350 691 878 
L 691 2988 
z
" transform="scale(0.015625)"/>
       <path id="DejaVuSerif-6f" d="M 1925 219 
Q 2388 219 2623 584 
Q 2859 950 2859 1663 
Q 2859 2375 2623 2739 
Q 2388 3103 1925 3103 
Q 1463 3103 1227 2739 
Q 991 2375 991 1663 
Q 991 950 1228 584 
Q 1466 219 1925 219 
z
M 1925 -91 
Q 1200 -91 759 389 
Q 319 869 319 1663 
Q 319 2456 758 2934 
Q 1197 3413 1925 3413 
Q 2653 3413 3092 2934 
Q 3531 2456 3531 1663 
Q 3531 869 3092 389 
Q 2653 -91 1925 -91 
z
" transform="scale(0.015625)"/>
       <path id="DejaVuSerif-6e" d="M 263 0 
L 263 331 
L 781 331 
L 781 2988 
L 231 2988 
L 231 3322 
L 1356 3322 
L 1356 2731 
Q 1516 3069 1770 3241 
Q 2025 3413 2363 3413 
Q 2913 3413 3172 3097 
Q 3431 2781 3431 2113 
L 3431 331 
L 3944 331 
L 3944 0 
L 2356 0 
L 2356 331 
L 2853 331 
L 2853 1931 
Q 2853 2541 2703 2767 
Q 2553 2994 2175 2994 
Q 1775 2994 1565 2701 
Q 1356 2409 1356 1850 
L 1356 331 
L 1856 331 
L 1856 0 
L 263 0 
z
" transform="scale(0.015625)"/>
       <path id="DejaVuSerif-20" transform="scale(0.015625)"/>
       <path id="DejaVuSerif-48" d="M 353 0 
L 353 331 
L 947 331 
L 947 4331 
L 353 4331 
L 353 4666 
L 2175 4666 
L 2175 4331 
L 1581 4331 
L 1581 2719 
L 4000 2719 
L 4000 4331 
L 3406 4331 
L 3406 4666 
L 5228 4666 
L 5228 4331 
L 4634 4331 
L 4634 331 
L 5228 331 
L 5228 0 
L 3406 0 
L 3406 331 
L 4000 331 
L 4000 2338 
L 1581 2338 
L 1581 331 
L 2175 331 
L 2175 0 
L 353 0 
z
" transform="scale(0.015625)"/>
       <path id="DejaVuSerif-7a" d="M 256 0 
L 256 269 
L 2338 2988 
L 691 2988 
L 691 2413 
L 359 2413 
L 359 3322 
L 3078 3322 
L 3078 3053 
L 997 331 
L 2803 331 
L 2803 934 
L 3138 934 
L 3138 0 
L 256 0 
z
" transform="scale(0.015625)"/>
      </defs>
      <use xlink:href="#DejaVuSerif-50"/>
      <use xlink:href="#DejaVuSerif-72" x="67.285156"/>
      <use xlink:href="#DejaVuSerif-65" x="115.087891"/>
      <use xlink:href="#DejaVuSerif-64" x="174.267578"/>
      <use xlink:href="#DejaVuSerif-69" x="238.28125"/>
      <use xlink:href="#DejaVuSerif-63" x="270.263672"/>
      <use xlink:href="#DejaVuSerif-74" x="326.269531"/>
      <use xlink:href="#DejaVuSerif-69" x="366.455078"/>
      <use xlink:href="#DejaVuSerif-6f" x="398.4375"/>
      <use xlink:href="#DejaVuSerif-6e" x="458.642578"/>
      <use xlink:href="#DejaVuSerif-20" x="523.046875"/>
      <use xlink:href="#DejaVuSerif-48" x="554.833984"/>
      <use xlink:href="#DejaVuSerif-6f" x="642.041016"/>
      <use xlink:href="#DejaVuSerif-72" x="702.246094"/>
      <use xlink:href="#DejaVuSerif-69" x="750.048828"/>
      <use xlink:href="#DejaVuSerif-7a" x="782.03125"/>
      <use xlink:href="#DejaVuSerif-6f" x="834.716797"/>
      <use xlink:href="#DejaVuSerif-6e" x="894.921875"/>
     </g>
    </g>
   </g>
   <g id="matplotlib.axis_2">
    <g id="ytick_1">
     <g id="line2d_7">
      <defs>
       <path id="m8e821b8ebb" d="M 0 0 
L -4 0 
" style="stroke: #262626"/>
      </defs>
      <g>
       <use xlink:href="#m8e821b8ebb" x="51.283125" y="413.638281" style="fill: #262626; stroke: #262626"/>
      </g>
     </g>
     <g id="text_8">
      <!-- 0 -->
      <g style="fill: #262626" transform="translate(38.056875 417.057578) scale(0.09 -0.09)">
       <use xlink:href="#DejaVuSerif-30"/>
      </g>
     </g>
    </g>
    <g id="ytick_2">
     <g id="line2d_8">
      <g>
       <use xlink:href="#m8e821b8ebb" x="51.283125" y="363.919763" style="fill: #262626; stroke: #262626"/>
      </g>
     </g>
     <g id="text_9">
      <!-- 200 -->
      <g style="fill: #262626" transform="translate(26.604375 367.33906) scale(0.09 -0.09)">
       <defs>
        <path id="DejaVuSerif-32" d="M 819 3553 
L 469 3553 
L 469 4384 
Q 803 4563 1142 4656 
Q 1481 4750 1806 4750 
Q 2534 4750 2956 4397 
Q 3378 4044 3378 3438 
Q 3378 2753 2422 1800 
Q 2347 1728 2309 1691 
L 1131 513 
L 3078 513 
L 3078 1088 
L 3444 1088 
L 3444 0 
L 434 0 
L 434 341 
L 1850 1753 
Q 2319 2222 2519 2614 
Q 2719 3006 2719 3438 
Q 2719 3909 2473 4175 
Q 2228 4441 1797 4441 
Q 1350 4441 1106 4219 
Q 863 3997 819 3553 
z
" transform="scale(0.015625)"/>
       </defs>
       <use xlink:href="#DejaVuSerif-32"/>
       <use xlink:href="#DejaVuSerif-30" x="63.623047"/>
       <use xlink:href="#DejaVuSerif-30" x="127.246094"/>
      </g>
     </g>
    </g>
    <g id="ytick_3">
     <g id="line2d_9">
      <g>
       <use xlink:href="#m8e821b8ebb" x="51.283125" y="314.201245" style="fill: #262626; stroke: #262626"/>
      </g>
     </g>
     <g id="text_10">
      <!-- 400 -->
      <g style="fill: #262626" transform="translate(26.604375 317.620542) scale(0.09 -0.09)">
       <use xlink:href="#DejaVuSerif-34"/>
       <use xlink:href="#DejaVuSerif-30" x="63.623047"/>
       <use xlink:href="#DejaVuSerif-30" x="127.246094"/>
      </g>
     </g>
    </g>
    <g id="ytick_4">
     <g id="line2d_10">
      <g>
       <use xlink:href="#m8e821b8ebb" x="51.283125" y="264.482727" style="fill: #262626; stroke: #262626"/>
      </g>
     </g>
     <g id="text_11">
      <!-- 600 -->
      <g style="fill: #262626" transform="translate(26.604375 267.902024) scale(0.09 -0.09)">
       <defs>
        <path id="DejaVuSerif-36" d="M 2094 219 
Q 2534 219 2771 542 
Q 3009 866 3009 1472 
Q 3009 2078 2771 2401 
Q 2534 2725 2094 2725 
Q 1647 2725 1412 2412 
Q 1178 2100 1178 1509 
Q 1178 888 1415 553 
Q 1653 219 2094 219 
z
M 1075 2569 
Q 1288 2803 1556 2918 
Q 1825 3034 2163 3034 
Q 2859 3034 3264 2615 
Q 3669 2197 3669 1472 
Q 3669 763 3233 336 
Q 2797 -91 2069 -91 
Q 1278 -91 853 498 
Q 428 1088 428 2181 
Q 428 3406 931 4078 
Q 1434 4750 2350 4750 
Q 2597 4750 2869 4703 
Q 3141 4656 3425 4563 
L 3425 3794 
L 3072 3794 
Q 3034 4109 2831 4275 
Q 2628 4441 2284 4441 
Q 1678 4441 1381 3981 
Q 1084 3522 1075 2569 
z
" transform="scale(0.015625)"/>
       </defs>
       <use xlink:href="#DejaVuSerif-36"/>
       <use xlink:href="#DejaVuSerif-30" x="63.623047"/>
       <use xlink:href="#DejaVuSerif-30" x="127.246094"/>
      </g>
     </g>
    </g>
    <g id="ytick_5">
     <g id="line2d_11">
      <g>
       <use xlink:href="#m8e821b8ebb" x="51.283125" y="214.764209" style="fill: #262626; stroke: #262626"/>
      </g>
     </g>
     <g id="text_12">
      <!-- 800 -->
      <g style="fill: #262626" transform="translate(26.604375 218.183506) scale(0.09 -0.09)">
       <defs>
        <path id="DejaVuSerif-38" d="M 2981 1275 
Q 2981 1775 2732 2051 
Q 2484 2328 2034 2328 
Q 1584 2328 1336 2051 
Q 1088 1775 1088 1275 
Q 1088 772 1336 495 
Q 1584 219 2034 219 
Q 2484 219 2732 495 
Q 2981 772 2981 1275 
z
M 2853 3541 
Q 2853 3966 2637 4203 
Q 2422 4441 2034 4441 
Q 1650 4441 1433 4203 
Q 1216 3966 1216 3541 
Q 1216 3113 1433 2875 
Q 1650 2638 2034 2638 
Q 2422 2638 2637 2875 
Q 2853 3113 2853 3541 
z
M 2516 2484 
Q 3047 2413 3344 2092 
Q 3641 1772 3641 1275 
Q 3641 619 3225 264 
Q 2809 -91 2034 -91 
Q 1263 -91 845 264 
Q 428 619 428 1275 
Q 428 1772 725 2092 
Q 1022 2413 1556 2484 
Q 1084 2569 832 2842 
Q 581 3116 581 3541 
Q 581 4103 968 4426 
Q 1356 4750 2034 4750 
Q 2713 4750 3100 4426 
Q 3488 4103 3488 3541 
Q 3488 3116 3236 2842 
Q 2984 2569 2516 2484 
z
" transform="scale(0.015625)"/>
       </defs>
       <use xlink:href="#DejaVuSerif-38"/>
       <use xlink:href="#DejaVuSerif-30" x="63.623047"/>
       <use xlink:href="#DejaVuSerif-30" x="127.246094"/>
      </g>
     </g>
    </g>
    <g id="ytick_6">
     <g id="line2d_12">
      <g>
       <use xlink:href="#m8e821b8ebb" x="51.283125" y="165.045691" style="fill: #262626; stroke: #262626"/>
      </g>
     </g>
     <g id="text_13">
      <!-- 1000 -->
      <g style="fill: #262626" transform="translate(20.878125 168.464988) scale(0.09 -0.09)">
       <use xlink:href="#DejaVuSerif-31"/>
       <use xlink:href="#DejaVuSerif-30" x="63.623047"/>
       <use xlink:href="#DejaVuSerif-30" x="127.246094"/>
       <use xlink:href="#DejaVuSerif-30" x="190.869141"/>
      </g>
     </g>
    </g>
    <g id="ytick_7">
     <g id="line2d_13">
      <g>
       <use xlink:href="#m8e821b8ebb" x="51.283125" y="115.327173" style="fill: #262626; stroke: #262626"/>
      </g>
     </g>
     <g id="text_14">
      <!-- 1200 -->
      <g style="fill: #262626" transform="translate(20.878125 118.74647) scale(0.09 -0.09)">
       <use xlink:href="#DejaVuSerif-31"/>
       <use xlink:href="#DejaVuSerif-32" x="63.623047"/>
       <use xlink:href="#DejaVuSerif-30" x="127.246094"/>
       <use xlink:href="#DejaVuSerif-30" x="190.869141"/>
      </g>
     </g>
    </g>
    <g id="ytick_8">
     <g id="line2d_14">
      <g>
       <use xlink:href="#m8e821b8ebb" x="51.283125" y="65.608655" style="fill: #262626; stroke: #262626"/>
      </g>
     </g>
     <g id="text_15">
      <!-- 1400 -->
      <g style="fill: #262626" transform="translate(20.878125 69.027952) scale(0.09 -0.09)">
       <use xlink:href="#DejaVuSerif-31"/>
       <use xlink:href="#DejaVuSerif-34" x="63.623047"/>
       <use xlink:href="#DejaVuSerif-30" x="127.246094"/>
       <use xlink:href="#DejaVuSerif-30" x="190.869141"/>
      </g>
     </g>
    </g>
    <g id="text_16">
     <!-- Root Mean Square Error -->
     <g style="fill: #262626" transform="translate(14.798438 282.446719) rotate(-90) scale(0.1 -0.1)">
      <defs>
       <path id="DejaVuSerif-52" d="M 3066 2316 
Q 3284 2256 3442 2114 
Q 3600 1972 3725 1716 
L 4403 331 
L 4972 331 
L 4972 0 
L 3872 0 
L 3144 1484 
Q 2934 1916 2759 2042 
Q 2584 2169 2278 2169 
L 1581 2169 
L 1581 331 
L 2241 331 
L 2241 0 
L 353 0 
L 353 331 
L 947 331 
L 947 4331 
L 353 4331 
L 353 4666 
L 2719 4666 
Q 3400 4666 3770 4341 
Q 4141 4016 4141 3419 
Q 4141 2938 3870 2661 
Q 3600 2384 3066 2316 
z
M 1581 2503 
L 2503 2503 
Q 2975 2503 3200 2726 
Q 3425 2950 3425 3419 
Q 3425 3888 3200 4109 
Q 2975 4331 2503 4331 
L 1581 4331 
L 1581 2503 
z
" transform="scale(0.015625)"/>
       <path id="DejaVuSerif-4d" d="M 353 0 
L 353 331 
L 947 331 
L 947 4331 
L 319 4331 
L 319 4666 
L 1678 4666 
L 3316 1344 
L 4953 4666 
L 6228 4666 
L 6228 4331 
L 5606 4331 
L 5606 331 
L 6203 331 
L 6203 0 
L 4378 0 
L 4378 331 
L 4972 331 
L 4972 3938 
L 3372 684 
L 2931 684 
L 1331 3938 
L 1331 331 
L 1925 331 
L 1925 0 
L 353 0 
z
" transform="scale(0.015625)"/>
       <path id="DejaVuSerif-61" d="M 2547 1044 
L 2547 1747 
L 1806 1747 
Q 1378 1747 1168 1562 
Q 959 1378 959 997 
Q 959 650 1171 447 
Q 1384 244 1747 244 
Q 2106 244 2326 466 
Q 2547 688 2547 1044 
z
M 3122 2075 
L 3122 331 
L 3634 331 
L 3634 0 
L 2547 0 
L 2547 359 
Q 2356 128 2106 18 
Q 1856 -91 1522 -91 
Q 969 -91 644 203 
Q 319 497 319 997 
Q 319 1513 691 1797 
Q 1063 2081 1741 2081 
L 2547 2081 
L 2547 2309 
Q 2547 2688 2317 2895 
Q 2088 3103 1672 3103 
Q 1328 3103 1125 2947 
Q 922 2791 872 2484 
L 575 2484 
L 575 3156 
Q 875 3284 1158 3348 
Q 1441 3413 1709 3413 
Q 2400 3413 2761 3070 
Q 3122 2728 3122 2075 
z
" transform="scale(0.015625)"/>
       <path id="DejaVuSerif-53" d="M 594 225 
L 594 1288 
L 953 1284 
Q 969 753 1261 498 
Q 1553 244 2150 244 
Q 2706 244 2998 464 
Q 3291 684 3291 1106 
Q 3291 1444 3114 1625 
Q 2938 1806 2369 1978 
L 1753 2163 
Q 1084 2366 811 2669 
Q 538 2972 538 3500 
Q 538 4094 959 4422 
Q 1381 4750 2144 4750 
Q 2469 4750 2856 4679 
Q 3244 4609 3681 4475 
L 3681 3481 
L 3328 3481 
Q 3275 3975 2998 4195 
Q 2722 4416 2156 4416 
Q 1663 4416 1405 4214 
Q 1147 4013 1147 3628 
Q 1147 3294 1340 3103 
Q 1534 2913 2163 2725 
L 2741 2553 
Q 3375 2363 3645 2067 
Q 3916 1772 3916 1275 
Q 3916 597 3481 253 
Q 3047 -91 2188 -91 
Q 1803 -91 1404 -12 
Q 1006 66 594 225 
z
" transform="scale(0.015625)"/>
       <path id="DejaVuSerif-71" d="M 3359 2988 
L 3359 -997 
L 3909 -997 
L 3909 -1331 
L 2241 -1331 
L 2241 -997 
L 2784 -997 
L 2784 519 
Q 2616 206 2355 57 
Q 2094 -91 1709 -91 
Q 1097 -91 708 395 
Q 319 881 319 1663 
Q 319 2444 706 2928 
Q 1094 3413 1709 3413 
Q 2094 3413 2355 3264 
Q 2616 3116 2784 2803 
L 2784 3322 
L 3909 3322 
L 3909 2988 
L 3359 2988 
z
M 2784 1825 
Q 2784 2422 2554 2737 
Q 2325 3053 1888 3053 
Q 1444 3053 1217 2703 
Q 991 2353 991 1663 
Q 991 975 1217 622 
Q 1444 269 1888 269 
Q 2325 269 2554 583 
Q 2784 897 2784 1497 
L 2784 1825 
z
" transform="scale(0.015625)"/>
       <path id="DejaVuSerif-75" d="M 2266 3322 
L 3341 3322 
L 3341 331 
L 3884 331 
L 3884 0 
L 2766 0 
L 2766 588 
Q 2606 256 2353 82 
Q 2100 -91 1766 -91 
Q 1213 -91 952 223 
Q 691 538 691 1209 
L 691 2988 
L 172 2988 
L 172 3322 
L 1269 3322 
L 1269 1388 
Q 1269 781 1417 556 
Q 1566 331 1947 331 
Q 2347 331 2556 625 
Q 2766 919 2766 1478 
L 2766 2988 
L 2266 2988 
L 2266 3322 
z
" transform="scale(0.015625)"/>
       <path id="DejaVuSerif-45" d="M 353 0 
L 353 331 
L 947 331 
L 947 4331 
L 353 4331 
L 353 4666 
L 4109 4666 
L 4109 3628 
L 3725 3628 
L 3725 4281 
L 1581 4281 
L 1581 2719 
L 3109 2719 
L 3109 3303 
L 3494 3303 
L 3494 1753 
L 3109 1753 
L 3109 2338 
L 1581 2338 
L 1581 384 
L 3775 384 
L 3775 1038 
L 4159 1038 
L 4159 0 
L 353 0 
z
" transform="scale(0.015625)"/>
      </defs>
      <use xlink:href="#DejaVuSerif-52"/>
      <use xlink:href="#DejaVuSerif-6f" x="75.292969"/>
      <use xlink:href="#DejaVuSerif-6f" x="135.498047"/>
      <use xlink:href="#DejaVuSerif-74" x="195.703125"/>
      <use xlink:href="#DejaVuSerif-20" x="235.888672"/>
      <use xlink:href="#DejaVuSerif-4d" x="267.675781"/>
      <use xlink:href="#DejaVuSerif-65" x="370.068359"/>
      <use xlink:href="#DejaVuSerif-61" x="429.248047"/>
      <use xlink:href="#DejaVuSerif-6e" x="488.867188"/>
      <use xlink:href="#DejaVuSerif-20" x="553.271484"/>
      <use xlink:href="#DejaVuSerif-53" x="585.058594"/>
      <use xlink:href="#DejaVuSerif-71" x="653.564453"/>
      <use xlink:href="#DejaVuSerif-75" x="717.578125"/>
      <use xlink:href="#DejaVuSerif-61" x="781.982422"/>
      <use xlink:href="#DejaVuSerif-72" x="841.601562"/>
      <use xlink:href="#DejaVuSerif-65" x="889.404297"/>
      <use xlink:href="#DejaVuSerif-20" x="948.583984"/>
      <use xlink:href="#DejaVuSerif-45" x="980.371094"/>
      <use xlink:href="#DejaVuSerif-72" x="1053.369141"/>
      <use xlink:href="#DejaVuSerif-72" x="1101.171875"/>
      <use xlink:href="#DejaVuSerif-6f" x="1148.974609"/>
      <use xlink:href="#DejaVuSerif-72" x="1209.179688"/>
     </g>
    </g>
   </g>
   <g id="line2d_15">
    <path d="M 81.719489 153.812834 
L 183.174034 143.300955 
L 436.810398 81.048488 
L 690.446761 80.967834 
" clip-path="url(#p1018bb5842)" style="fill: none; stroke: #1f77b4; stroke-opacity: 0.9; stroke-width: 2.5; stroke-linecap: round"/>
    <defs>
     <path id="m53c499e8dc" d="M 0 5 
C 1.326016 5 2.597899 4.473168 3.535534 3.535534 
C 4.473168 2.597899 5 1.326016 5 0 
C 5 -1.326016 4.473168 -2.597899 3.535534 -3.535534 
C 2.597899 -4.473168 1.326016 -5 0 -5 
C -1.326016 -5 -2.597899 -4.473168 -3.535534 -3.535534 
C -4.473168 -2.597899 -5 -1.326016 -5 0 
C -5 1.326016 -4.473168 2.597899 -3.535534 3.535534 
C -2.597899 4.473168 -1.326016 5 0 5 
z
" style="stroke: #000000; stroke-opacity: 0.9"/>
    </defs>
    <g clip-path="url(#p1018bb5842)">
     <use xlink:href="#m53c499e8dc" x="81.719489" y="153.812834" style="fill: #1f77b4; fill-opacity: 0.9; stroke: #000000; stroke-opacity: 0.9"/>
     <use xlink:href="#m53c499e8dc" x="183.174034" y="143.300955" style="fill: #1f77b4; fill-opacity: 0.9; stroke: #000000; stroke-opacity: 0.9"/>
     <use xlink:href="#m53c499e8dc" x="436.810398" y="81.048488" style="fill: #1f77b4; fill-opacity: 0.9; stroke: #000000; stroke-opacity: 0.9"/>
     <use xlink:href="#m53c499e8dc" x="690.446761" y="80.967834" style="fill: #1f77b4; fill-opacity: 0.9; stroke: #000000; stroke-opacity: 0.9"/>
    </g>
   </g>
   <g id="line2d_16">
    <path d="M 81.719489 252.023526 
L 183.174034 206.605768 
L 436.810398 165.276656 
L 690.446761 75.954368 
" clip-path="url(#p1018bb5842)" style="fill: none; stroke-dasharray: 9.25,4; stroke-dashoffset: 0; stroke: #ff7f0e; stroke-opacity: 0.9; stroke-width: 2.5"/>
    <defs>
     <path id="m8782f943d0" d="M -5 5 
L 5 5 
L 5 -5 
L -5 -5 
z
" style="stroke: #000000; stroke-opacity: 0.9; stroke-linejoin: miter"/>
    </defs>
    <g clip-path="url(#p1018bb5842)">
     <use xlink:href="#m8782f943d0" x="81.719489" y="252.023526" style="fill: #ff7f0e; fill-opacity: 0.9; stroke: #000000; stroke-opacity: 0.9; stroke-linejoin: miter"/>
     <use xlink:href="#m8782f943d0" x="183.174034" y="206.605768" style="fill: #ff7f0e; fill-opacity: 0.9; stroke: #000000; stroke-opacity: 0.9; stroke-linejoin: miter"/>
     <use xlink:href="#m8782f943d0" x="436.810398" y="165.276656" style="fill: #ff7f0e; fill-opacity: 0.9; stroke: #000000; stroke-opacity: 0.9; stroke-linejoin: miter"/>
     <use xlink:href="#m8782f943d0" x="690.446761" y="75.954368" style="fill: #ff7f0e; fill-opacity: 0.9; stroke: #000000; stroke-opacity: 0.9; stroke-linejoin: miter"/>
    </g>
   </g>
   <g id="line2d_17">
    <path d="M 81.719489 411.928276 
L 284.62858 407.331682 
L 639.719489 409.845216 
" clip-path="url(#p1018bb5842)" style="fill: none; stroke-dasharray: 16,4,2.5,4; stroke-dashoffset: 0; stroke: #2ca02c; stroke-opacity: 0.9; stroke-width: 2.5"/>
    <defs>
     <path id="m3fd25798b8" d="M -0 7.071068 
L 7.071068 0 
L 0 -7.071068 
L -7.071068 -0 
z
" style="stroke: #000000; stroke-opacity: 0.9; stroke-linejoin: miter"/>
    </defs>
    <g clip-path="url(#p1018bb5842)">
     <use xlink:href="#m3fd25798b8" x="81.719489" y="411.928276" style="fill: #2ca02c; fill-opacity: 0.9; stroke: #000000; stroke-opacity: 0.9; stroke-linejoin: miter"/>
     <use xlink:href="#m3fd25798b8" x="284.62858" y="407.331682" style="fill: #2ca02c; fill-opacity: 0.9; stroke: #000000; stroke-opacity: 0.9; stroke-linejoin: miter"/>
     <use xlink:href="#m3fd25798b8" x="639.719489" y="409.845216" style="fill: #2ca02c; fill-opacity: 0.9; stroke: #000000; stroke-opacity: 0.9; stroke-linejoin: miter"/>
    </g>
   </g>
   <g id="line2d_18">
    <path d="M 81.719489 387.227621 
L 284.62858 373.009309 
L 639.719489 364.893052 
" clip-path="url(#p1018bb5842)" style="fill: none; stroke-dasharray: 2.5,4.125; stroke-dashoffset: 0; stroke: #d62728; stroke-opacity: 0.9; stroke-width: 2.5"/>
    <defs>
     <path id="m5cf6c072d8" d="M 0 -5 
L -5 5 
L 5 5 
z
" style="stroke: #000000; stroke-opacity: 0.9; stroke-linejoin: miter"/>
    </defs>
    <g clip-path="url(#p1018bb5842)">
     <use xlink:href="#m5cf6c072d8" x="81.719489" y="387.227621" style="fill: #d62728; fill-opacity: 0.9; stroke: #000000; stroke-opacity: 0.9; stroke-linejoin: miter"/>
     <use xlink:href="#m5cf6c072d8" x="284.62858" y="373.009309" style="fill: #d62728; fill-opacity: 0.9; stroke: #000000; stroke-opacity: 0.9; stroke-linejoin: miter"/>
     <use xlink:href="#m5cf6c072d8" x="639.719489" y="364.893052" style="fill: #d62728; fill-opacity: 0.9; stroke: #000000; stroke-opacity: 0.9; stroke-linejoin: miter"/>
    </g>
   </g>
   <g id="patch_3">
    <path d="M 51.283125 413.638281 
L 51.283125 25.558281 
" style="fill: none; stroke: #262626; stroke-width: 0.8; stroke-linejoin: miter; stroke-linecap: square"/>
   </g>
   <g id="patch_4">
    <path d="M 51.283125 413.638281 
L 720.883125 413.638281 
" style="fill: none; stroke: #262626; stroke-width: 0.8; stroke-linejoin: miter; stroke-linecap: square"/>
   </g>
   <g id="text_17">
    <!-- Root Mean Square Error -->
    <g style="fill: #262626" transform="translate(316.949844 15.558281) scale(0.11 -0.11)">
     <use xlink:href="#DejaVuSerif-52"/>
     <use xlink:href="#DejaVuSerif-6f" x="75.292969"/>
     <use xlink:href="#DejaVuSerif-6f" x="135.498047"/>
     <use xlink:href="#DejaVuSerif-74" x="195.703125"/>
     <use xlink:href="#DejaVuSerif-20" x="235.888672"/>
     <use xlink:href="#DejaVuSerif-4d" x="267.675781"/>
     <use xlink:href="#DejaVuSerif-65" x="370.068359"/>
     <use xlink:href="#DejaVuSerif-61" x="429.248047"/>
     <use xlink:href="#DejaVuSerif-6e" x="488.867188"/>
     <use xlink:href="#DejaVuSerif-20" x="553.271484"/>
     <use xlink:href="#DejaVuSerif-53" x="585.058594"/>
     <use xlink:href="#DejaVuSerif-71" x="653.564453"/>
     <use xlink:href="#DejaVuSerif-75" x="717.578125"/>
     <use xlink:href="#DejaVuSerif-61" x="781.982422"/>
     <use xlink:href="#DejaVuSerif-72" x="841.601562"/>
     <use xlink:href="#DejaVuSerif-65" x="889.404297"/>
     <use xlink:href="#DejaVuSerif-20" x="948.583984"/>
     <use xlink:href="#DejaVuSerif-45" x="980.371094"/>
     <use xlink:href="#DejaVuSerif-72" x="1053.369141"/>
     <use xlink:href="#DejaVuSerif-72" x="1101.171875"/>
     <use xlink:href="#DejaVuSerif-6f" x="1148.974609"/>
     <use xlink:href="#DejaVuSerif-72" x="1209.179688"/>
    </g>
   </g>
   <g id="legend_1">
    <g id="patch_5">
     <path d="M 59.583125 88.100156 
L 173.253125 88.100156 
Q 175.053125 88.100156 175.053125 86.300156 
L 175.053125 33.858281 
Q 175.053125 32.058281 173.253125 32.058281 
L 59.583125 32.058281 
Q 57.783125 32.058281 57.783125 33.858281 
L 57.783125 86.300156 
Q 57.783125 88.100156 59.583125 88.100156 
z
" style="fill: #4c4c4c; opacity: 0.5; stroke: #4c4c4c; stroke-linejoin: miter"/>
    </g>
    <g id="patch_6">
     <path d="M 57.583125 86.100156 
L 171.253125 86.100156 
Q 173.053125 86.100156 173.053125 84.300156 
L 173.053125 31.858281 
Q 173.053125 30.058281 171.253125 30.058281 
L 57.583125 30.058281 
Q 55.783125 30.058281 55.783125 31.858281 
L 55.783125 84.300156 
Q 55.783125 86.100156 57.583125 86.100156 
z
" style="fill: #ffffff; opacity: 0.95; stroke: #808080; stroke-linejoin: miter"/>
    </g>
    <g id="line2d_19">
     <path d="M 59.383125 37.346875 
L 66.133125 37.346875 
L 72.883125 37.346875 
" style="fill: none; stroke: #1f77b4; stroke-opacity: 0.9; stroke-width: 2.5; stroke-linecap: round"/>
     <defs>
      <path id="ma05488ef2a" d="M 0 6 
C 1.591219 6 3.117479 5.367802 4.242641 4.242641 
C 5.367802 3.117479 6 1.591219 6 0 
C 6 -1.591219 5.367802 -3.117479 4.242641 -4.242641 
C 3.117479 -5.367802 1.591219 -6 0 -6 
C -1.591219 -6 -3.117479 -5.367802 -4.242641 -4.242641 
C -5.367802 -3.117479 -6 -1.591219 -6 0 
C -6 1.591219 -5.367802 3.117479 -4.242641 4.242641 
C -3.117479 5.367802 -1.591219 6 0 6 
z
" style="stroke: #000000; stroke-opacity: 0.9"/>
     </defs>
     <g>
      <use xlink:href="#ma05488ef2a" x="66.133125" y="37.346875" style="fill: #1f77b4; fill-opacity: 0.9; stroke: #000000; stroke-opacity: 0.9"/>
     </g>
    </g>
    <g id="text_18">
     <!-- JAPAN -->
     <g style="fill: #262626" transform="translate(80.083125 40.496875) scale(0.09 -0.09)">
      <defs>
       <path id="DejaVuSerif-4a" d="M -538 -1119 
L -538 -384 
L -181 -384 
Q -172 -694 -34 -845 
Q 103 -997 378 -997 
Q 750 -997 897 -762 
Q 1044 -528 1044 153 
L 1044 4331 
L 319 4331 
L 319 4666 
L 2272 4666 
L 2272 4331 
L 1678 4331 
L 1678 128 
Q 1678 -644 1368 -987 
Q 1059 -1331 372 -1331 
Q 150 -1331 -79 -1278 
Q -309 -1225 -538 -1119 
z
" transform="scale(0.015625)"/>
       <path id="DejaVuSerif-41" d="M 1281 1691 
L 2994 1691 
L 2138 3909 
L 1281 1691 
z
M -38 0 
L -38 331 
L 372 331 
L 2034 4666 
L 2559 4666 
L 4225 331 
L 4684 331 
L 4684 0 
L 2988 0 
L 2988 331 
L 3506 331 
L 3116 1356 
L 1153 1356 
L 763 331 
L 1275 331 
L 1275 0 
L -38 0 
z
" transform="scale(0.015625)"/>
       <path id="DejaVuSerif-4e" d="M 313 0 
L 313 331 
L 941 331 
L 941 4331 
L 313 4331 
L 313 4666 
L 1509 4666 
L 4306 984 
L 4306 4331 
L 3681 4331 
L 3681 4666 
L 5319 4666 
L 5319 4331 
L 4691 4331 
L 4691 -91 
L 4313 -91 
L 1325 3841 
L 1325 331 
L 1953 331 
L 1953 0 
L 313 0 
z
" transform="scale(0.015625)"/>
      </defs>
      <use xlink:href="#DejaVuSerif-4a"/>
      <use xlink:href="#DejaVuSerif-41" x="40.087891"/>
      <use xlink:href="#DejaVuSerif-50" x="112.304688"/>
      <use xlink:href="#DejaVuSerif-41" x="170.464844"/>
      <use xlink:href="#DejaVuSerif-4e" x="242.681641"/>
     </g>
    </g>
    <g id="line2d_20">
     <path d="M 59.383125 50.557187 
L 66.133125 50.557187 
L 72.883125 50.557187 
" style="fill: none; stroke-dasharray: 9.25,4; stroke-dashoffset: 0; stroke: #ff7f0e; stroke-opacity: 0.9; stroke-width: 2.5"/>
     <defs>
      <path id="me2df38e2b8" d="M -6 6 
L 6 6 
L 6 -6 
L -6 -6 
z
" style="stroke: #000000; stroke-opacity: 0.9; stroke-linejoin: miter"/>
     </defs>
     <g>
      <use xlink:href="#me2df38e2b8" x="66.133125" y="50.557187" style="fill: #ff7f0e; fill-opacity: 0.9; stroke: #000000; stroke-opacity: 0.9; stroke-linejoin: miter"/>
     </g>
    </g>
    <g id="text_19">
     <!-- REGION785 -->
     <g style="fill: #262626" transform="translate(80.083125 53.707187) scale(0.09 -0.09)">
      <defs>
       <path id="DejaVuSerif-47" d="M 4097 3272 
Q 3988 3856 3641 4136 
Q 3294 4416 2675 4416 
Q 1869 4416 1472 3897 
Q 1075 3378 1075 2328 
Q 1075 1300 1484 772 
Q 1894 244 2688 244 
Q 3041 244 3362 331 
Q 3684 419 3975 594 
L 3975 1797 
L 3097 1797 
L 3097 2131 
L 4609 2131 
L 4609 391 
Q 4194 150 3714 29 
Q 3234 -91 2688 -91 
Q 1631 -91 995 570 
Q 359 1231 359 2328 
Q 359 3434 996 4092 
Q 1634 4750 2713 4750 
Q 3113 4750 3539 4658 
Q 3966 4566 4447 4378 
L 4447 3272 
L 4097 3272 
z
" transform="scale(0.015625)"/>
       <path id="DejaVuSerif-49" d="M 1581 331 
L 2175 331 
L 2175 0 
L 353 0 
L 353 331 
L 947 331 
L 947 4331 
L 353 4331 
L 353 4666 
L 2175 4666 
L 2175 4331 
L 1581 4331 
L 1581 331 
z
" transform="scale(0.015625)"/>
       <path id="DejaVuSerif-4f" d="M 2625 244 
Q 3391 244 3781 770 
Q 4172 1297 4172 2328 
Q 4172 3363 3781 3889 
Q 3391 4416 2625 4416 
Q 1856 4416 1465 3889 
Q 1075 3363 1075 2328 
Q 1075 1297 1465 770 
Q 1856 244 2625 244 
z
M 2625 -91 
Q 2150 -91 1751 65 
Q 1353 222 1050 525 
Q 700 875 529 1319 
Q 359 1763 359 2328 
Q 359 2894 529 3339 
Q 700 3784 1050 4134 
Q 1356 4441 1750 4595 
Q 2144 4750 2625 4750 
Q 3641 4750 4266 4084 
Q 4891 3419 4891 2328 
Q 4891 1769 4719 1320 
Q 4547 872 4197 525 
Q 3891 219 3497 64 
Q 3103 -91 2625 -91 
z
" transform="scale(0.015625)"/>
      </defs>
      <use xlink:href="#DejaVuSerif-52"/>
      <use xlink:href="#DejaVuSerif-45" x="75.292969"/>
      <use xlink:href="#DejaVuSerif-47" x="148.291016"/>
      <use xlink:href="#DejaVuSerif-49" x="228.173828"/>
      <use xlink:href="#DejaVuSerif-4f" x="267.675781"/>
      <use xlink:href="#DejaVuSerif-4e" x="349.658203"/>
      <use xlink:href="#DejaVuSerif-37" x="437.158203"/>
      <use xlink:href="#DejaVuSerif-38" x="500.78125"/>
      <use xlink:href="#DejaVuSerif-35" x="564.404297"/>
     </g>
    </g>
    <g id="line2d_21">
     <path d="M 59.383125 63.7675 
L 66.133125 63.7675 
L 72.883125 63.7675 
" style="fill: none; stroke-dasharray: 16,4,2.5,4; stroke-dashoffset: 0; stroke: #2ca02c; stroke-opacity: 0.9; stroke-width: 2.5"/>
     <defs>
      <path id="mc7f5e75a4b" d="M -0 8.485281 
L 8.485281 0 
L 0 -8.485281 
L -8.485281 -0 
z
" style="stroke: #000000; stroke-opacity: 0.9; stroke-linejoin: miter"/>
     </defs>
     <g>
      <use xlink:href="#mc7f5e75a4b" x="66.133125" y="63.7675" style="fill: #2ca02c; fill-opacity: 0.9; stroke: #000000; stroke-opacity: 0.9; stroke-linejoin: miter"/>
     </g>
    </g>
    <g id="text_20">
     <!-- NHS_TIMESERIES -->
     <g style="fill: #262626" transform="translate(80.083125 66.9175) scale(0.09 -0.09)">
      <defs>
       <path id="DejaVuSerif-5f" d="M 3200 -1259 
L 3200 -1509 
L 0 -1509 
L 0 -1259 
L 3200 -1259 
z
" transform="scale(0.015625)"/>
       <path id="DejaVuSerif-54" d="M 1222 0 
L 1222 331 
L 1819 331 
L 1819 4294 
L 447 4294 
L 447 3566 
L 63 3566 
L 63 4666 
L 4206 4666 
L 4206 3566 
L 3822 3566 
L 3822 4294 
L 2450 4294 
L 2450 331 
L 3047 331 
L 3047 0 
L 1222 0 
z
" transform="scale(0.015625)"/>
      </defs>
      <use xlink:href="#DejaVuSerif-4e"/>
      <use xlink:href="#DejaVuSerif-48" x="87.5"/>
      <use xlink:href="#DejaVuSerif-53" x="174.707031"/>
      <use xlink:href="#DejaVuSerif-5f" x="243.212891"/>
      <use xlink:href="#DejaVuSerif-54" x="293.212891"/>
      <use xlink:href="#DejaVuSerif-49" x="359.912109"/>
      <use xlink:href="#DejaVuSerif-4d" x="399.414062"/>
      <use xlink:href="#DejaVuSerif-45" x="501.806641"/>
      <use xlink:href="#DejaVuSerif-53" x="574.804688"/>
      <use xlink:href="#DejaVuSerif-45" x="643.310547"/>
      <use xlink:href="#DejaVuSerif-52" x="716.308594"/>
      <use xlink:href="#DejaVuSerif-49" x="791.601562"/>
      <use xlink:href="#DejaVuSerif-45" x="831.103516"/>
      <use xlink:href="#DejaVuSerif-53" x="904.101562"/>
     </g>
    </g>
    <g id="line2d_22">
     <path d="M 59.383125 77.228125 
L 66.133125 77.228125 
L 72.883125 77.228125 
" style="fill: none; stroke-dasharray: 2.5,4.125; stroke-dashoffset: 0; stroke: #d62728; stroke-opacity: 0.9; stroke-width: 2.5"/>
     <defs>
      <path id="mede39c4ada" d="M 0 -6 
L -6 6 
L 6 6 
z
" style="stroke: #000000; stroke-opacity: 0.9; stroke-linejoin: miter"/>
     </defs>
     <g>
      <use xlink:href="#mede39c4ada" x="66.133125" y="77.228125" style="fill: #d62728; fill-opacity: 0.9; stroke: #000000; stroke-opacity: 0.9; stroke-linejoin: miter"/>
     </g>
    </g>
    <g id="text_21">
     <!-- LTLA_TIMESERIES -->
     <g style="fill: #262626" transform="translate(80.083125 80.378125) scale(0.09 -0.09)">
      <defs>
       <path id="DejaVuSerif-4c" d="M 353 0 
L 353 331 
L 947 331 
L 947 4331 
L 353 4331 
L 353 4666 
L 2175 4666 
L 2175 4331 
L 1581 4331 
L 1581 384 
L 3713 384 
L 3713 1166 
L 4097 1166 
L 4097 0 
L 353 0 
z
" transform="scale(0.015625)"/>
      </defs>
      <use xlink:href="#DejaVuSerif-4c"/>
      <use xlink:href="#DejaVuSerif-54" x="58.28125"/>
      <use xlink:href="#DejaVuSerif-4c" x="124.980469"/>
      <use xlink:href="#DejaVuSerif-41" x="191.386719"/>
      <use xlink:href="#DejaVuSerif-5f" x="263.603516"/>
      <use xlink:href="#DejaVuSerif-54" x="313.603516"/>
      <use xlink:href="#DejaVuSerif-49" x="380.302734"/>
      <use xlink:href="#DejaVuSerif-4d" x="419.804688"/>
      <use xlink:href="#DejaVuSerif-45" x="522.197266"/>
      <use xlink:href="#DejaVuSerif-53" x="595.195312"/>
      <use xlink:href="#DejaVuSerif-45" x="663.701172"/>
      <use xlink:href="#DejaVuSerif-52" x="736.699219"/>
      <use xlink:href="#DejaVuSerif-49" x="811.992188"/>
      <use xlink:href="#DejaVuSerif-45" x="851.494141"/>
      <use xlink:href="#DejaVuSerif-53" x="924.492188"/>
     </g>
    </g>
   </g>
   <g id="text_22">
    <g id="patch_7">
     <path d="M 60.247457 148.384553 
L 103.19152 148.384553 
Q 105.89152 148.384553 105.89152 145.684553 
L 105.89152 136.97424 
Q 105.89152 134.27424 103.19152 134.27424 
L 60.247457 134.27424 
Q 57.547457 134.27424 57.547457 136.97424 
L 57.547457 145.684553 
Q 57.547457 148.384553 60.247457 148.384553 
z
" style="fill: #ffffff; opacity: 0.8; stroke: #808080; stroke-linejoin: miter"/>
    </g>
    <!-- 1045.186 -->
    <g style="fill: #262626" transform="translate(60.247457 143.812834) scale(0.09 -0.09)">
     <defs>
      <path id="DejaVuSerif-2e" d="M 603 325 
Q 603 500 722 622 
Q 841 744 1019 744 
Q 1191 744 1312 622 
Q 1434 500 1434 325 
Q 1434 153 1312 31 
Q 1191 -91 1019 -91 
Q 841 -91 722 29 
Q 603 150 603 325 
z
" transform="scale(0.015625)"/>
     </defs>
     <use xlink:href="#DejaVuSerif-31"/>
     <use xlink:href="#DejaVuSerif-30" x="63.623047"/>
     <use xlink:href="#DejaVuSerif-34" x="127.246094"/>
     <use xlink:href="#DejaVuSerif-35" x="190.869141"/>
     <use xlink:href="#DejaVuSerif-2e" x="254.492188"/>
     <use xlink:href="#DejaVuSerif-31" x="286.279297"/>
     <use xlink:href="#DejaVuSerif-38" x="349.902344"/>
     <use xlink:href="#DejaVuSerif-36" x="413.525391"/>
    </g>
   </g>
   <g id="text_23">
    <g id="patch_8">
     <path d="M 161.702003 137.872674 
L 204.646065 137.872674 
Q 207.346065 137.872674 207.346065 135.172674 
L 207.346065 126.462361 
Q 207.346065 123.762361 204.646065 123.762361 
L 161.702003 123.762361 
Q 159.002003 123.762361 159.002003 126.462361 
L 159.002003 135.172674 
Q 159.002003 137.872674 161.702003 137.872674 
z
" style="fill: #ffffff; opacity: 0.8; stroke: #808080; stroke-linejoin: miter"/>
    </g>
    <!-- 1087.471 -->
    <g style="fill: #262626" transform="translate(161.702003 133.300955) scale(0.09 -0.09)">
     <use xlink:href="#DejaVuSerif-31"/>
     <use xlink:href="#DejaVuSerif-30" x="63.623047"/>
     <use xlink:href="#DejaVuSerif-38" x="127.246094"/>
     <use xlink:href="#DejaVuSerif-37" x="190.869141"/>
     <use xlink:href="#DejaVuSerif-2e" x="254.492188"/>
     <use xlink:href="#DejaVuSerif-34" x="286.279297"/>
     <use xlink:href="#DejaVuSerif-37" x="349.902344"/>
     <use xlink:href="#DejaVuSerif-31" x="413.525391"/>
    </g>
   </g>
   <g id="text_24">
    <g id="patch_9">
     <path d="M 415.338366 75.620207 
L 458.282429 75.620207 
Q 460.982429 75.620207 460.982429 72.920207 
L 460.982429 64.209894 
Q 460.982429 61.509894 458.282429 61.509894 
L 415.338366 61.509894 
Q 412.638366 61.509894 412.638366 64.209894 
L 412.638366 72.920207 
Q 412.638366 75.620207 415.338366 75.620207 
z
" style="fill: #ffffff; opacity: 0.8; stroke: #808080; stroke-linejoin: miter"/>
    </g>
    <!-- 1337.891 -->
    <g style="fill: #262626" transform="translate(415.338366 71.048488) scale(0.09 -0.09)">
     <defs>
      <path id="DejaVuSerif-39" d="M 2994 2091 
Q 2784 1856 2512 1740 
Q 2241 1625 1900 1625 
Q 1206 1625 804 2044 
Q 403 2463 403 3188 
Q 403 3897 839 4323 
Q 1275 4750 2003 4750 
Q 2794 4750 3217 4161 
Q 3641 3572 3641 2478 
Q 3641 1253 3137 581 
Q 2634 -91 1722 -91 
Q 1475 -91 1203 -44 
Q 931 3 647 97 
L 647 872 
L 997 872 
Q 1038 556 1241 387 
Q 1444 219 1784 219 
Q 2391 219 2687 676 
Q 2984 1134 2994 2091 
z
M 1978 4441 
Q 1534 4441 1298 4117 
Q 1063 3794 1063 3188 
Q 1063 2581 1298 2256 
Q 1534 1931 1978 1931 
Q 2422 1931 2658 2245 
Q 2894 2559 2894 3150 
Q 2894 3772 2656 4106 
Q 2419 4441 1978 4441 
z
" transform="scale(0.015625)"/>
     </defs>
     <use xlink:href="#DejaVuSerif-31"/>
     <use xlink:href="#DejaVuSerif-33" x="63.623047"/>
     <use xlink:href="#DejaVuSerif-33" x="127.246094"/>
     <use xlink:href="#DejaVuSerif-37" x="190.869141"/>
     <use xlink:href="#DejaVuSerif-2e" x="254.492188"/>
     <use xlink:href="#DejaVuSerif-38" x="286.279297"/>
     <use xlink:href="#DejaVuSerif-39" x="349.902344"/>
     <use xlink:href="#DejaVuSerif-31" x="413.525391"/>
    </g>
   </g>
   <g id="text_25">
    <g id="patch_10">
     <path d="M 668.97473 75.539552 
L 711.918793 75.539552 
Q 714.618793 75.539552 714.618793 72.839552 
L 714.618793 64.12924 
Q 714.618793 61.42924 711.918793 61.42924 
L 668.97473 61.42924 
Q 666.27473 61.42924 666.27473 64.12924 
L 666.27473 72.839552 
Q 666.27473 75.539552 668.97473 75.539552 
z
" style="fill: #ffffff; opacity: 0.8; stroke: #808080; stroke-linejoin: miter"/>
    </g>
    <!-- 1338.215 -->
    <g style="fill: #262626" transform="translate(668.97473 70.967834) scale(0.09 -0.09)">
     <use xlink:href="#DejaVuSerif-31"/>
     <use xlink:href="#DejaVuSerif-33" x="63.623047"/>
     <use xlink:href="#DejaVuSerif-33" x="127.246094"/>
     <use xlink:href="#DejaVuSerif-38" x="190.869141"/>
     <use xlink:href="#DejaVuSerif-2e" x="254.492188"/>
     <use xlink:href="#DejaVuSerif-32" x="286.279297"/>
     <use xlink:href="#DejaVuSerif-31" x="349.902344"/>
     <use xlink:href="#DejaVuSerif-35" x="413.525391"/>
    </g>
   </g>
   <g id="text_26">
    <g id="patch_11">
     <path d="M 63.110582 246.595245 
L 100.328395 246.595245 
Q 103.028395 246.595245 103.028395 243.895245 
L 103.028395 235.184933 
Q 103.028395 232.484933 100.328395 232.484933 
L 63.110582 232.484933 
Q 60.410582 232.484933 60.410582 235.184933 
L 60.410582 243.895245 
Q 60.410582 246.595245 63.110582 246.595245 
z
" style="fill: #ffffff; opacity: 0.8; stroke: #808080; stroke-linejoin: miter"/>
    </g>
    <!-- 650.119 -->
    <g style="fill: #262626" transform="translate(63.110582 242.023526) scale(0.09 -0.09)">
     <use xlink:href="#DejaVuSerif-36"/>
     <use xlink:href="#DejaVuSerif-35" x="63.623047"/>
     <use xlink:href="#DejaVuSerif-30" x="127.246094"/>
     <use xlink:href="#DejaVuSerif-2e" x="190.869141"/>
     <use xlink:href="#DejaVuSerif-31" x="222.65625"/>
     <use xlink:href="#DejaVuSerif-31" x="286.279297"/>
     <use xlink:href="#DejaVuSerif-39" x="349.902344"/>
    </g>
   </g>
   <g id="text_27">
    <g id="patch_12">
     <path d="M 164.565128 201.177487 
L 201.78294 201.177487 
Q 204.48294 201.177487 204.48294 198.477487 
L 204.48294 189.767175 
Q 204.48294 187.067175 201.78294 187.067175 
L 164.565128 187.067175 
Q 161.865128 187.067175 161.865128 189.767175 
L 161.865128 198.477487 
Q 161.865128 201.177487 164.565128 201.177487 
z
" style="fill: #ffffff; opacity: 0.8; stroke: #808080; stroke-linejoin: miter"/>
    </g>
    <!-- 832.819 -->
    <g style="fill: #262626" transform="translate(164.565128 196.605768) scale(0.09 -0.09)">
     <use xlink:href="#DejaVuSerif-38"/>
     <use xlink:href="#DejaVuSerif-33" x="63.623047"/>
     <use xlink:href="#DejaVuSerif-32" x="127.246094"/>
     <use xlink:href="#DejaVuSerif-2e" x="190.869141"/>
     <use xlink:href="#DejaVuSerif-38" x="222.65625"/>
     <use xlink:href="#DejaVuSerif-31" x="286.279297"/>
     <use xlink:href="#DejaVuSerif-39" x="349.902344"/>
    </g>
   </g>
   <g id="text_28">
    <g id="patch_13">
     <path d="M 418.201491 159.848374 
L 455.419304 159.848374 
Q 458.119304 159.848374 458.119304 157.148374 
L 458.119304 148.438062 
Q 458.119304 145.738062 455.419304 145.738062 
L 418.201491 145.738062 
Q 415.501491 145.738062 415.501491 148.438062 
L 415.501491 157.148374 
Q 415.501491 159.848374 418.201491 159.848374 
z
" style="fill: #ffffff; opacity: 0.8; stroke: #808080; stroke-linejoin: miter"/>
    </g>
    <!-- 999.071 -->
    <g style="fill: #262626" transform="translate(418.201491 155.276656) scale(0.09 -0.09)">
     <use xlink:href="#DejaVuSerif-39"/>
     <use xlink:href="#DejaVuSerif-39" x="63.623047"/>
     <use xlink:href="#DejaVuSerif-39" x="127.246094"/>
     <use xlink:href="#DejaVuSerif-2e" x="190.869141"/>
     <use xlink:href="#DejaVuSerif-30" x="222.65625"/>
     <use xlink:href="#DejaVuSerif-37" x="286.279297"/>
     <use xlink:href="#DejaVuSerif-31" x="349.902344"/>
    </g>
   </g>
   <g id="text_29">
    <g id="patch_14">
     <path d="M 668.97473 70.526086 
L 711.918793 70.526086 
Q 714.618793 70.526086 714.618793 67.826086 
L 714.618793 59.115774 
Q 714.618793 56.415774 711.918793 56.415774 
L 668.97473 56.415774 
Q 666.27473 56.415774 666.27473 59.115774 
L 666.27473 67.826086 
Q 666.27473 70.526086 668.97473 70.526086 
z
" style="fill: #ffffff; opacity: 0.8; stroke: #808080; stroke-linejoin: miter"/>
    </g>
    <!-- 1358.383 -->
    <g style="fill: #262626" transform="translate(668.97473 65.954368) scale(0.09 -0.09)">
     <use xlink:href="#DejaVuSerif-31"/>
     <use xlink:href="#DejaVuSerif-33" x="63.623047"/>
     <use xlink:href="#DejaVuSerif-35" x="127.246094"/>
     <use xlink:href="#DejaVuSerif-38" x="190.869141"/>
     <use xlink:href="#DejaVuSerif-2e" x="254.492188"/>
     <use xlink:href="#DejaVuSerif-33" x="286.279297"/>
     <use xlink:href="#DejaVuSerif-38" x="349.902344"/>
     <use xlink:href="#DejaVuSerif-33" x="413.525391"/>
    </g>
   </g>
   <g id="text_30">
    <g id="patch_15">
     <path d="M 68.836832 406.499995 
L 94.602145 406.499995 
Q 97.302145 406.499995 97.302145 403.799995 
L 97.302145 395.089682 
Q 97.302145 392.389682 94.602145 392.389682 
L 68.836832 392.389682 
Q 66.136832 392.389682 66.136832 395.089682 
L 66.136832 403.799995 
Q 66.136832 406.499995 68.836832 406.499995 
z
" style="fill: #ffffff; opacity: 0.8; stroke: #808080; stroke-linejoin: miter"/>
    </g>
    <!-- 6.879 -->
    <g style="fill: #262626" transform="translate(68.836832 401.928276) scale(0.09 -0.09)">
     <use xlink:href="#DejaVuSerif-36"/>
     <use xlink:href="#DejaVuSerif-2e" x="63.623047"/>
     <use xlink:href="#DejaVuSerif-38" x="95.410156"/>
     <use xlink:href="#DejaVuSerif-37" x="159.033203"/>
     <use xlink:href="#DejaVuSerif-39" x="222.65625"/>
    </g>
   </g>
   <g id="text_31">
    <g id="patch_16">
     <path d="M 268.882798 401.9034 
L 300.374361 401.9034 
Q 303.074361 401.9034 303.074361 399.2034 
L 303.074361 390.493088 
Q 303.074361 387.793088 300.374361 387.793088 
L 268.882798 387.793088 
Q 266.182798 387.793088 266.182798 390.493088 
L 266.182798 399.2034 
Q 266.182798 401.9034 268.882798 401.9034 
z
" style="fill: #ffffff; opacity: 0.8; stroke: #808080; stroke-linejoin: miter"/>
    </g>
    <!-- 25.369 -->
    <g style="fill: #262626" transform="translate(268.882798 397.331682) scale(0.09 -0.09)">
     <use xlink:href="#DejaVuSerif-32"/>
     <use xlink:href="#DejaVuSerif-35" x="63.623047"/>
     <use xlink:href="#DejaVuSerif-2e" x="127.246094"/>
     <use xlink:href="#DejaVuSerif-33" x="159.033203"/>
     <use xlink:href="#DejaVuSerif-36" x="222.65625"/>
     <use xlink:href="#DejaVuSerif-39" x="286.279297"/>
    </g>
   </g>
   <g id="text_32">
    <g id="patch_17">
     <path d="M 623.973707 404.416935 
L 655.46527 404.416935 
Q 658.16527 404.416935 658.16527 401.716935 
L 658.16527 393.006623 
Q 658.16527 390.306623 655.46527 390.306623 
L 623.973707 390.306623 
Q 621.273707 390.306623 621.273707 393.006623 
L 621.273707 401.716935 
Q 621.273707 404.416935 623.973707 404.416935 
z
" style="fill: #ffffff; opacity: 0.8; stroke: #808080; stroke-linejoin: miter"/>
    </g>
    <!-- 15.258 -->
    <g style="fill: #262626" transform="translate(623.973707 399.845216) scale(0.09 -0.09)">
     <use xlink:href="#DejaVuSerif-31"/>
     <use xlink:href="#DejaVuSerif-35" x="63.623047"/>
     <use xlink:href="#DejaVuSerif-2e" x="127.246094"/>
     <use xlink:href="#DejaVuSerif-32" x="159.033203"/>
     <use xlink:href="#DejaVuSerif-35" x="222.65625"/>
     <use xlink:href="#DejaVuSerif-38" x="286.279297"/>
    </g>
   </g>
   <g id="text_33">
    <g id="patch_18">
     <path d="M 63.110582 381.799339 
L 100.328395 381.799339 
Q 103.028395 381.799339 103.028395 379.099339 
L 103.028395 370.389027 
Q 103.028395 367.689027 100.328395 367.689027 
L 63.110582 367.689027 
Q 60.410582 367.689027 60.410582 370.389027 
L 60.410582 379.099339 
Q 60.410582 381.799339 63.110582 381.799339 
z
" style="fill: #ffffff; opacity: 0.8; stroke: #808080; stroke-linejoin: miter"/>
    </g>
    <!-- 106.241 -->
    <g style="fill: #262626" transform="translate(63.110582 377.227621) scale(0.09 -0.09)">
     <use xlink:href="#DejaVuSerif-31"/>
     <use xlink:href="#DejaVuSerif-30" x="63.623047"/>
     <use xlink:href="#DejaVuSerif-36" x="127.246094"/>
     <use xlink:href="#DejaVuSerif-2e" x="190.869141"/>
     <use xlink:href="#DejaVuSerif-32" x="222.65625"/>
     <use xlink:href="#DejaVuSerif-34" x="286.279297"/>
     <use xlink:href="#DejaVuSerif-31" x="349.902344"/>
    </g>
   </g>
   <g id="text_34">
    <g id="patch_19">
     <path d="M 266.019673 367.581027 
L 303.237486 367.581027 
Q 305.937486 367.581027 305.937486 364.881027 
L 305.937486 356.170715 
Q 305.937486 353.470715 303.237486 353.470715 
L 266.019673 353.470715 
Q 263.319673 353.470715 263.319673 356.170715 
L 263.319673 364.881027 
Q 263.319673 367.581027 266.019673 367.581027 
z
" style="fill: #ffffff; opacity: 0.8; stroke: #808080; stroke-linejoin: miter"/>
    </g>
    <!-- 163.436 -->
    <g style="fill: #262626" transform="translate(266.019673 363.009309) scale(0.09 -0.09)">
     <use xlink:href="#DejaVuSerif-31"/>
     <use xlink:href="#DejaVuSerif-36" x="63.623047"/>
     <use xlink:href="#DejaVuSerif-33" x="127.246094"/>
     <use xlink:href="#DejaVuSerif-2e" x="190.869141"/>
     <use xlink:href="#DejaVuSerif-34" x="222.65625"/>
     <use xlink:href="#DejaVuSerif-33" x="286.279297"/>
     <use xlink:href="#DejaVuSerif-36" x="349.902344"/>
    </g>
   </g>
   <g id="text_35">
    <g id="patch_20">
     <path d="M 621.110582 359.464771 
L 658.328395 359.464771 
Q 661.028395 359.464771 661.028395 356.764771 
L 661.028395 348.054458 
Q 661.028395 345.354458 658.328395 345.354458 
L 621.110582 345.354458 
Q 618.410582 345.354458 618.410582 348.054458 
L 618.410582 356.764771 
Q 618.410582 359.464771 621.110582 359.464771 
z
" style="fill: #ffffff; opacity: 0.8; stroke: #808080; stroke-linejoin: miter"/>
    </g>
    <!-- 196.085 -->
    <g style="fill: #262626" transform="translate(621.110582 354.893052) scale(0.09 -0.09)">
     <use xlink:href="#DejaVuSerif-31"/>
     <use xlink:href="#DejaVuSerif-39" x="63.623047"/>
     <use xlink:href="#DejaVuSerif-36" x="127.246094"/>
     <use xlink:href="#DejaVuSerif-2e" x="190.869141"/>
     <use xlink:href="#DejaVuSerif-30" x="222.65625"/>
     <use xlink:href="#DejaVuSerif-38" x="286.279297"/>
     <use xlink:href="#DejaVuSerif-35" x="349.902344"/>
    </g>
   </g>
  </g>
 </g>
 <defs>
  <clipPath id="p1018bb5842">
   <rect x="51.283125" y="25.558281" width="669.6" height="388.08"/>
  </clipPath>
 </defs>
</svg>
