<?xml version="1.0" encoding="utf-8" standalone="no"?>
<!DOCTYPE svg PUBLIC "-//W3C//DTD SVG 1.1//EN"
  "http://www.w3.org/Graphics/SVG/1.1/DTD/svg11.dtd">
<svg xmlns:xlink="http://www.w3.org/1999/xlink" width="1000.830937pt" height="1000.437423pt" viewBox="0 0 1000.830937 1000.437423" xmlns="http://www.w3.org/2000/svg" version="1.1">
 <metadata>
  <rdf:RDF xmlns:dc="http://purl.org/dc/elements/1.1/" xmlns:cc="http://creativecommons.org/ns#" xmlns:rdf="http://www.w3.org/1999/02/22-rdf-syntax-ns#">
   <cc:Work>
    <dc:type rdf:resource="http://purl.org/dc/dcmitype/StillImage"/>
    <dc:date>2025-05-04T12:30:20.692977</dc:date>
    <dc:format>image/svg+xml</dc:format>
    <dc:creator>
     <cc:Agent>
      <dc:title>MSAGAT-Net</dc:title>
     </cc:Agent>
    </dc:creator>
   </cc:Work>
  </rdf:RDF>
 </metadata>
 <defs>
  <style type="text/css">*{stroke-linejoin: round; stroke-linecap: butt}</style>
 </defs>
 <g id="figure_1">
  <g id="patch_1">
   <path d="M 0 1000.437423 
L 1000.830937 1000.437423 
L 1000.830937 0 
L 0 0 
z
" style="fill: #ffffff"/>
  </g>
  <g id="axes_1">
   <g id="patch_2">
    <path d="M 43.900938 426.973986 
L 993.630938 426.973986 
L 993.630938 26.318125 
L 43.900938 26.318125 
z
" style="fill: #ffffff"/>
   </g>
   <g id="matplotlib.axis_1">
    <g id="xtick_1">
     <g id="line2d_1">
      <defs>
       <path id="m220e71dce3" d="M 0 0 
L 0 4 
" style="stroke: #262626"/>
      </defs>
      <g>
       <use xlink:href="#m220e71dce3" x="123.045104" y="426.973986" style="fill: #262626; stroke: #262626"/>
      </g>
     </g>
     <g id="text_1">
      <!-- 3 -->
      <g style="fill: #262626" transform="translate(120.181979 441.31258) scale(0.09 -0.09)">
       <defs>
        <path id="DejaVuSerif-33" d="M 622 4469 
Q 988 4606 1323 4678 
Q 1659 4750 1953 4750 
Q 2638 4750 3022 4454 
Q 3406 4159 3406 3634 
Q 3406 3213 3140 2930 
Q 2875 2647 2388 2547 
Q 2963 2466 3280 2130 
Q 3597 1794 3597 1259 
Q 3597 606 3158 257 
Q 2719 -91 1894 -91 
Q 1528 -91 1179 -12 
Q 831 66 488 225 
L 488 1131 
L 838 1131 
Q 869 681 1141 450 
Q 1413 219 1906 219 
Q 2384 219 2661 495 
Q 2938 772 2938 1253 
Q 2938 1803 2653 2086 
Q 2369 2369 1819 2369 
L 1522 2369 
L 1522 2688 
L 1678 2688 
Q 2225 2688 2498 2914 
Q 2772 3141 2772 3597 
Q 2772 4006 2547 4223 
Q 2322 4441 1900 4441 
Q 1478 4441 1245 4241 
Q 1013 4041 972 3647 
L 622 3647 
L 622 4469 
z
" transform="scale(0.015625)"/>
       </defs>
       <use xlink:href="#DejaVuSerif-33"/>
      </g>
     </g>
    </g>
    <g id="xtick_2">
     <g id="line2d_2">
      <g>
       <use xlink:href="#m220e71dce3" x="281.333438" y="426.973986" style="fill: #262626; stroke: #262626"/>
      </g>
     </g>
     <g id="text_2">
      <!-- 5 -->
      <g style="fill: #262626" transform="translate(278.470312 441.31258) scale(0.09 -0.09)">
       <defs>
        <path id="DejaVuSerif-35" d="M 3219 4666 
L 3219 4153 
L 1081 4153 
L 1081 2816 
Q 1244 2928 1461 2984 
Q 1678 3041 1947 3041 
Q 2703 3041 3140 2622 
Q 3578 2203 3578 1478 
Q 3578 738 3136 323 
Q 2694 -91 1894 -91 
Q 1572 -91 1234 -12 
Q 897 66 544 225 
L 544 1131 
L 897 1131 
Q 925 688 1179 453 
Q 1434 219 1894 219 
Q 2388 219 2653 544 
Q 2919 869 2919 1478 
Q 2919 2084 2655 2407 
Q 2391 2731 1894 2731 
Q 1613 2731 1398 2631 
Q 1184 2531 1019 2322 
L 750 2322 
L 750 4666 
L 3219 4666 
z
" transform="scale(0.015625)"/>
       </defs>
       <use xlink:href="#DejaVuSerif-35"/>
      </g>
     </g>
    </g>
    <g id="xtick_3">
     <g id="line2d_3">
      <g>
       <use xlink:href="#m220e71dce3" x="439.621771" y="426.973986" style="fill: #262626; stroke: #262626"/>
      </g>
     </g>
     <g id="text_3">
      <!-- 7 -->
      <g style="fill: #262626" transform="translate(436.758646 441.31258) scale(0.09 -0.09)">
       <defs>
        <path id="DejaVuSerif-37" d="M 3609 4347 
L 1784 0 
L 1319 0 
L 3059 4153 
L 903 4153 
L 903 3578 
L 538 3578 
L 538 4666 
L 3609 4666 
L 3609 4347 
z
" transform="scale(0.015625)"/>
       </defs>
       <use xlink:href="#DejaVuSerif-37"/>
      </g>
     </g>
    </g>
    <g id="xtick_4">
     <g id="line2d_4">
      <g>
       <use xlink:href="#m220e71dce3" x="597.910104" y="426.973986" style="fill: #262626; stroke: #262626"/>
      </g>
     </g>
     <g id="text_4">
      <!-- 10 -->
      <g style="fill: #262626" transform="translate(592.183854 441.31258) scale(0.09 -0.09)">
       <defs>
        <path id="DejaVuSerif-31" d="M 909 0 
L 909 331 
L 1722 331 
L 1722 4213 
L 781 3603 
L 781 4013 
L 1919 4750 
L 2350 4750 
L 2350 331 
L 3163 331 
L 3163 0 
L 909 0 
z
" transform="scale(0.015625)"/>
        <path id="DejaVuSerif-30" d="M 2034 219 
Q 2513 219 2750 744 
Q 2988 1269 2988 2328 
Q 2988 3391 2750 3916 
Q 2513 4441 2034 4441 
Q 1556 4441 1318 3916 
Q 1081 3391 1081 2328 
Q 1081 1269 1318 744 
Q 1556 219 2034 219 
z
M 2034 -91 
Q 1275 -91 848 546 
Q 422 1184 422 2328 
Q 422 3475 848 4112 
Q 1275 4750 2034 4750 
Q 2797 4750 3222 4112 
Q 3647 3475 3647 2328 
Q 3647 1184 3222 546 
Q 2797 -91 2034 -91 
z
" transform="scale(0.015625)"/>
       </defs>
       <use xlink:href="#DejaVuSerif-31"/>
       <use xlink:href="#DejaVuSerif-30" x="63.623047"/>
      </g>
     </g>
    </g>
    <g id="xtick_5">
     <g id="line2d_5">
      <g>
       <use xlink:href="#m220e71dce3" x="756.198437" y="426.973986" style="fill: #262626; stroke: #262626"/>
      </g>
     </g>
     <g id="text_5">
      <!-- 14 -->
      <g style="fill: #262626" transform="translate(750.472187 441.31258) scale(0.09 -0.09)">
       <defs>
        <path id="DejaVuSerif-34" d="M 2234 1581 
L 2234 4063 
L 641 1581 
L 2234 1581 
z
M 3609 0 
L 1484 0 
L 1484 331 
L 2234 331 
L 2234 1247 
L 197 1247 
L 197 1588 
L 2241 4750 
L 2859 4750 
L 2859 1581 
L 3750 1581 
L 3750 1247 
L 2859 1247 
L 2859 331 
L 3609 331 
L 3609 0 
z
" transform="scale(0.015625)"/>
       </defs>
       <use xlink:href="#DejaVuSerif-31"/>
       <use xlink:href="#DejaVuSerif-34" x="63.623047"/>
      </g>
     </g>
    </g>
    <g id="xtick_6">
     <g id="line2d_6">
      <g>
       <use xlink:href="#m220e71dce3" x="914.486771" y="426.973986" style="fill: #262626; stroke: #262626"/>
      </g>
     </g>
     <g id="text_6">
      <!-- 15 -->
      <g style="fill: #262626" transform="translate(908.760521 441.31258) scale(0.09 -0.09)">
       <use xlink:href="#DejaVuSerif-31"/>
       <use xlink:href="#DejaVuSerif-35" x="63.623047"/>
      </g>
     </g>
    </g>
    <g id="text_7">
     <!-- Horizon -->
     <g style="fill: #262626" transform="translate(496.519297 455.54258) scale(0.11 -0.11)">
      <defs>
       <path id="DejaVuSerif-48" d="M 353 0 
L 353 331 
L 947 331 
L 947 4331 
L 353 4331 
L 353 4666 
L 2175 4666 
L 2175 4331 
L 1581 4331 
L 1581 2719 
L 4000 2719 
L 4000 4331 
L 3406 4331 
L 3406 4666 
L 5228 4666 
L 5228 4331 
L 4634 4331 
L 4634 331 
L 5228 331 
L 5228 0 
L 3406 0 
L 3406 331 
L 4000 331 
L 4000 2338 
L 1581 2338 
L 1581 331 
L 2175 331 
L 2175 0 
L 353 0 
z
" transform="scale(0.015625)"/>
       <path id="DejaVuSerif-6f" d="M 1925 219 
Q 2388 219 2623 584 
Q 2859 950 2859 1663 
Q 2859 2375 2623 2739 
Q 2388 3103 1925 3103 
Q 1463 3103 1227 2739 
Q 991 2375 991 1663 
Q 991 950 1228 584 
Q 1466 219 1925 219 
z
M 1925 -91 
Q 1200 -91 759 389 
Q 319 869 319 1663 
Q 319 2456 758 2934 
Q 1197 3413 1925 3413 
Q 2653 3413 3092 2934 
Q 3531 2456 3531 1663 
Q 3531 869 3092 389 
Q 2653 -91 1925 -91 
z
" transform="scale(0.015625)"/>
       <path id="DejaVuSerif-72" d="M 3059 3328 
L 3059 2497 
L 2728 2497 
Q 2713 2744 2591 2866 
Q 2469 2988 2234 2988 
Q 1809 2988 1582 2694 
Q 1356 2400 1356 1850 
L 1356 331 
L 2022 331 
L 2022 0 
L 263 0 
L 263 331 
L 781 331 
L 781 2994 
L 231 2994 
L 231 3322 
L 1356 3322 
L 1356 2731 
Q 1525 3078 1790 3245 
Q 2056 3413 2438 3413 
Q 2578 3413 2733 3391 
Q 2888 3369 3059 3328 
z
" transform="scale(0.015625)"/>
       <path id="DejaVuSerif-69" d="M 622 4353 
Q 622 4497 726 4603 
Q 831 4709 978 4709 
Q 1122 4709 1226 4603 
Q 1331 4497 1331 4353 
Q 1331 4206 1228 4103 
Q 1125 4000 978 4000 
Q 831 4000 726 4103 
Q 622 4206 622 4353 
z
M 1356 331 
L 1900 331 
L 1900 0 
L 231 0 
L 231 331 
L 781 331 
L 781 2988 
L 231 2988 
L 231 3322 
L 1356 3322 
L 1356 331 
z
" transform="scale(0.015625)"/>
       <path id="DejaVuSerif-7a" d="M 256 0 
L 256 269 
L 2338 2988 
L 691 2988 
L 691 2413 
L 359 2413 
L 359 3322 
L 3078 3322 
L 3078 3053 
L 997 331 
L 2803 331 
L 2803 934 
L 3138 934 
L 3138 0 
L 256 0 
z
" transform="scale(0.015625)"/>
       <path id="DejaVuSerif-6e" d="M 263 0 
L 263 331 
L 781 331 
L 781 2988 
L 231 2988 
L 231 3322 
L 1356 3322 
L 1356 2731 
Q 1516 3069 1770 3241 
Q 2025 3413 2363 3413 
Q 2913 3413 3172 3097 
Q 3431 2781 3431 2113 
L 3431 331 
L 3944 331 
L 3944 0 
L 2356 0 
L 2356 331 
L 2853 331 
L 2853 1931 
Q 2853 2541 2703 2767 
Q 2553 2994 2175 2994 
Q 1775 2994 1565 2701 
Q 1356 2409 1356 1850 
L 1356 331 
L 1856 331 
L 1856 0 
L 263 0 
z
" transform="scale(0.015625)"/>
      </defs>
      <use xlink:href="#DejaVuSerif-48"/>
      <use xlink:href="#DejaVuSerif-6f" x="87.207031"/>
      <use xlink:href="#DejaVuSerif-72" x="147.412109"/>
      <use xlink:href="#DejaVuSerif-69" x="195.214844"/>
      <use xlink:href="#DejaVuSerif-7a" x="227.197266"/>
      <use xlink:href="#DejaVuSerif-6f" x="279.882812"/>
      <use xlink:href="#DejaVuSerif-6e" x="340.087891"/>
     </g>
    </g>
   </g>
   <g id="matplotlib.axis_2">
    <g id="ytick_1">
     <g id="line2d_7">
      <defs>
       <path id="mf0b63ef224" d="M 0 0 
L -4 0 
" style="stroke: #262626"/>
      </defs>
      <g>
       <use xlink:href="#mf0b63ef224" x="43.900938" y="426.973986" style="fill: #262626; stroke: #262626"/>
      </g>
     </g>
     <g id="text_8">
      <!-- 0 -->
      <g style="fill: #262626" transform="translate(30.674688 430.393283) scale(0.09 -0.09)">
       <use xlink:href="#DejaVuSerif-30"/>
      </g>
     </g>
    </g>
    <g id="ytick_2">
     <g id="line2d_8">
      <g>
       <use xlink:href="#mf0b63ef224" x="43.900938" y="344.419837" style="fill: #262626; stroke: #262626"/>
      </g>
     </g>
     <g id="text_9">
      <!-- 10 -->
      <g style="fill: #262626" transform="translate(24.948438 347.839134) scale(0.09 -0.09)">
       <use xlink:href="#DejaVuSerif-31"/>
       <use xlink:href="#DejaVuSerif-30" x="63.623047"/>
      </g>
     </g>
    </g>
    <g id="ytick_3">
     <g id="line2d_9">
      <g>
       <use xlink:href="#mf0b63ef224" x="43.900938" y="261.865688" style="fill: #262626; stroke: #262626"/>
      </g>
     </g>
     <g id="text_10">
      <!-- 20 -->
      <g style="fill: #262626" transform="translate(24.948438 265.284985) scale(0.09 -0.09)">
       <defs>
        <path id="DejaVuSerif-32" d="M 819 3553 
L 469 3553 
L 469 4384 
Q 803 4563 1142 4656 
Q 1481 4750 1806 4750 
Q 2534 4750 2956 4397 
Q 3378 4044 3378 3438 
Q 3378 2753 2422 1800 
Q 2347 1728 2309 1691 
L 1131 513 
L 3078 513 
L 3078 1088 
L 3444 1088 
L 3444 0 
L 434 0 
L 434 341 
L 1850 1753 
Q 2319 2222 2519 2614 
Q 2719 3006 2719 3438 
Q 2719 3909 2473 4175 
Q 2228 4441 1797 4441 
Q 1350 4441 1106 4219 
Q 863 3997 819 3553 
z
" transform="scale(0.015625)"/>
       </defs>
       <use xlink:href="#DejaVuSerif-32"/>
       <use xlink:href="#DejaVuSerif-30" x="63.623047"/>
      </g>
     </g>
    </g>
    <g id="ytick_4">
     <g id="line2d_10">
      <g>
       <use xlink:href="#mf0b63ef224" x="43.900938" y="179.311539" style="fill: #262626; stroke: #262626"/>
      </g>
     </g>
     <g id="text_11">
      <!-- 30 -->
      <g style="fill: #262626" transform="translate(24.948438 182.730836) scale(0.09 -0.09)">
       <use xlink:href="#DejaVuSerif-33"/>
       <use xlink:href="#DejaVuSerif-30" x="63.623047"/>
      </g>
     </g>
    </g>
    <g id="ytick_5">
     <g id="line2d_11">
      <g>
       <use xlink:href="#mf0b63ef224" x="43.900938" y="96.757391" style="fill: #262626; stroke: #262626"/>
      </g>
     </g>
     <g id="text_12">
      <!-- 40 -->
      <g style="fill: #262626" transform="translate(24.948438 100.176687) scale(0.09 -0.09)">
       <use xlink:href="#DejaVuSerif-34"/>
       <use xlink:href="#DejaVuSerif-30" x="63.623047"/>
      </g>
     </g>
    </g>
    <g id="text_13">
     <!-- % RMSE Increase -->
     <g style="fill: #262626" transform="translate(18.660781 276.959024) rotate(-90) scale(0.11 -0.11)">
      <defs>
       <path id="DejaVuSerif-25" d="M 1434 4459 
Q 1159 4459 1004 4200 
Q 850 3941 850 3475 
Q 850 3016 1008 2753 
Q 1166 2491 1434 2491 
Q 1700 2491 1854 2752 
Q 2009 3013 2009 3475 
Q 2009 3938 1854 4198 
Q 1700 4459 1434 4459 
z
M 4653 2169 
Q 4381 2169 4226 1906 
Q 4072 1644 4072 1178 
Q 4072 719 4228 458 
Q 4384 197 4653 197 
Q 4922 197 5075 458 
Q 5228 719 5228 1178 
Q 5228 1641 5073 1905 
Q 4919 2169 4653 2169 
z
M 4653 2450 
Q 5147 2450 5437 2106 
Q 5728 1763 5728 1178 
Q 5728 594 5436 251 
Q 5144 -91 4653 -91 
Q 4153 -91 3862 251 
Q 3572 594 3572 1178 
Q 3572 1766 3864 2108 
Q 4156 2450 4653 2450 
z
M 4263 4750 
L 4738 4750 
L 1819 -91 
L 1344 -91 
L 4263 4750 
z
M 1428 4750 
Q 1922 4750 2215 4408 
Q 2509 4066 2509 3481 
Q 2509 2891 2217 2550 
Q 1925 2209 1428 2209 
Q 931 2209 642 2551 
Q 353 2894 353 3481 
Q 353 4063 643 4406 
Q 934 4750 1428 4750 
z
" transform="scale(0.015625)"/>
       <path id="DejaVuSerif-20" transform="scale(0.015625)"/>
       <path id="DejaVuSerif-52" d="M 3066 2316 
Q 3284 2256 3442 2114 
Q 3600 1972 3725 1716 
L 4403 331 
L 4972 331 
L 4972 0 
L 3872 0 
L 3144 1484 
Q 2934 1916 2759 2042 
Q 2584 2169 2278 2169 
L 1581 2169 
L 1581 331 
L 2241 331 
L 2241 0 
L 353 0 
L 353 331 
L 947 331 
L 947 4331 
L 353 4331 
L 353 4666 
L 2719 4666 
Q 3400 4666 3770 4341 
Q 4141 4016 4141 3419 
Q 4141 2938 3870 2661 
Q 3600 2384 3066 2316 
z
M 1581 2503 
L 2503 2503 
Q 2975 2503 3200 2726 
Q 3425 2950 3425 3419 
Q 3425 3888 3200 4109 
Q 2975 4331 2503 4331 
L 1581 4331 
L 1581 2503 
z
" transform="scale(0.015625)"/>
       <path id="DejaVuSerif-4d" d="M 353 0 
L 353 331 
L 947 331 
L 947 4331 
L 319 4331 
L 319 4666 
L 1678 4666 
L 3316 1344 
L 4953 4666 
L 6228 4666 
L 6228 4331 
L 5606 4331 
L 5606 331 
L 6203 331 
L 6203 0 
L 4378 0 
L 4378 331 
L 4972 331 
L 4972 3938 
L 3372 684 
L 2931 684 
L 1331 3938 
L 1331 331 
L 1925 331 
L 1925 0 
L 353 0 
z
" transform="scale(0.015625)"/>
       <path id="DejaVuSerif-53" d="M 594 225 
L 594 1288 
L 953 1284 
Q 969 753 1261 498 
Q 1553 244 2150 244 
Q 2706 244 2998 464 
Q 3291 684 3291 1106 
Q 3291 1444 3114 1625 
Q 2938 1806 2369 1978 
L 1753 2163 
Q 1084 2366 811 2669 
Q 538 2972 538 3500 
Q 538 4094 959 4422 
Q 1381 4750 2144 4750 
Q 2469 4750 2856 4679 
Q 3244 4609 3681 4475 
L 3681 3481 
L 3328 3481 
Q 3275 3975 2998 4195 
Q 2722 4416 2156 4416 
Q 1663 4416 1405 4214 
Q 1147 4013 1147 3628 
Q 1147 3294 1340 3103 
Q 1534 2913 2163 2725 
L 2741 2553 
Q 3375 2363 3645 2067 
Q 3916 1772 3916 1275 
Q 3916 597 3481 253 
Q 3047 -91 2188 -91 
Q 1803 -91 1404 -12 
Q 1006 66 594 225 
z
" transform="scale(0.015625)"/>
       <path id="DejaVuSerif-45" d="M 353 0 
L 353 331 
L 947 331 
L 947 4331 
L 353 4331 
L 353 4666 
L 4109 4666 
L 4109 3628 
L 3725 3628 
L 3725 4281 
L 1581 4281 
L 1581 2719 
L 3109 2719 
L 3109 3303 
L 3494 3303 
L 3494 1753 
L 3109 1753 
L 3109 2338 
L 1581 2338 
L 1581 384 
L 3775 384 
L 3775 1038 
L 4159 1038 
L 4159 0 
L 353 0 
z
" transform="scale(0.015625)"/>
       <path id="DejaVuSerif-49" d="M 1581 331 
L 2175 331 
L 2175 0 
L 353 0 
L 353 331 
L 947 331 
L 947 4331 
L 353 4331 
L 353 4666 
L 2175 4666 
L 2175 4331 
L 1581 4331 
L 1581 331 
z
" transform="scale(0.015625)"/>
       <path id="DejaVuSerif-63" d="M 3291 997 
Q 3169 466 2822 187 
Q 2475 -91 1925 -91 
Q 1200 -91 759 389 
Q 319 869 319 1663 
Q 319 2459 759 2936 
Q 1200 3413 1925 3413 
Q 2241 3413 2553 3339 
Q 2866 3266 3181 3116 
L 3181 2266 
L 2847 2266 
Q 2781 2703 2561 2903 
Q 2341 3103 1931 3103 
Q 1466 3103 1228 2742 
Q 991 2381 991 1663 
Q 991 944 1227 581 
Q 1463 219 1931 219 
Q 2303 219 2525 412 
Q 2747 606 2828 997 
L 3291 997 
z
" transform="scale(0.015625)"/>
       <path id="DejaVuSerif-65" d="M 3469 1600 
L 991 1600 
L 991 1575 
Q 991 903 1244 561 
Q 1497 219 1991 219 
Q 2369 219 2611 417 
Q 2853 616 2950 1006 
L 3413 1006 
Q 3275 459 2904 184 
Q 2534 -91 1931 -91 
Q 1203 -91 761 389 
Q 319 869 319 1663 
Q 319 2450 753 2931 
Q 1188 3413 1894 3413 
Q 2647 3413 3050 2948 
Q 3453 2484 3469 1600 
z
M 2791 1931 
Q 2772 2513 2545 2808 
Q 2319 3103 1894 3103 
Q 1497 3103 1269 2806 
Q 1041 2509 991 1931 
L 2791 1931 
z
" transform="scale(0.015625)"/>
       <path id="DejaVuSerif-61" d="M 2547 1044 
L 2547 1747 
L 1806 1747 
Q 1378 1747 1168 1562 
Q 959 1378 959 997 
Q 959 650 1171 447 
Q 1384 244 1747 244 
Q 2106 244 2326 466 
Q 2547 688 2547 1044 
z
M 3122 2075 
L 3122 331 
L 3634 331 
L 3634 0 
L 2547 0 
L 2547 359 
Q 2356 128 2106 18 
Q 1856 -91 1522 -91 
Q 969 -91 644 203 
Q 319 497 319 997 
Q 319 1513 691 1797 
Q 1063 2081 1741 2081 
L 2547 2081 
L 2547 2309 
Q 2547 2688 2317 2895 
Q 2088 3103 1672 3103 
Q 1328 3103 1125 2947 
Q 922 2791 872 2484 
L 575 2484 
L 575 3156 
Q 875 3284 1158 3348 
Q 1441 3413 1709 3413 
Q 2400 3413 2761 3070 
Q 3122 2728 3122 2075 
z
" transform="scale(0.015625)"/>
       <path id="DejaVuSerif-73" d="M 359 184 
L 359 959 
L 691 959 
Q 703 588 923 403 
Q 1144 219 1575 219 
Q 1963 219 2166 364 
Q 2369 509 2369 788 
Q 2369 1006 2220 1140 
Q 2072 1275 1594 1428 
L 1178 1569 
Q 750 1706 558 1912 
Q 366 2119 366 2438 
Q 366 2894 700 3153 
Q 1034 3413 1625 3413 
Q 1888 3413 2178 3344 
Q 2469 3275 2778 3144 
L 2778 2419 
L 2447 2419 
Q 2434 2741 2221 2922 
Q 2009 3103 1644 3103 
Q 1281 3103 1095 2975 
Q 909 2847 909 2591 
Q 909 2381 1050 2254 
Q 1191 2128 1613 1997 
L 2069 1856 
Q 2541 1709 2748 1489 
Q 2956 1269 2956 922 
Q 2956 450 2595 179 
Q 2234 -91 1600 -91 
Q 1278 -91 972 -22 
Q 666 47 359 184 
z
" transform="scale(0.015625)"/>
      </defs>
      <use xlink:href="#DejaVuSerif-25"/>
      <use xlink:href="#DejaVuSerif-20" x="95.019531"/>
      <use xlink:href="#DejaVuSerif-52" x="126.806641"/>
      <use xlink:href="#DejaVuSerif-4d" x="202.099609"/>
      <use xlink:href="#DejaVuSerif-53" x="304.492188"/>
      <use xlink:href="#DejaVuSerif-45" x="372.998047"/>
      <use xlink:href="#DejaVuSerif-20" x="445.996094"/>
      <use xlink:href="#DejaVuSerif-49" x="477.783203"/>
      <use xlink:href="#DejaVuSerif-6e" x="517.285156"/>
      <use xlink:href="#DejaVuSerif-63" x="581.689453"/>
      <use xlink:href="#DejaVuSerif-72" x="637.695312"/>
      <use xlink:href="#DejaVuSerif-65" x="685.498047"/>
      <use xlink:href="#DejaVuSerif-61" x="744.677734"/>
      <use xlink:href="#DejaVuSerif-73" x="804.296875"/>
      <use xlink:href="#DejaVuSerif-65" x="855.615234"/>
     </g>
    </g>
   </g>
   <g id="patch_3">
    <path d="M 59.729771 426.973986 
L 101.939993 426.973986 
L 101.939993 377.659065 
L 59.729771 377.659065 
z
" clip-path="url(#p4b822dd0fc)" style="fill: #455681; stroke: #000000; stroke-linejoin: miter"/>
   </g>
   <g id="patch_4">
    <path d="M 218.018104 426.973986 
L 260.228326 426.973986 
L 260.228326 343.822997 
L 218.018104 343.822997 
z
" clip-path="url(#p4b822dd0fc)" style="fill: #455681; stroke: #000000; stroke-linejoin: miter"/>
   </g>
   <g id="patch_5">
    <path d="M 376.306438 426.973986 
L 418.51666 426.973986 
L 418.51666 337.993517 
L 376.306438 337.993517 
z
" clip-path="url(#p4b822dd0fc)" style="fill: #455681; stroke: #000000; stroke-linejoin: miter"/>
   </g>
   <g id="patch_6">
    <path d="M 534.594771 426.973986 
L 576.804993 426.973986 
L 576.804993 385.590507 
L 534.594771 385.590507 
z
" clip-path="url(#p4b822dd0fc)" style="fill: #455681; stroke: #000000; stroke-linejoin: miter"/>
   </g>
   <g id="patch_7">
    <path d="M 692.883104 426.973986 
L 735.093326 426.973986 
L 735.093326 330.161409 
L 692.883104 330.161409 
z
" clip-path="url(#p4b822dd0fc)" style="fill: #455681; stroke: #000000; stroke-linejoin: miter"/>
   </g>
   <g id="patch_8">
    <path d="M 851.171437 426.973986 
L 893.38166 426.973986 
L 893.38166 390.565354 
L 851.171437 390.565354 
z
" clip-path="url(#p4b822dd0fc)" style="fill: #455681; stroke: #000000; stroke-linejoin: miter"/>
   </g>
   <g id="patch_9">
    <path d="M 101.939993 426.973986 
L 144.150215 426.973986 
L 144.150215 297.986488 
L 101.939993 297.986488 
z
" clip-path="url(#p4b822dd0fc)" style="fill: #2f837f; stroke: #000000; stroke-linejoin: miter"/>
   </g>
   <g id="patch_10">
    <path d="M 260.228326 426.973986 
L 302.438549 426.973986 
L 302.438549 407.157821 
L 260.228326 407.157821 
z
" clip-path="url(#p4b822dd0fc)" style="fill: #2f837f; stroke: #000000; stroke-linejoin: miter"/>
   </g>
   <g id="patch_11">
    <path d="M 418.51666 426.973986 
L 460.726882 426.973986 
L 460.726882 337.416624 
L 418.51666 337.416624 
z
" clip-path="url(#p4b822dd0fc)" style="fill: #2f837f; stroke: #000000; stroke-linejoin: miter"/>
   </g>
   <g id="patch_12">
    <path d="M 576.804993 426.973986 
L 619.015215 426.973986 
L 619.015215 342.250555 
L 576.804993 342.250555 
z
" clip-path="url(#p4b822dd0fc)" style="fill: #2f837f; stroke: #000000; stroke-linejoin: miter"/>
   </g>
   <g id="patch_13">
    <path d="M 735.093326 426.973986 
L 777.303549 426.973986 
L 777.303549 336.015634 
L 735.093326 336.015634 
z
" clip-path="url(#p4b822dd0fc)" style="fill: #2f837f; stroke: #000000; stroke-linejoin: miter"/>
   </g>
   <g id="patch_14">
    <path d="M 893.38166 426.973986 
L 935.591882 426.973986 
L 935.591882 404.775524 
L 893.38166 404.775524 
z
" clip-path="url(#p4b822dd0fc)" style="fill: #2f837f; stroke: #000000; stroke-linejoin: miter"/>
   </g>
   <g id="patch_15">
    <path d="M 144.150215 426.973986 
L 186.360438 426.973986 
L 186.360438 45.396976 
L 144.150215 45.396976 
z
" clip-path="url(#p4b822dd0fc)" style="fill: #6cbc6e; stroke: #000000; stroke-linejoin: miter"/>
   </g>
   <g id="patch_16">
    <path d="M 302.438549 426.973986 
L 344.648771 426.973986 
L 344.648771 373.618825 
L 302.438549 373.618825 
z
" clip-path="url(#p4b822dd0fc)" style="fill: #6cbc6e; stroke: #000000; stroke-linejoin: miter"/>
   </g>
   <g id="patch_17">
    <path d="M 460.726882 426.973986 
L 502.937104 426.973986 
L 502.937104 275.830845 
L 460.726882 275.830845 
z
" clip-path="url(#p4b822dd0fc)" style="fill: #6cbc6e; stroke: #000000; stroke-linejoin: miter"/>
   </g>
   <g id="patch_18">
    <path d="M 619.015215 426.973986 
L 661.225437 426.973986 
L 661.225437 378.399774 
L 619.015215 378.399774 
z
" clip-path="url(#p4b822dd0fc)" style="fill: #6cbc6e; stroke: #000000; stroke-linejoin: miter"/>
   </g>
   <g id="patch_19">
    <path d="M 777.303549 426.973986 
L 819.513771 426.973986 
L 819.513771 247.22877 
L 777.303549 247.22877 
z
" clip-path="url(#p4b822dd0fc)" style="fill: #6cbc6e; stroke: #000000; stroke-linejoin: miter"/>
   </g>
   <g id="patch_20">
    <path d="M 935.591882 426.973986 
L 977.802104 426.973986 
L 977.802104 384.604991 
L 935.591882 384.604991 
z
" clip-path="url(#p4b822dd0fc)" style="fill: #6cbc6e; stroke: #000000; stroke-linejoin: miter"/>
   </g>
   <g id="patch_21">
    <path d="M 43.900938 426.973986 
L 43.900938 26.318125 
" style="fill: none; stroke: #262626; stroke-width: 0.8; stroke-linejoin: miter; stroke-linecap: square"/>
   </g>
   <g id="patch_22">
    <path d="M 43.900938 426.973986 
L 993.630937 426.973986 
" style="fill: none; stroke: #262626; stroke-width: 0.8; stroke-linejoin: miter; stroke-linecap: square"/>
   </g>
   <g id="text_14">
    <!-- 6.0% -->
    <g style="fill: #262626" transform="translate(70.673007 376.833523) scale(0.08 -0.08)">
     <defs>
      <path id="DejaVuSerif-36" d="M 2094 219 
Q 2534 219 2771 542 
Q 3009 866 3009 1472 
Q 3009 2078 2771 2401 
Q 2534 2725 2094 2725 
Q 1647 2725 1412 2412 
Q 1178 2100 1178 1509 
Q 1178 888 1415 553 
Q 1653 219 2094 219 
z
M 1075 2569 
Q 1288 2803 1556 2918 
Q 1825 3034 2163 3034 
Q 2859 3034 3264 2615 
Q 3669 2197 3669 1472 
Q 3669 763 3233 336 
Q 2797 -91 2069 -91 
Q 1278 -91 853 498 
Q 428 1088 428 2181 
Q 428 3406 931 4078 
Q 1434 4750 2350 4750 
Q 2597 4750 2869 4703 
Q 3141 4656 3425 4563 
L 3425 3794 
L 3072 3794 
Q 3034 4109 2831 4275 
Q 2628 4441 2284 4441 
Q 1678 4441 1381 3981 
Q 1084 3522 1075 2569 
z
" transform="scale(0.015625)"/>
      <path id="DejaVuSerif-2e" d="M 603 325 
Q 603 500 722 622 
Q 841 744 1019 744 
Q 1191 744 1312 622 
Q 1434 500 1434 325 
Q 1434 153 1312 31 
Q 1191 -91 1019 -91 
Q 841 -91 722 29 
Q 603 150 603 325 
z
" transform="scale(0.015625)"/>
     </defs>
     <use xlink:href="#DejaVuSerif-36"/>
     <use xlink:href="#DejaVuSerif-2e" x="63.623047"/>
     <use xlink:href="#DejaVuSerif-30" x="95.410156"/>
     <use xlink:href="#DejaVuSerif-25" x="159.033203"/>
    </g>
   </g>
   <g id="text_15">
    <!-- 10.1% -->
    <g style="fill: #262626" transform="translate(226.41634 342.997456) scale(0.08 -0.08)">
     <use xlink:href="#DejaVuSerif-31"/>
     <use xlink:href="#DejaVuSerif-30" x="63.623047"/>
     <use xlink:href="#DejaVuSerif-2e" x="127.246094"/>
     <use xlink:href="#DejaVuSerif-31" x="159.033203"/>
     <use xlink:href="#DejaVuSerif-25" x="222.65625"/>
    </g>
   </g>
   <g id="text_16">
    <!-- 10.8% -->
    <g style="fill: #262626" transform="translate(384.704674 337.167975) scale(0.08 -0.08)">
     <defs>
      <path id="DejaVuSerif-38" d="M 2981 1275 
Q 2981 1775 2732 2051 
Q 2484 2328 2034 2328 
Q 1584 2328 1336 2051 
Q 1088 1775 1088 1275 
Q 1088 772 1336 495 
Q 1584 219 2034 219 
Q 2484 219 2732 495 
Q 2981 772 2981 1275 
z
M 2853 3541 
Q 2853 3966 2637 4203 
Q 2422 4441 2034 4441 
Q 1650 4441 1433 4203 
Q 1216 3966 1216 3541 
Q 1216 3113 1433 2875 
Q 1650 2638 2034 2638 
Q 2422 2638 2637 2875 
Q 2853 3113 2853 3541 
z
M 2516 2484 
Q 3047 2413 3344 2092 
Q 3641 1772 3641 1275 
Q 3641 619 3225 264 
Q 2809 -91 2034 -91 
Q 1263 -91 845 264 
Q 428 619 428 1275 
Q 428 1772 725 2092 
Q 1022 2413 1556 2484 
Q 1084 2569 832 2842 
Q 581 3116 581 3541 
Q 581 4103 968 4426 
Q 1356 4750 2034 4750 
Q 2713 4750 3100 4426 
Q 3488 4103 3488 3541 
Q 3488 3116 3236 2842 
Q 2984 2569 2516 2484 
z
" transform="scale(0.015625)"/>
     </defs>
     <use xlink:href="#DejaVuSerif-31"/>
     <use xlink:href="#DejaVuSerif-30" x="63.623047"/>
     <use xlink:href="#DejaVuSerif-2e" x="127.246094"/>
     <use xlink:href="#DejaVuSerif-38" x="159.033203"/>
     <use xlink:href="#DejaVuSerif-25" x="222.65625"/>
    </g>
   </g>
   <g id="text_17">
    <!-- 5.0% -->
    <g style="fill: #262626" transform="translate(545.538007 384.764965) scale(0.08 -0.08)">
     <use xlink:href="#DejaVuSerif-35"/>
     <use xlink:href="#DejaVuSerif-2e" x="63.623047"/>
     <use xlink:href="#DejaVuSerif-30" x="95.410156"/>
     <use xlink:href="#DejaVuSerif-25" x="159.033203"/>
    </g>
   </g>
   <g id="text_18">
    <!-- 11.7% -->
    <g style="fill: #262626" transform="translate(701.28134 329.335868) scale(0.08 -0.08)">
     <use xlink:href="#DejaVuSerif-31"/>
     <use xlink:href="#DejaVuSerif-31" x="63.623047"/>
     <use xlink:href="#DejaVuSerif-2e" x="127.246094"/>
     <use xlink:href="#DejaVuSerif-37" x="159.033203"/>
     <use xlink:href="#DejaVuSerif-25" x="222.65625"/>
    </g>
   </g>
   <g id="text_19">
    <!-- 4.4% -->
    <g style="fill: #262626" transform="translate(862.114674 389.739813) scale(0.08 -0.08)">
     <use xlink:href="#DejaVuSerif-34"/>
     <use xlink:href="#DejaVuSerif-2e" x="63.623047"/>
     <use xlink:href="#DejaVuSerif-34" x="95.410156"/>
     <use xlink:href="#DejaVuSerif-25" x="159.033203"/>
    </g>
   </g>
   <g id="text_20">
    <!-- 15.6% -->
    <g style="fill: #262626" transform="translate(110.338229 297.160946) scale(0.08 -0.08)">
     <use xlink:href="#DejaVuSerif-31"/>
     <use xlink:href="#DejaVuSerif-35" x="63.623047"/>
     <use xlink:href="#DejaVuSerif-2e" x="127.246094"/>
     <use xlink:href="#DejaVuSerif-36" x="159.033203"/>
     <use xlink:href="#DejaVuSerif-25" x="222.65625"/>
    </g>
   </g>
   <g id="text_21">
    <!-- 2.4% -->
    <g style="fill: #262626" transform="translate(271.171562 406.33228) scale(0.08 -0.08)">
     <use xlink:href="#DejaVuSerif-32"/>
     <use xlink:href="#DejaVuSerif-2e" x="63.623047"/>
     <use xlink:href="#DejaVuSerif-34" x="95.410156"/>
     <use xlink:href="#DejaVuSerif-25" x="159.033203"/>
    </g>
   </g>
   <g id="text_22">
    <!-- 10.8% -->
    <g style="fill: #262626" transform="translate(426.914896 336.591083) scale(0.08 -0.08)">
     <use xlink:href="#DejaVuSerif-31"/>
     <use xlink:href="#DejaVuSerif-30" x="63.623047"/>
     <use xlink:href="#DejaVuSerif-2e" x="127.246094"/>
     <use xlink:href="#DejaVuSerif-38" x="159.033203"/>
     <use xlink:href="#DejaVuSerif-25" x="222.65625"/>
    </g>
   </g>
   <g id="text_23">
    <!-- 10.3% -->
    <g style="fill: #262626" transform="translate(585.203229 341.425013) scale(0.08 -0.08)">
     <use xlink:href="#DejaVuSerif-31"/>
     <use xlink:href="#DejaVuSerif-30" x="63.623047"/>
     <use xlink:href="#DejaVuSerif-2e" x="127.246094"/>
     <use xlink:href="#DejaVuSerif-33" x="159.033203"/>
     <use xlink:href="#DejaVuSerif-25" x="222.65625"/>
    </g>
   </g>
   <g id="text_24">
    <!-- 11.0% -->
    <g style="fill: #262626" transform="translate(743.491562 335.190092) scale(0.08 -0.08)">
     <use xlink:href="#DejaVuSerif-31"/>
     <use xlink:href="#DejaVuSerif-31" x="63.623047"/>
     <use xlink:href="#DejaVuSerif-2e" x="127.246094"/>
     <use xlink:href="#DejaVuSerif-30" x="159.033203"/>
     <use xlink:href="#DejaVuSerif-25" x="222.65625"/>
    </g>
   </g>
   <g id="text_25">
    <!-- 2.7% -->
    <g style="fill: #262626" transform="translate(904.324896 403.949983) scale(0.08 -0.08)">
     <use xlink:href="#DejaVuSerif-32"/>
     <use xlink:href="#DejaVuSerif-2e" x="63.623047"/>
     <use xlink:href="#DejaVuSerif-37" x="95.410156"/>
     <use xlink:href="#DejaVuSerif-25" x="159.033203"/>
    </g>
   </g>
   <g id="text_26">
    <!-- 46.2% -->
    <g style="fill: #262626" transform="translate(152.548451 44.571434) scale(0.08 -0.08)">
     <use xlink:href="#DejaVuSerif-34"/>
     <use xlink:href="#DejaVuSerif-36" x="63.623047"/>
     <use xlink:href="#DejaVuSerif-2e" x="127.246094"/>
     <use xlink:href="#DejaVuSerif-32" x="159.033203"/>
     <use xlink:href="#DejaVuSerif-25" x="222.65625"/>
    </g>
   </g>
   <g id="text_27">
    <!-- 6.5% -->
    <g style="fill: #262626" transform="translate(313.381785 372.793284) scale(0.08 -0.08)">
     <use xlink:href="#DejaVuSerif-36"/>
     <use xlink:href="#DejaVuSerif-2e" x="63.623047"/>
     <use xlink:href="#DejaVuSerif-35" x="95.410156"/>
     <use xlink:href="#DejaVuSerif-25" x="159.033203"/>
    </g>
   </g>
   <g id="text_28">
    <!-- 18.3% -->
    <g style="fill: #262626" transform="translate(469.125118 275.005303) scale(0.08 -0.08)">
     <use xlink:href="#DejaVuSerif-31"/>
     <use xlink:href="#DejaVuSerif-38" x="63.623047"/>
     <use xlink:href="#DejaVuSerif-2e" x="127.246094"/>
     <use xlink:href="#DejaVuSerif-33" x="159.033203"/>
     <use xlink:href="#DejaVuSerif-25" x="222.65625"/>
    </g>
   </g>
   <g id="text_29">
    <!-- 5.9% -->
    <g style="fill: #262626" transform="translate(629.958451 377.574232) scale(0.08 -0.08)">
     <defs>
      <path id="DejaVuSerif-39" d="M 2994 2091 
Q 2784 1856 2512 1740 
Q 2241 1625 1900 1625 
Q 1206 1625 804 2044 
Q 403 2463 403 3188 
Q 403 3897 839 4323 
Q 1275 4750 2003 4750 
Q 2794 4750 3217 4161 
Q 3641 3572 3641 2478 
Q 3641 1253 3137 581 
Q 2634 -91 1722 -91 
Q 1475 -91 1203 -44 
Q 931 3 647 97 
L 647 872 
L 997 872 
Q 1038 556 1241 387 
Q 1444 219 1784 219 
Q 2391 219 2687 676 
Q 2984 1134 2994 2091 
z
M 1978 4441 
Q 1534 4441 1298 4117 
Q 1063 3794 1063 3188 
Q 1063 2581 1298 2256 
Q 1534 1931 1978 1931 
Q 2422 1931 2658 2245 
Q 2894 2559 2894 3150 
Q 2894 3772 2656 4106 
Q 2419 4441 1978 4441 
z
" transform="scale(0.015625)"/>
     </defs>
     <use xlink:href="#DejaVuSerif-35"/>
     <use xlink:href="#DejaVuSerif-2e" x="63.623047"/>
     <use xlink:href="#DejaVuSerif-39" x="95.410156"/>
     <use xlink:href="#DejaVuSerif-25" x="159.033203"/>
    </g>
   </g>
   <g id="text_30">
    <!-- 21.8% -->
    <g style="fill: #262626" transform="translate(785.701785 246.403229) scale(0.08 -0.08)">
     <use xlink:href="#DejaVuSerif-32"/>
     <use xlink:href="#DejaVuSerif-31" x="63.623047"/>
     <use xlink:href="#DejaVuSerif-2e" x="127.246094"/>
     <use xlink:href="#DejaVuSerif-38" x="159.033203"/>
     <use xlink:href="#DejaVuSerif-25" x="222.65625"/>
    </g>
   </g>
   <g id="text_31">
    <!-- 5.1% -->
    <g style="fill: #262626" transform="translate(946.535118 383.779449) scale(0.08 -0.08)">
     <use xlink:href="#DejaVuSerif-35"/>
     <use xlink:href="#DejaVuSerif-2e" x="63.623047"/>
     <use xlink:href="#DejaVuSerif-31" x="95.410156"/>
     <use xlink:href="#DejaVuSerif-25" x="159.033203"/>
    </g>
   </g>
   <g id="text_32">
    <!-- Component Importance by Horizon -->
    <g style="fill: #262626" transform="translate(411.363125 16.318125) scale(0.12 -0.12)">
     <defs>
      <path id="DejaVuSerif-43" d="M 4513 1234 
Q 4306 581 3820 245 
Q 3334 -91 2591 -91 
Q 2134 -91 1743 65 
Q 1353 222 1050 525 
Q 700 875 529 1320 
Q 359 1766 359 2328 
Q 359 3416 987 4083 
Q 1616 4750 2644 4750 
Q 3025 4750 3456 4650 
Q 3888 4550 4384 4347 
L 4384 3272 
L 4031 3272 
Q 3916 3859 3567 4137 
Q 3219 4416 2591 4416 
Q 1844 4416 1459 3886 
Q 1075 3356 1075 2328 
Q 1075 1303 1459 773 
Q 1844 244 2591 244 
Q 3113 244 3450 492 
Q 3788 741 3938 1234 
L 4513 1234 
z
" transform="scale(0.015625)"/>
      <path id="DejaVuSerif-6d" d="M 3316 2675 
Q 3481 3041 3739 3227 
Q 3997 3413 4341 3413 
Q 4863 3413 5119 3089 
Q 5375 2766 5375 2113 
L 5375 331 
L 5894 331 
L 5894 0 
L 4300 0 
L 4300 331 
L 4800 331 
L 4800 2047 
Q 4800 2556 4650 2772 
Q 4500 2988 4153 2988 
Q 3769 2988 3567 2697 
Q 3366 2406 3366 1850 
L 3366 331 
L 3866 331 
L 3866 0 
L 2291 0 
L 2291 331 
L 2791 331 
L 2791 2069 
Q 2791 2566 2641 2777 
Q 2491 2988 2144 2988 
Q 1759 2988 1557 2697 
Q 1356 2406 1356 1850 
L 1356 331 
L 1856 331 
L 1856 0 
L 263 0 
L 263 331 
L 781 331 
L 781 2994 
L 231 2994 
L 231 3322 
L 1356 3322 
L 1356 2731 
Q 1516 3063 1762 3238 
Q 2009 3413 2322 3413 
Q 2709 3413 2968 3220 
Q 3228 3028 3316 2675 
z
" transform="scale(0.015625)"/>
      <path id="DejaVuSerif-70" d="M 1313 1825 
L 1313 1497 
Q 1313 897 1542 583 
Q 1772 269 2209 269 
Q 2650 269 2876 622 
Q 3103 975 3103 1663 
Q 3103 2353 2876 2703 
Q 2650 3053 2209 3053 
Q 1772 3053 1542 2737 
Q 1313 2422 1313 1825 
z
M 738 2988 
L 184 2988 
L 184 3322 
L 1313 3322 
L 1313 2803 
Q 1481 3116 1742 3264 
Q 2003 3413 2388 3413 
Q 3000 3413 3387 2928 
Q 3775 2444 3775 1663 
Q 3775 881 3387 395 
Q 3000 -91 2388 -91 
Q 2003 -91 1742 57 
Q 1481 206 1313 519 
L 1313 -997 
L 1856 -997 
L 1856 -1331 
L 184 -1331 
L 184 -997 
L 738 -997 
L 738 2988 
z
" transform="scale(0.015625)"/>
      <path id="DejaVuSerif-74" d="M 691 2988 
L 184 2988 
L 184 3322 
L 691 3322 
L 691 4353 
L 1269 4353 
L 1269 3322 
L 2350 3322 
L 2350 2988 
L 1269 2988 
L 1269 878 
Q 1269 456 1350 337 
Q 1431 219 1650 219 
Q 1875 219 1978 351 
Q 2081 484 2088 781 
L 2522 781 
Q 2497 328 2275 118 
Q 2053 -91 1600 -91 
Q 1103 -91 897 129 
Q 691 350 691 878 
L 691 2988 
z
" transform="scale(0.015625)"/>
      <path id="DejaVuSerif-62" d="M 738 331 
L 738 4531 
L 184 4531 
L 184 4863 
L 1313 4863 
L 1313 2803 
Q 1481 3116 1742 3264 
Q 2003 3413 2388 3413 
Q 3000 3413 3387 2928 
Q 3775 2444 3775 1663 
Q 3775 881 3387 395 
Q 3000 -91 2388 -91 
Q 2003 -91 1742 57 
Q 1481 206 1313 519 
L 1313 0 
L 184 0 
L 184 331 
L 738 331 
z
M 1313 1497 
Q 1313 897 1542 583 
Q 1772 269 2209 269 
Q 2650 269 2876 622 
Q 3103 975 3103 1663 
Q 3103 2353 2876 2703 
Q 2650 3053 2209 3053 
Q 1772 3053 1542 2737 
Q 1313 2422 1313 1825 
L 1313 1497 
z
" transform="scale(0.015625)"/>
      <path id="DejaVuSerif-79" d="M 1381 -609 
L 1600 -56 
L 359 2988 
L -19 2988 
L -19 3322 
L 1509 3322 
L 1509 2988 
L 978 2988 
L 1913 703 
L 2847 2988 
L 2350 2988 
L 2350 3322 
L 3597 3322 
L 3597 2988 
L 3225 2988 
L 1703 -750 
Q 1547 -1138 1356 -1280 
Q 1166 -1422 819 -1422 
Q 672 -1422 517 -1397 
Q 363 -1372 206 -1325 
L 206 -691 
L 500 -691 
Q 519 -903 608 -995 
Q 697 -1088 884 -1088 
Q 1056 -1088 1161 -992 
Q 1266 -897 1381 -609 
z
" transform="scale(0.015625)"/>
     </defs>
     <use xlink:href="#DejaVuSerif-43"/>
     <use xlink:href="#DejaVuSerif-6f" x="76.513672"/>
     <use xlink:href="#DejaVuSerif-6d" x="136.71875"/>
     <use xlink:href="#DejaVuSerif-70" x="231.542969"/>
     <use xlink:href="#DejaVuSerif-6f" x="295.556641"/>
     <use xlink:href="#DejaVuSerif-6e" x="355.761719"/>
     <use xlink:href="#DejaVuSerif-65" x="420.166016"/>
     <use xlink:href="#DejaVuSerif-6e" x="479.345703"/>
     <use xlink:href="#DejaVuSerif-74" x="543.75"/>
     <use xlink:href="#DejaVuSerif-20" x="583.935547"/>
     <use xlink:href="#DejaVuSerif-49" x="615.722656"/>
     <use xlink:href="#DejaVuSerif-6d" x="655.224609"/>
     <use xlink:href="#DejaVuSerif-70" x="750.048828"/>
     <use xlink:href="#DejaVuSerif-6f" x="814.0625"/>
     <use xlink:href="#DejaVuSerif-72" x="874.267578"/>
     <use xlink:href="#DejaVuSerif-74" x="922.070312"/>
     <use xlink:href="#DejaVuSerif-61" x="962.255859"/>
     <use xlink:href="#DejaVuSerif-6e" x="1021.875"/>
     <use xlink:href="#DejaVuSerif-63" x="1086.279297"/>
     <use xlink:href="#DejaVuSerif-65" x="1142.285156"/>
     <use xlink:href="#DejaVuSerif-20" x="1201.464844"/>
     <use xlink:href="#DejaVuSerif-62" x="1233.251953"/>
     <use xlink:href="#DejaVuSerif-79" x="1297.265625"/>
     <use xlink:href="#DejaVuSerif-20" x="1353.759766"/>
     <use xlink:href="#DejaVuSerif-48" x="1385.546875"/>
     <use xlink:href="#DejaVuSerif-6f" x="1472.753906"/>
     <use xlink:href="#DejaVuSerif-72" x="1532.958984"/>
     <use xlink:href="#DejaVuSerif-69" x="1580.761719"/>
     <use xlink:href="#DejaVuSerif-7a" x="1612.744141"/>
     <use xlink:href="#DejaVuSerif-6f" x="1665.429688"/>
     <use xlink:href="#DejaVuSerif-6e" x="1725.634766"/>
    </g>
   </g>
   <g id="legend_1">
    <g id="text_33">
     <!-- Component -->
     <g style="fill: #262626" transform="translate(844.635547 42.016562) scale(0.1 -0.1)">
      <use xlink:href="#DejaVuSerif-43"/>
      <use xlink:href="#DejaVuSerif-6f" x="76.513672"/>
      <use xlink:href="#DejaVuSerif-6d" x="136.71875"/>
      <use xlink:href="#DejaVuSerif-70" x="231.542969"/>
      <use xlink:href="#DejaVuSerif-6f" x="295.556641"/>
      <use xlink:href="#DejaVuSerif-6e" x="355.761719"/>
      <use xlink:href="#DejaVuSerif-65" x="420.166016"/>
      <use xlink:href="#DejaVuSerif-6e" x="479.345703"/>
      <use xlink:href="#DejaVuSerif-74" x="543.75"/>
     </g>
    </g>
    <g id="patch_23">
     <path d="M 762.135469 55.434844 
L 775.635469 55.434844 
L 775.635469 49.134844 
L 762.135469 49.134844 
z
" style="fill: #455681; stroke: #000000; stroke-linejoin: miter"/>
    </g>
    <g id="text_34">
     <!-- Low-Rank Adaptive Graph Attention Module -->
     <g style="fill: #262626" transform="translate(782.835469 55.434844) scale(0.09 -0.09)">
      <defs>
       <path id="DejaVuSerif-4c" d="M 353 0 
L 353 331 
L 947 331 
L 947 4331 
L 353 4331 
L 353 4666 
L 2175 4666 
L 2175 4331 
L 1581 4331 
L 1581 384 
L 3713 384 
L 3713 1166 
L 4097 1166 
L 4097 0 
L 353 0 
z
" transform="scale(0.015625)"/>
       <path id="DejaVuSerif-77" d="M 3072 3322 
L 3922 728 
L 4672 2988 
L 4191 2988 
L 4191 3322 
L 5394 3322 
L 5394 2988 
L 5025 2988 
L 4038 0 
L 3559 0 
L 2741 2484 
L 1919 0 
L 1459 0 
L 475 2988 
L 103 2988 
L 103 3322 
L 1606 3322 
L 1606 2988 
L 1069 2988 
L 1813 728 
L 2669 3322 
L 3072 3322 
z
" transform="scale(0.015625)"/>
       <path id="DejaVuSerif-2d" d="M 281 1959 
L 1881 1959 
L 1881 1472 
L 281 1472 
L 281 1959 
z
" transform="scale(0.015625)"/>
       <path id="DejaVuSerif-6b" d="M 1831 0 
L 219 0 
L 219 331 
L 738 331 
L 738 4531 
L 184 4531 
L 184 4863 
L 1313 4863 
L 1313 1697 
L 2713 2988 
L 2234 2988 
L 2234 3322 
L 3738 3322 
L 3738 2988 
L 3169 2988 
L 2181 2075 
L 3444 331 
L 3922 331 
L 3922 0 
L 2284 0 
L 2284 331 
L 2759 331 
L 1766 1697 
L 1313 1275 
L 1313 331 
L 1831 331 
L 1831 0 
z
" transform="scale(0.015625)"/>
       <path id="DejaVuSerif-41" d="M 1281 1691 
L 2994 1691 
L 2138 3909 
L 1281 1691 
z
M -38 0 
L -38 331 
L 372 331 
L 2034 4666 
L 2559 4666 
L 4225 331 
L 4684 331 
L 4684 0 
L 2988 0 
L 2988 331 
L 3506 331 
L 3116 1356 
L 1153 1356 
L 763 331 
L 1275 331 
L 1275 0 
L -38 0 
z
" transform="scale(0.015625)"/>
       <path id="DejaVuSerif-64" d="M 3359 331 
L 3909 331 
L 3909 0 
L 2784 0 
L 2784 519 
Q 2616 206 2355 57 
Q 2094 -91 1709 -91 
Q 1097 -91 708 395 
Q 319 881 319 1663 
Q 319 2444 706 2928 
Q 1094 3413 1709 3413 
Q 2094 3413 2355 3264 
Q 2616 3116 2784 2803 
L 2784 4531 
L 2241 4531 
L 2241 4863 
L 3359 4863 
L 3359 331 
z
M 2784 1497 
L 2784 1825 
Q 2784 2422 2554 2737 
Q 2325 3053 1888 3053 
Q 1444 3053 1217 2703 
Q 991 2353 991 1663 
Q 991 975 1217 622 
Q 1444 269 1888 269 
Q 2325 269 2554 583 
Q 2784 897 2784 1497 
z
" transform="scale(0.015625)"/>
       <path id="DejaVuSerif-76" d="M 1581 0 
L 359 2988 
L -19 2988 
L -19 3322 
L 1509 3322 
L 1509 2988 
L 978 2988 
L 1913 703 
L 2847 2988 
L 2350 2988 
L 2350 3322 
L 3597 3322 
L 3597 2988 
L 3225 2988 
L 2003 0 
L 1581 0 
z
" transform="scale(0.015625)"/>
       <path id="DejaVuSerif-47" d="M 4097 3272 
Q 3988 3856 3641 4136 
Q 3294 4416 2675 4416 
Q 1869 4416 1472 3897 
Q 1075 3378 1075 2328 
Q 1075 1300 1484 772 
Q 1894 244 2688 244 
Q 3041 244 3362 331 
Q 3684 419 3975 594 
L 3975 1797 
L 3097 1797 
L 3097 2131 
L 4609 2131 
L 4609 391 
Q 4194 150 3714 29 
Q 3234 -91 2688 -91 
Q 1631 -91 995 570 
Q 359 1231 359 2328 
Q 359 3434 996 4092 
Q 1634 4750 2713 4750 
Q 3113 4750 3539 4658 
Q 3966 4566 4447 4378 
L 4447 3272 
L 4097 3272 
z
" transform="scale(0.015625)"/>
       <path id="DejaVuSerif-68" d="M 263 0 
L 263 331 
L 781 331 
L 781 4531 
L 231 4531 
L 231 4863 
L 1356 4863 
L 1356 2731 
Q 1516 3069 1770 3241 
Q 2025 3413 2363 3413 
Q 2913 3413 3172 3097 
Q 3431 2781 3431 2113 
L 3431 331 
L 3944 331 
L 3944 0 
L 2356 0 
L 2356 331 
L 2853 331 
L 2853 1931 
Q 2853 2541 2704 2764 
Q 2556 2988 2175 2988 
Q 1775 2988 1565 2697 
Q 1356 2406 1356 1850 
L 1356 331 
L 1856 331 
L 1856 0 
L 263 0 
z
" transform="scale(0.015625)"/>
       <path id="DejaVuSerif-75" d="M 2266 3322 
L 3341 3322 
L 3341 331 
L 3884 331 
L 3884 0 
L 2766 0 
L 2766 588 
Q 2606 256 2353 82 
Q 2100 -91 1766 -91 
Q 1213 -91 952 223 
Q 691 538 691 1209 
L 691 2988 
L 172 2988 
L 172 3322 
L 1269 3322 
L 1269 1388 
Q 1269 781 1417 556 
Q 1566 331 1947 331 
Q 2347 331 2556 625 
Q 2766 919 2766 1478 
L 2766 2988 
L 2266 2988 
L 2266 3322 
z
" transform="scale(0.015625)"/>
       <path id="DejaVuSerif-6c" d="M 1313 331 
L 1856 331 
L 1856 0 
L 184 0 
L 184 331 
L 738 331 
L 738 4531 
L 184 4531 
L 184 4863 
L 1313 4863 
L 1313 331 
z
" transform="scale(0.015625)"/>
      </defs>
      <use xlink:href="#DejaVuSerif-4c"/>
      <use xlink:href="#DejaVuSerif-6f" x="66.40625"/>
      <use xlink:href="#DejaVuSerif-77" x="126.611328"/>
      <use xlink:href="#DejaVuSerif-2d" x="212.207031"/>
      <use xlink:href="#DejaVuSerif-52" x="245.996094"/>
      <use xlink:href="#DejaVuSerif-61" x="323.539062"/>
      <use xlink:href="#DejaVuSerif-6e" x="383.158203"/>
      <use xlink:href="#DejaVuSerif-6b" x="447.5625"/>
      <use xlink:href="#DejaVuSerif-20" x="508.158203"/>
      <use xlink:href="#DejaVuSerif-41" x="539.945312"/>
      <use xlink:href="#DejaVuSerif-64" x="612.162109"/>
      <use xlink:href="#DejaVuSerif-61" x="676.175781"/>
      <use xlink:href="#DejaVuSerif-70" x="735.794922"/>
      <use xlink:href="#DejaVuSerif-74" x="799.808594"/>
      <use xlink:href="#DejaVuSerif-69" x="839.994141"/>
      <use xlink:href="#DejaVuSerif-76" x="871.976562"/>
      <use xlink:href="#DejaVuSerif-65" x="928.470703"/>
      <use xlink:href="#DejaVuSerif-20" x="987.650391"/>
      <use xlink:href="#DejaVuSerif-47" x="1019.4375"/>
      <use xlink:href="#DejaVuSerif-72" x="1099.320312"/>
      <use xlink:href="#DejaVuSerif-61" x="1147.123047"/>
      <use xlink:href="#DejaVuSerif-70" x="1206.742188"/>
      <use xlink:href="#DejaVuSerif-68" x="1270.755859"/>
      <use xlink:href="#DejaVuSerif-20" x="1335.160156"/>
      <use xlink:href="#DejaVuSerif-41" x="1366.947266"/>
      <use xlink:href="#DejaVuSerif-74" x="1437.414062"/>
      <use xlink:href="#DejaVuSerif-74" x="1477.599609"/>
      <use xlink:href="#DejaVuSerif-65" x="1517.785156"/>
      <use xlink:href="#DejaVuSerif-6e" x="1576.964844"/>
      <use xlink:href="#DejaVuSerif-74" x="1641.369141"/>
      <use xlink:href="#DejaVuSerif-69" x="1681.554688"/>
      <use xlink:href="#DejaVuSerif-6f" x="1713.537109"/>
      <use xlink:href="#DejaVuSerif-6e" x="1773.742188"/>
      <use xlink:href="#DejaVuSerif-20" x="1838.146484"/>
      <use xlink:href="#DejaVuSerif-4d" x="1869.933594"/>
      <use xlink:href="#DejaVuSerif-6f" x="1972.326172"/>
      <use xlink:href="#DejaVuSerif-64" x="2032.53125"/>
      <use xlink:href="#DejaVuSerif-75" x="2096.544922"/>
      <use xlink:href="#DejaVuSerif-6c" x="2160.949219"/>
      <use xlink:href="#DejaVuSerif-65" x="2192.931641"/>
     </g>
    </g>
    <g id="patch_24">
     <path d="M 762.135469 68.645156 
L 775.635469 68.645156 
L 775.635469 62.345156 
L 762.135469 62.345156 
z
" style="fill: #2f837f; stroke: #000000; stroke-linejoin: miter"/>
    </g>
    <g id="text_35">
     <!-- Multi-scale Temporal Fusion Module -->
     <g style="fill: #262626" transform="translate(782.835469 68.645156) scale(0.09 -0.09)">
      <defs>
       <path id="DejaVuSerif-54" d="M 1222 0 
L 1222 331 
L 1819 331 
L 1819 4294 
L 447 4294 
L 447 3566 
L 63 3566 
L 63 4666 
L 4206 4666 
L 4206 3566 
L 3822 3566 
L 3822 4294 
L 2450 4294 
L 2450 331 
L 3047 331 
L 3047 0 
L 1222 0 
z
" transform="scale(0.015625)"/>
       <path id="DejaVuSerif-46" d="M 353 0 
L 353 331 
L 947 331 
L 947 4331 
L 353 4331 
L 353 4666 
L 4172 4666 
L 4172 3628 
L 3788 3628 
L 3788 4281 
L 1581 4281 
L 1581 2719 
L 3175 2719 
L 3175 3303 
L 3559 3303 
L 3559 1753 
L 3175 1753 
L 3175 2338 
L 1581 2338 
L 1581 331 
L 2328 331 
L 2328 0 
L 353 0 
z
" transform="scale(0.015625)"/>
      </defs>
      <use xlink:href="#DejaVuSerif-4d"/>
      <use xlink:href="#DejaVuSerif-75" x="102.392578"/>
      <use xlink:href="#DejaVuSerif-6c" x="166.796875"/>
      <use xlink:href="#DejaVuSerif-74" x="198.779297"/>
      <use xlink:href="#DejaVuSerif-69" x="238.964844"/>
      <use xlink:href="#DejaVuSerif-2d" x="270.947266"/>
      <use xlink:href="#DejaVuSerif-73" x="304.736328"/>
      <use xlink:href="#DejaVuSerif-63" x="356.054688"/>
      <use xlink:href="#DejaVuSerif-61" x="412.060547"/>
      <use xlink:href="#DejaVuSerif-6c" x="471.679688"/>
      <use xlink:href="#DejaVuSerif-65" x="503.662109"/>
      <use xlink:href="#DejaVuSerif-20" x="562.841797"/>
      <use xlink:href="#DejaVuSerif-54" x="594.628906"/>
      <use xlink:href="#DejaVuSerif-65" x="653.578125"/>
      <use xlink:href="#DejaVuSerif-6d" x="712.757812"/>
      <use xlink:href="#DejaVuSerif-70" x="807.582031"/>
      <use xlink:href="#DejaVuSerif-6f" x="871.595703"/>
      <use xlink:href="#DejaVuSerif-72" x="931.800781"/>
      <use xlink:href="#DejaVuSerif-61" x="979.603516"/>
      <use xlink:href="#DejaVuSerif-6c" x="1039.222656"/>
      <use xlink:href="#DejaVuSerif-20" x="1071.205078"/>
      <use xlink:href="#DejaVuSerif-46" x="1102.992188"/>
      <use xlink:href="#DejaVuSerif-75" x="1172.376953"/>
      <use xlink:href="#DejaVuSerif-73" x="1236.78125"/>
      <use xlink:href="#DejaVuSerif-69" x="1288.099609"/>
      <use xlink:href="#DejaVuSerif-6f" x="1320.082031"/>
      <use xlink:href="#DejaVuSerif-6e" x="1380.287109"/>
      <use xlink:href="#DejaVuSerif-20" x="1444.691406"/>
      <use xlink:href="#DejaVuSerif-4d" x="1476.478516"/>
      <use xlink:href="#DejaVuSerif-6f" x="1578.871094"/>
      <use xlink:href="#DejaVuSerif-64" x="1639.076172"/>
      <use xlink:href="#DejaVuSerif-75" x="1703.089844"/>
      <use xlink:href="#DejaVuSerif-6c" x="1767.494141"/>
      <use xlink:href="#DejaVuSerif-65" x="1799.476562"/>
     </g>
    </g>
    <g id="patch_25">
     <path d="M 762.135469 81.855469 
L 775.635469 81.855469 
L 775.635469 75.555469 
L 762.135469 75.555469 
z
" style="fill: #6cbc6e; stroke: #000000; stroke-linejoin: miter"/>
    </g>
    <g id="text_36">
     <!-- Progressive Prediction Refinement Module -->
     <g style="fill: #262626" transform="translate(782.835469 81.855469) scale(0.09 -0.09)">
      <defs>
       <path id="DejaVuSerif-50" d="M 1581 2375 
L 2406 2375 
Q 2872 2375 3115 2626 
Q 3359 2878 3359 3353 
Q 3359 3831 3115 4081 
Q 2872 4331 2406 4331 
L 1581 4331 
L 1581 2375 
z
M 353 0 
L 353 331 
L 947 331 
L 947 4331 
L 353 4331 
L 353 4666 
L 2559 4666 
Q 3259 4666 3668 4311 
Q 4078 3956 4078 3353 
Q 4078 2753 3668 2397 
Q 3259 2041 2559 2041 
L 1581 2041 
L 1581 331 
L 2303 331 
L 2303 0 
L 353 0 
z
" transform="scale(0.015625)"/>
       <path id="DejaVuSerif-67" d="M 3359 2988 
L 3359 72 
Q 3359 -644 2965 -1033 
Q 2572 -1422 1844 -1422 
Q 1516 -1422 1216 -1362 
Q 916 -1303 641 -1184 
L 641 -488 
L 941 -488 
Q 997 -813 1206 -963 
Q 1416 -1113 1806 -1113 
Q 2313 -1113 2548 -827 
Q 2784 -541 2784 72 
L 2784 519 
Q 2616 206 2355 57 
Q 2094 -91 1709 -91 
Q 1097 -91 708 395 
Q 319 881 319 1663 
Q 319 2444 706 2928 
Q 1094 3413 1709 3413 
Q 2094 3413 2355 3264 
Q 2616 3116 2784 2803 
L 2784 3322 
L 3909 3322 
L 3909 2988 
L 3359 2988 
z
M 2784 1825 
Q 2784 2422 2554 2737 
Q 2325 3053 1888 3053 
Q 1444 3053 1217 2703 
Q 991 2353 991 1663 
Q 991 975 1217 622 
Q 1444 269 1888 269 
Q 2325 269 2554 583 
Q 2784 897 2784 1497 
L 2784 1825 
z
" transform="scale(0.015625)"/>
       <path id="DejaVuSerif-66" d="M 2753 4078 
L 2450 4078 
Q 2447 4313 2317 4434 
Q 2188 4556 1941 4556 
Q 1619 4556 1487 4379 
Q 1356 4203 1356 3750 
L 1356 3322 
L 2284 3322 
L 2284 2988 
L 1356 2988 
L 1356 331 
L 2094 331 
L 2094 0 
L 231 0 
L 231 331 
L 781 331 
L 781 2988 
L 231 2988 
L 231 3322 
L 781 3322 
L 781 3738 
Q 781 4294 1070 4578 
Q 1359 4863 1919 4863 
Q 2128 4863 2337 4825 
Q 2547 4788 2753 4709 
L 2753 4078 
z
" transform="scale(0.015625)"/>
      </defs>
      <use xlink:href="#DejaVuSerif-50"/>
      <use xlink:href="#DejaVuSerif-72" x="67.285156"/>
      <use xlink:href="#DejaVuSerif-6f" x="115.087891"/>
      <use xlink:href="#DejaVuSerif-67" x="175.292969"/>
      <use xlink:href="#DejaVuSerif-72" x="239.306641"/>
      <use xlink:href="#DejaVuSerif-65" x="287.109375"/>
      <use xlink:href="#DejaVuSerif-73" x="346.289062"/>
      <use xlink:href="#DejaVuSerif-73" x="397.607422"/>
      <use xlink:href="#DejaVuSerif-69" x="448.925781"/>
      <use xlink:href="#DejaVuSerif-76" x="480.908203"/>
      <use xlink:href="#DejaVuSerif-65" x="537.402344"/>
      <use xlink:href="#DejaVuSerif-20" x="596.582031"/>
      <use xlink:href="#DejaVuSerif-50" x="628.369141"/>
      <use xlink:href="#DejaVuSerif-72" x="695.654297"/>
      <use xlink:href="#DejaVuSerif-65" x="743.457031"/>
      <use xlink:href="#DejaVuSerif-64" x="802.636719"/>
      <use xlink:href="#DejaVuSerif-69" x="866.650391"/>
      <use xlink:href="#DejaVuSerif-63" x="898.632812"/>
      <use xlink:href="#DejaVuSerif-74" x="954.638672"/>
      <use xlink:href="#DejaVuSerif-69" x="994.824219"/>
      <use xlink:href="#DejaVuSerif-6f" x="1026.806641"/>
      <use xlink:href="#DejaVuSerif-6e" x="1087.011719"/>
      <use xlink:href="#DejaVuSerif-20" x="1151.416016"/>
      <use xlink:href="#DejaVuSerif-52" x="1183.203125"/>
      <use xlink:href="#DejaVuSerif-65" x="1258.496094"/>
      <use xlink:href="#DejaVuSerif-66" x="1317.675781"/>
      <use xlink:href="#DejaVuSerif-69" x="1354.6875"/>
      <use xlink:href="#DejaVuSerif-6e" x="1386.669922"/>
      <use xlink:href="#DejaVuSerif-65" x="1451.074219"/>
      <use xlink:href="#DejaVuSerif-6d" x="1510.253906"/>
      <use xlink:href="#DejaVuSerif-65" x="1605.078125"/>
      <use xlink:href="#DejaVuSerif-6e" x="1664.257812"/>
      <use xlink:href="#DejaVuSerif-74" x="1728.662109"/>
      <use xlink:href="#DejaVuSerif-20" x="1768.847656"/>
      <use xlink:href="#DejaVuSerif-4d" x="1800.634766"/>
      <use xlink:href="#DejaVuSerif-6f" x="1903.027344"/>
      <use xlink:href="#DejaVuSerif-64" x="1963.232422"/>
      <use xlink:href="#DejaVuSerif-75" x="2027.246094"/>
      <use xlink:href="#DejaVuSerif-6c" x="2091.650391"/>
      <use xlink:href="#DejaVuSerif-65" x="2123.632812"/>
     </g>
    </g>
   </g>
  </g>
  <g id="axes_2">
   <g id="patch_26">
    <path d="M 43.900938 901.673597 
L 993.630938 901.673597 
L 993.630938 501.017736 
L 43.900938 501.017736 
z
" style="fill: #ffffff"/>
   </g>
   <g id="matplotlib.axis_3">
    <g id="xtick_7">
     <g id="line2d_12">
      <g>
       <use xlink:href="#m220e71dce3" x="162.617188" y="901.673597" style="fill: #262626; stroke: #262626"/>
      </g>
     </g>
     <g id="text_37">
      <!-- JAPAN -->
      <g style="fill: #262626" transform="translate(140.280679 935.022217) rotate(-45) scale(0.09 -0.09)">
       <defs>
        <path id="DejaVuSerif-4a" d="M -538 -1119 
L -538 -384 
L -181 -384 
Q -172 -694 -34 -845 
Q 103 -997 378 -997 
Q 750 -997 897 -762 
Q 1044 -528 1044 153 
L 1044 4331 
L 319 4331 
L 319 4666 
L 2272 4666 
L 2272 4331 
L 1678 4331 
L 1678 128 
Q 1678 -644 1368 -987 
Q 1059 -1331 372 -1331 
Q 150 -1331 -79 -1278 
Q -309 -1225 -538 -1119 
z
" transform="scale(0.015625)"/>
        <path id="DejaVuSerif-4e" d="M 313 0 
L 313 331 
L 941 331 
L 941 4331 
L 313 4331 
L 313 4666 
L 1509 4666 
L 4306 984 
L 4306 4331 
L 3681 4331 
L 3681 4666 
L 5319 4666 
L 5319 4331 
L 4691 4331 
L 4691 -91 
L 4313 -91 
L 1325 3841 
L 1325 331 
L 1953 331 
L 1953 0 
L 313 0 
z
" transform="scale(0.015625)"/>
       </defs>
       <use xlink:href="#DejaVuSerif-4a"/>
       <use xlink:href="#DejaVuSerif-41" x="40.087891"/>
       <use xlink:href="#DejaVuSerif-50" x="112.304688"/>
       <use xlink:href="#DejaVuSerif-41" x="170.464844"/>
       <use xlink:href="#DejaVuSerif-4e" x="242.681641"/>
      </g>
     </g>
    </g>
    <g id="xtick_8">
     <g id="line2d_13">
      <g>
       <use xlink:href="#m220e71dce3" x="400.049688" y="901.673597" style="fill: #262626; stroke: #262626"/>
      </g>
     </g>
     <g id="text_38">
      <!-- REGION785 -->
      <g style="fill: #262626" transform="translate(358.757524 953.977871) rotate(-45) scale(0.09 -0.09)">
       <defs>
        <path id="DejaVuSerif-4f" d="M 2625 244 
Q 3391 244 3781 770 
Q 4172 1297 4172 2328 
Q 4172 3363 3781 3889 
Q 3391 4416 2625 4416 
Q 1856 4416 1465 3889 
Q 1075 3363 1075 2328 
Q 1075 1297 1465 770 
Q 1856 244 2625 244 
z
M 2625 -91 
Q 2150 -91 1751 65 
Q 1353 222 1050 525 
Q 700 875 529 1319 
Q 359 1763 359 2328 
Q 359 2894 529 3339 
Q 700 3784 1050 4134 
Q 1356 4441 1750 4595 
Q 2144 4750 2625 4750 
Q 3641 4750 4266 4084 
Q 4891 3419 4891 2328 
Q 4891 1769 4719 1320 
Q 4547 872 4197 525 
Q 3891 219 3497 64 
Q 3103 -91 2625 -91 
z
" transform="scale(0.015625)"/>
       </defs>
       <use xlink:href="#DejaVuSerif-52"/>
       <use xlink:href="#DejaVuSerif-45" x="75.292969"/>
       <use xlink:href="#DejaVuSerif-47" x="148.291016"/>
       <use xlink:href="#DejaVuSerif-49" x="228.173828"/>
       <use xlink:href="#DejaVuSerif-4f" x="267.675781"/>
       <use xlink:href="#DejaVuSerif-4e" x="349.658203"/>
       <use xlink:href="#DejaVuSerif-37" x="437.158203"/>
       <use xlink:href="#DejaVuSerif-38" x="500.78125"/>
       <use xlink:href="#DejaVuSerif-35" x="564.404297"/>
      </g>
     </g>
    </g>
    <g id="xtick_9">
     <g id="line2d_14">
      <g>
       <use xlink:href="#m220e71dce3" x="637.482188" y="901.673597" style="fill: #262626; stroke: #262626"/>
      </g>
     </g>
     <g id="text_39">
      <!-- NHS_TIMESERIES -->
      <g style="fill: #262626" transform="translate(574.086198 975.792337) rotate(-45) scale(0.09 -0.09)">
       <defs>
        <path id="DejaVuSerif-5f" d="M 3200 -1259 
L 3200 -1509 
L 0 -1509 
L 0 -1259 
L 3200 -1259 
z
" transform="scale(0.015625)"/>
       </defs>
       <use xlink:href="#DejaVuSerif-4e"/>
       <use xlink:href="#DejaVuSerif-48" x="87.5"/>
       <use xlink:href="#DejaVuSerif-53" x="174.707031"/>
       <use xlink:href="#DejaVuSerif-5f" x="243.212891"/>
       <use xlink:href="#DejaVuSerif-54" x="293.212891"/>
       <use xlink:href="#DejaVuSerif-49" x="359.912109"/>
       <use xlink:href="#DejaVuSerif-4d" x="399.414062"/>
       <use xlink:href="#DejaVuSerif-45" x="501.806641"/>
       <use xlink:href="#DejaVuSerif-53" x="574.804688"/>
       <use xlink:href="#DejaVuSerif-45" x="643.310547"/>
       <use xlink:href="#DejaVuSerif-52" x="716.308594"/>
       <use xlink:href="#DejaVuSerif-49" x="791.601562"/>
       <use xlink:href="#DejaVuSerif-45" x="831.103516"/>
       <use xlink:href="#DejaVuSerif-53" x="904.101562"/>
      </g>
     </g>
    </g>
    <g id="xtick_10">
     <g id="line2d_15">
      <g>
       <use xlink:href="#m220e71dce3" x="874.914688" y="901.673597" style="fill: #262626; stroke: #262626"/>
      </g>
     </g>
     <g id="text_40">
      <!-- LTLA_TIMESERIES -->
      <g style="fill: #262626" transform="translate(810.220052 977.090982) rotate(-45) scale(0.09 -0.09)">
       <use xlink:href="#DejaVuSerif-4c"/>
       <use xlink:href="#DejaVuSerif-54" x="58.28125"/>
       <use xlink:href="#DejaVuSerif-4c" x="124.980469"/>
       <use xlink:href="#DejaVuSerif-41" x="191.386719"/>
       <use xlink:href="#DejaVuSerif-5f" x="263.603516"/>
       <use xlink:href="#DejaVuSerif-54" x="313.603516"/>
       <use xlink:href="#DejaVuSerif-49" x="380.302734"/>
       <use xlink:href="#DejaVuSerif-4d" x="419.804688"/>
       <use xlink:href="#DejaVuSerif-45" x="522.197266"/>
       <use xlink:href="#DejaVuSerif-53" x="595.195312"/>
       <use xlink:href="#DejaVuSerif-45" x="663.701172"/>
       <use xlink:href="#DejaVuSerif-52" x="736.699219"/>
       <use xlink:href="#DejaVuSerif-49" x="811.992188"/>
       <use xlink:href="#DejaVuSerif-45" x="851.494141"/>
       <use xlink:href="#DejaVuSerif-53" x="924.492188"/>
      </g>
     </g>
    </g>
    <g id="text_41">
     <!-- Dataset -->
     <g style="fill: #262626" transform="translate(497.299609 990.949766) scale(0.11 -0.11)">
      <defs>
       <path id="DejaVuSerif-44" d="M 1581 331 
L 2163 331 
Q 3072 331 3558 850 
Q 4044 1369 4044 2338 
Q 4044 3306 3559 3818 
Q 3075 4331 2163 4331 
L 1581 4331 
L 1581 331 
z
M 353 0 
L 353 331 
L 947 331 
L 947 4331 
L 353 4331 
L 353 4666 
L 2209 4666 
Q 3416 4666 4089 4050 
Q 4763 3434 4763 2338 
Q 4763 1238 4088 619 
Q 3413 0 2209 0 
L 353 0 
z
" transform="scale(0.015625)"/>
      </defs>
      <use xlink:href="#DejaVuSerif-44"/>
      <use xlink:href="#DejaVuSerif-61" x="80.175781"/>
      <use xlink:href="#DejaVuSerif-74" x="139.794922"/>
      <use xlink:href="#DejaVuSerif-61" x="179.980469"/>
      <use xlink:href="#DejaVuSerif-73" x="239.599609"/>
      <use xlink:href="#DejaVuSerif-65" x="290.917969"/>
      <use xlink:href="#DejaVuSerif-74" x="350.097656"/>
     </g>
    </g>
   </g>
   <g id="matplotlib.axis_4">
    <g id="ytick_6">
     <g id="line2d_16">
      <g>
       <use xlink:href="#mf0b63ef224" x="43.900938" y="901.673597" style="fill: #262626; stroke: #262626"/>
      </g>
     </g>
     <g id="text_42">
      <!-- 0 -->
      <g style="fill: #262626" transform="translate(30.674688 905.092894) scale(0.09 -0.09)">
       <use xlink:href="#DejaVuSerif-30"/>
      </g>
     </g>
    </g>
    <g id="ytick_7">
     <g id="line2d_17">
      <g>
       <use xlink:href="#mf0b63ef224" x="43.900938" y="826.429235" style="fill: #262626; stroke: #262626"/>
      </g>
     </g>
     <g id="text_43">
      <!-- 10 -->
      <g style="fill: #262626" transform="translate(24.948438 829.848532) scale(0.09 -0.09)">
       <use xlink:href="#DejaVuSerif-31"/>
       <use xlink:href="#DejaVuSerif-30" x="63.623047"/>
      </g>
     </g>
    </g>
    <g id="ytick_8">
     <g id="line2d_18">
      <g>
       <use xlink:href="#mf0b63ef224" x="43.900938" y="751.184873" style="fill: #262626; stroke: #262626"/>
      </g>
     </g>
     <g id="text_44">
      <!-- 20 -->
      <g style="fill: #262626" transform="translate(24.948438 754.60417) scale(0.09 -0.09)">
       <use xlink:href="#DejaVuSerif-32"/>
       <use xlink:href="#DejaVuSerif-30" x="63.623047"/>
      </g>
     </g>
    </g>
    <g id="ytick_9">
     <g id="line2d_19">
      <g>
       <use xlink:href="#mf0b63ef224" x="43.900938" y="675.940511" style="fill: #262626; stroke: #262626"/>
      </g>
     </g>
     <g id="text_45">
      <!-- 30 -->
      <g style="fill: #262626" transform="translate(24.948438 679.359808) scale(0.09 -0.09)">
       <use xlink:href="#DejaVuSerif-33"/>
       <use xlink:href="#DejaVuSerif-30" x="63.623047"/>
      </g>
     </g>
    </g>
    <g id="ytick_10">
     <g id="line2d_20">
      <g>
       <use xlink:href="#mf0b63ef224" x="43.900938" y="600.696149" style="fill: #262626; stroke: #262626"/>
      </g>
     </g>
     <g id="text_46">
      <!-- 40 -->
      <g style="fill: #262626" transform="translate(24.948438 604.115446) scale(0.09 -0.09)">
       <use xlink:href="#DejaVuSerif-34"/>
       <use xlink:href="#DejaVuSerif-30" x="63.623047"/>
      </g>
     </g>
    </g>
    <g id="ytick_11">
     <g id="line2d_21">
      <g>
       <use xlink:href="#mf0b63ef224" x="43.900938" y="525.451787" style="fill: #262626; stroke: #262626"/>
      </g>
     </g>
     <g id="text_47">
      <!-- 50 -->
      <g style="fill: #262626" transform="translate(24.948438 528.871084) scale(0.09 -0.09)">
       <use xlink:href="#DejaVuSerif-35"/>
       <use xlink:href="#DejaVuSerif-30" x="63.623047"/>
      </g>
     </g>
    </g>
    <g id="text_48">
     <!-- % RMSE Change -->
     <g style="fill: #262626" transform="translate(17.837812 766.460979) rotate(-90) scale(0.14 -0.14)">
      <defs>
       <path id="DejaVuSerif-Bold-25" d="M 1381 4434 
Q 1181 4434 1093 4217 
Q 1006 4000 1006 3481 
Q 1006 2959 1093 2740 
Q 1181 2522 1381 2522 
Q 1584 2522 1671 2740 
Q 1759 2959 1759 3481 
Q 1759 4000 1671 4217 
Q 1584 4434 1381 4434 
z
M 1381 4750 
Q 1978 4750 2295 4423 
Q 2613 4097 2613 3481 
Q 2613 2866 2295 2537 
Q 1978 2209 1381 2209 
Q 788 2209 470 2537 
Q 153 2866 153 3481 
Q 153 4097 470 4423 
Q 788 4750 1381 4750 
z
M 4231 4750 
L 4769 4750 
L 1850 -91 
L 1313 -91 
L 4231 4750 
z
M 4697 2450 
Q 5294 2450 5609 2123 
Q 5925 1797 5925 1184 
Q 5925 569 5609 239 
Q 5294 -91 4697 -91 
Q 4103 -91 3786 239 
Q 3469 569 3469 1184 
Q 3469 1797 3786 2123 
Q 4103 2450 4697 2450 
z
M 4697 2138 
Q 4494 2138 4406 1920 
Q 4319 1703 4319 1184 
Q 4319 663 4408 444 
Q 4497 225 4697 225 
Q 4900 225 4987 444 
Q 5075 663 5075 1184 
Q 5075 1703 4987 1920 
Q 4900 2138 4697 2138 
z
" transform="scale(0.015625)"/>
       <path id="DejaVuSerif-Bold-20" transform="scale(0.015625)"/>
       <path id="DejaVuSerif-Bold-52" d="M 3397 2278 
Q 3675 2238 3865 2094 
Q 4056 1950 4197 1678 
L 4878 378 
L 5356 378 
L 5356 0 
L 3822 0 
L 3078 1409 
Q 2863 1847 2711 1967 
Q 2559 2088 2291 2088 
L 2100 2088 
L 2100 378 
L 2700 378 
L 2700 0 
L 300 0 
L 300 378 
L 897 378 
L 897 4288 
L 300 4288 
L 300 4666 
L 2963 4666 
Q 3775 4666 4217 4339 
Q 4659 4013 4659 3413 
Q 4659 2925 4345 2642 
Q 4031 2359 3397 2278 
z
M 2100 2463 
L 2509 2463 
Q 2947 2463 3183 2700 
Q 3419 2938 3419 3378 
Q 3419 3819 3183 4053 
Q 2947 4288 2509 4288 
L 2100 4288 
L 2100 2463 
z
" transform="scale(0.015625)"/>
       <path id="DejaVuSerif-Bold-4d" d="M 269 0 
L 269 378 
L 863 378 
L 863 4288 
L 269 4288 
L 269 4666 
L 2194 4666 
L 3525 1672 
L 4863 4666 
L 6784 4666 
L 6784 4288 
L 6188 4288 
L 6188 378 
L 6784 378 
L 6784 0 
L 4384 0 
L 4384 378 
L 4978 378 
L 4978 3938 
L 3531 684 
L 2741 684 
L 1300 3938 
L 1300 378 
L 1894 378 
L 1894 0 
L 269 0 
z
" transform="scale(0.015625)"/>
       <path id="DejaVuSerif-Bold-53" d="M 494 225 
L 494 1331 
L 891 1331 
Q 981 806 1318 547 
Q 1656 288 2253 288 
Q 2738 288 2991 472 
Q 3244 656 3244 1013 
Q 3244 1294 3072 1450 
Q 2900 1606 2363 1741 
L 1663 1913 
Q 978 2088 700 2398 
Q 422 2709 422 3284 
Q 422 3978 883 4364 
Q 1344 4750 2175 4750 
Q 2584 4750 3026 4681 
Q 3469 4613 3944 4475 
L 3944 3444 
L 3547 3444 
Q 3456 3925 3150 4148 
Q 2844 4372 2278 4372 
Q 1816 4372 1580 4211 
Q 1344 4050 1344 3731 
Q 1344 3441 1506 3289 
Q 1669 3138 2303 2975 
L 3003 2803 
Q 3653 2641 3945 2297 
Q 4238 1953 4238 1350 
Q 4238 644 3750 276 
Q 3263 -91 2316 -91 
Q 1859 -91 1409 -12 
Q 959 66 494 225 
z
" transform="scale(0.015625)"/>
       <path id="DejaVuSerif-Bold-45" d="M 300 0 
L 300 378 
L 897 378 
L 897 4288 
L 300 4288 
L 300 4666 
L 4494 4666 
L 4494 3566 
L 4063 3566 
L 4063 4238 
L 2100 4238 
L 2100 2741 
L 3322 2741 
L 3322 3334 
L 3750 3334 
L 3750 1722 
L 3322 1722 
L 3322 2316 
L 2100 2316 
L 2100 428 
L 4122 428 
L 4122 1100 
L 4550 1100 
L 4550 0 
L 300 0 
z
" transform="scale(0.015625)"/>
       <path id="DejaVuSerif-Bold-43" d="M 4769 1331 
Q 4584 609 4106 259 
Q 3628 -91 2822 -91 
Q 1641 -91 955 561 
Q 269 1213 269 2328 
Q 269 3447 955 4098 
Q 1641 4750 2822 4750 
Q 3238 4750 3688 4650 
Q 4138 4550 4641 4347 
L 4641 3200 
L 4244 3200 
Q 4122 3788 3800 4080 
Q 3478 4372 2950 4372 
Q 2269 4372 1937 3870 
Q 1606 3369 1606 2328 
Q 1606 1288 1937 788 
Q 2269 288 2956 288 
Q 3422 288 3717 547 
Q 4013 806 4147 1331 
L 4769 1331 
z
" transform="scale(0.015625)"/>
       <path id="DejaVuSerif-Bold-68" d="M 219 0 
L 219 378 
L 691 378 
L 691 4488 
L 197 4488 
L 197 4863 
L 1797 4863 
L 1797 2853 
Q 1997 3150 2253 3281 
Q 2509 3413 2900 3413 
Q 3459 3413 3745 3083 
Q 4031 2753 4031 2113 
L 4031 378 
L 4506 378 
L 4506 0 
L 2522 0 
L 2522 378 
L 2925 378 
L 2925 2144 
Q 2925 2566 2817 2730 
Q 2709 2894 2444 2894 
Q 2109 2894 1953 2648 
Q 1797 2403 1797 1869 
L 1797 378 
L 2203 378 
L 2203 0 
L 219 0 
z
" transform="scale(0.015625)"/>
       <path id="DejaVuSerif-Bold-61" d="M 3525 2041 
L 3525 378 
L 4000 378 
L 4000 0 
L 2419 0 
L 2419 422 
Q 2200 159 1931 34 
Q 1663 -91 1319 -91 
Q 809 -91 536 182 
Q 263 456 263 966 
Q 263 1525 655 1803 
Q 1047 2081 1838 2081 
L 2419 2081 
L 2419 2278 
Q 2419 2681 2228 2873 
Q 2038 3066 1638 3066 
Q 1306 3066 1126 2930 
Q 947 2794 872 2484 
L 519 2484 
L 519 3200 
Q 816 3306 1134 3359 
Q 1453 3413 1806 3413 
Q 2697 3413 3111 3081 
Q 3525 2750 3525 2041 
z
M 2419 1044 
L 2419 1709 
L 2003 1709 
Q 1694 1709 1528 1540 
Q 1363 1372 1363 1056 
Q 1363 741 1483 584 
Q 1603 428 1850 428 
Q 2106 428 2262 597 
Q 2419 766 2419 1044 
z
" transform="scale(0.015625)"/>
       <path id="DejaVuSerif-Bold-6e" d="M 219 0 
L 219 378 
L 691 378 
L 691 2944 
L 219 2944 
L 219 3322 
L 1797 3322 
L 1797 2853 
Q 1997 3150 2253 3281 
Q 2509 3413 2900 3413 
Q 3459 3413 3745 3083 
Q 4031 2753 4031 2113 
L 4031 378 
L 4506 378 
L 4506 0 
L 2522 0 
L 2522 378 
L 2925 378 
L 2925 2144 
Q 2925 2566 2817 2730 
Q 2709 2894 2444 2894 
Q 2109 2894 1953 2648 
Q 1797 2403 1797 1869 
L 1797 378 
L 2203 378 
L 2203 0 
L 219 0 
z
" transform="scale(0.015625)"/>
       <path id="DejaVuSerif-Bold-67" d="M 3853 2944 
L 3853 44 
Q 3853 -656 3354 -1039 
Q 2856 -1422 1947 -1422 
Q 1616 -1422 1275 -1370 
Q 934 -1319 575 -1216 
L 575 -422 
L 928 -422 
Q 975 -750 1192 -909 
Q 1409 -1069 1813 -1069 
Q 2325 -1069 2536 -823 
Q 2747 -578 2747 44 
L 2747 422 
Q 2606 163 2367 36 
Q 2128 -91 1778 -91 
Q 1072 -91 667 378 
Q 263 847 263 1663 
Q 263 2481 667 2947 
Q 1072 3413 1778 3413 
Q 2128 3413 2367 3286 
Q 2606 3159 2747 2900 
L 2747 3322 
L 4325 3322 
L 4325 2944 
L 3853 2944 
z
M 2747 1825 
Q 2747 2406 2597 2665 
Q 2447 2925 2119 2925 
Q 1775 2925 1636 2651 
Q 1497 2378 1497 1663 
Q 1497 947 1637 672 
Q 1778 397 2119 397 
Q 2447 397 2597 656 
Q 2747 916 2747 1497 
L 2747 1825 
z
" transform="scale(0.015625)"/>
       <path id="DejaVuSerif-Bold-65" d="M 2566 1875 
Q 2566 2531 2444 2795 
Q 2322 3059 2028 3059 
Q 1744 3059 1620 2800 
Q 1497 2541 1497 1931 
L 1497 1875 
L 2566 1875 
z
M 3781 1503 
L 1497 1503 
L 1497 1478 
Q 1497 834 1690 548 
Q 1884 263 2316 263 
Q 2675 263 2897 453 
Q 3119 644 3181 1006 
L 3700 1006 
Q 3566 441 3166 175 
Q 2766 -91 2047 -91 
Q 1184 -91 723 364 
Q 263 819 263 1663 
Q 263 2488 734 2950 
Q 1206 3413 2047 3413 
Q 2872 3413 3312 2927 
Q 3753 2441 3781 1503 
z
" transform="scale(0.015625)"/>
      </defs>
      <use xlink:href="#DejaVuSerif-Bold-25"/>
      <use xlink:href="#DejaVuSerif-Bold-20" x="95.019531"/>
      <use xlink:href="#DejaVuSerif-Bold-52" x="129.833984"/>
      <use xlink:href="#DejaVuSerif-Bold-4d" x="212.939453"/>
      <use xlink:href="#DejaVuSerif-Bold-53" x="323.632812"/>
      <use xlink:href="#DejaVuSerif-Bold-45" x="395.849609"/>
      <use xlink:href="#DejaVuSerif-Bold-20" x="472.070312"/>
      <use xlink:href="#DejaVuSerif-Bold-43" x="506.884766"/>
      <use xlink:href="#DejaVuSerif-Bold-68" x="586.474609"/>
      <use xlink:href="#DejaVuSerif-Bold-61" x="659.179688"/>
      <use xlink:href="#DejaVuSerif-Bold-6e" x="723.974609"/>
      <use xlink:href="#DejaVuSerif-Bold-67" x="796.679688"/>
      <use xlink:href="#DejaVuSerif-Bold-65" x="866.601562"/>
     </g>
    </g>
   </g>
   <g id="patch_27">
    <path d="M 67.644187 901.673597 
L 130.959521 901.673597 
L 130.959521 859.096741 
L 67.644187 859.096741 
z
" clip-path="url(#p2a7411f8df)" style="fill: #7da9c7; stroke: #000000; stroke-width: 0.8; stroke-linejoin: miter"/>
   </g>
   <g id="patch_28">
    <path d="M 305.076687 901.673597 
L 368.392021 901.673597 
L 368.392021 833.70216 
L 305.076687 833.70216 
z
" clip-path="url(#p2a7411f8df)" style="fill: #7da9c7; stroke: #000000; stroke-width: 0.8; stroke-linejoin: miter"/>
   </g>
   <g id="patch_29">
    <path d="M 542.509188 901.673597 
L 605.824521 901.673597 
L 605.824521 789.795263 
L 542.509188 789.795263 
z
" clip-path="url(#p2a7411f8df)" style="fill: #7da9c7; stroke: #000000; stroke-width: 0.8; stroke-linejoin: miter"/>
   </g>
   <g id="patch_30">
    <path d="M 779.941688 901.673597 
L 843.257021 901.673597 
L 843.257021 890.329057 
L 779.941688 890.329057 
z
" clip-path="url(#p2a7411f8df)" style="fill: #7da9c7; stroke: #000000; stroke-width: 0.8; stroke-linejoin: miter"/>
   </g>
   <g id="patch_31">
    <path d="M 130.959521 901.673597 
L 194.274854 901.673597 
L 194.274854 876.18809 
L 130.959521 876.18809 
z
" clip-path="url(#p2a7411f8df)" style="fill: #4884af; stroke: #000000; stroke-width: 0.8; stroke-linejoin: miter"/>
   </g>
   <g id="patch_32">
    <path d="M 368.392021 901.673597 
L 431.707354 901.673597 
L 431.707354 851.480019 
L 368.392021 851.480019 
z
" clip-path="url(#p2a7411f8df)" style="fill: #4884af; stroke: #000000; stroke-width: 0.8; stroke-linejoin: miter"/>
   </g>
   <g id="patch_33">
    <path d="M 605.824521 901.673597 
L 669.139854 901.673597 
L 669.139854 667.217963 
L 605.824521 667.217963 
z
" clip-path="url(#p2a7411f8df)" style="fill: #4884af; stroke: #000000; stroke-width: 0.8; stroke-linejoin: miter"/>
   </g>
   <g id="patch_34">
    <path d="M 843.257021 901.673597 
L 906.572354 901.673597 
L 906.572354 893.581089 
L 843.257021 893.581089 
z
" clip-path="url(#p2a7411f8df)" style="fill: #4884af; stroke: #000000; stroke-width: 0.8; stroke-linejoin: miter"/>
   </g>
   <g id="patch_35">
    <path d="M 194.274854 901.673597 
L 257.590188 901.673597 
L 257.590188 858.398088 
L 194.274854 858.398088 
z
" clip-path="url(#p2a7411f8df)" style="fill: #3d5b70; stroke: #000000; stroke-width: 0.8; stroke-linejoin: miter"/>
   </g>
   <g id="patch_36">
    <path d="M 431.707354 901.673597 
L 495.022688 901.673597 
L 495.022688 848.229426 
L 431.707354 848.229426 
z
" clip-path="url(#p2a7411f8df)" style="fill: #3d5b70; stroke: #000000; stroke-width: 0.8; stroke-linejoin: miter"/>
   </g>
   <g id="patch_37">
    <path d="M 669.139854 901.673597 
L 732.455188 901.673597 
L 732.455188 520.096586 
L 669.139854 520.096586 
z
" clip-path="url(#p2a7411f8df)" style="fill: #3d5b70; stroke: #000000; stroke-width: 0.8; stroke-linejoin: miter"/>
   </g>
   <g id="patch_38">
    <path d="M 906.572354 901.673597 
L 969.887687 901.673597 
L 969.887687 659.749234 
L 906.572354 659.749234 
z
" clip-path="url(#p2a7411f8df)" style="fill: #3d5b70; stroke: #000000; stroke-width: 0.8; stroke-linejoin: miter"/>
   </g>
   <g id="patch_39">
    <path d="M 43.900938 901.673597 
L 43.900938 501.017736 
" style="fill: none; stroke: #262626; stroke-width: 0.8; stroke-linejoin: miter; stroke-linecap: square"/>
   </g>
   <g id="patch_40">
    <path d="M 43.900937 901.673597 
L 993.630938 901.673597 
" style="fill: none; stroke: #262626; stroke-width: 0.8; stroke-linejoin: miter; stroke-linecap: square"/>
   </g>
   <g id="text_49">
    <!-- 5.7% -->
    <g style="fill: #262626" transform="translate(89.139979 858.344297) scale(0.08 -0.08)">
     <use xlink:href="#DejaVuSerif-35"/>
     <use xlink:href="#DejaVuSerif-2e" x="63.623047"/>
     <use xlink:href="#DejaVuSerif-37" x="95.410156"/>
     <use xlink:href="#DejaVuSerif-25" x="159.033203"/>
    </g>
   </g>
   <g id="text_50">
    <!-- 9.0% -->
    <g style="fill: #262626" transform="translate(326.572479 832.949717) scale(0.08 -0.08)">
     <use xlink:href="#DejaVuSerif-39"/>
     <use xlink:href="#DejaVuSerif-2e" x="63.623047"/>
     <use xlink:href="#DejaVuSerif-30" x="95.410156"/>
     <use xlink:href="#DejaVuSerif-25" x="159.033203"/>
    </g>
   </g>
   <g id="text_51">
    <!-- 14.9% -->
    <g style="fill: #262626" transform="translate(561.459979 789.042819) scale(0.08 -0.08)">
     <use xlink:href="#DejaVuSerif-31"/>
     <use xlink:href="#DejaVuSerif-34" x="63.623047"/>
     <use xlink:href="#DejaVuSerif-2e" x="127.246094"/>
     <use xlink:href="#DejaVuSerif-39" x="159.033203"/>
     <use xlink:href="#DejaVuSerif-25" x="222.65625"/>
    </g>
   </g>
   <g id="text_52">
    <!-- 1.5% -->
    <g style="fill: #262626" transform="translate(801.437479 889.576614) scale(0.08 -0.08)">
     <use xlink:href="#DejaVuSerif-31"/>
     <use xlink:href="#DejaVuSerif-2e" x="63.623047"/>
     <use xlink:href="#DejaVuSerif-35" x="95.410156"/>
     <use xlink:href="#DejaVuSerif-25" x="159.033203"/>
    </g>
   </g>
   <g id="text_53">
    <!-- 3.4% -->
    <g style="fill: #262626" transform="translate(152.455312 875.435646) scale(0.08 -0.08)">
     <use xlink:href="#DejaVuSerif-33"/>
     <use xlink:href="#DejaVuSerif-2e" x="63.623047"/>
     <use xlink:href="#DejaVuSerif-34" x="95.410156"/>
     <use xlink:href="#DejaVuSerif-25" x="159.033203"/>
    </g>
   </g>
   <g id="text_54">
    <!-- 6.7% -->
    <g style="fill: #262626" transform="translate(389.887812 850.727575) scale(0.08 -0.08)">
     <use xlink:href="#DejaVuSerif-36"/>
     <use xlink:href="#DejaVuSerif-2e" x="63.623047"/>
     <use xlink:href="#DejaVuSerif-37" x="95.410156"/>
     <use xlink:href="#DejaVuSerif-25" x="159.033203"/>
    </g>
   </g>
   <g id="text_55">
    <!-- 31.2% -->
    <g style="fill: #262626" transform="translate(624.775313 666.465519) scale(0.08 -0.08)">
     <use xlink:href="#DejaVuSerif-33"/>
     <use xlink:href="#DejaVuSerif-31" x="63.623047"/>
     <use xlink:href="#DejaVuSerif-2e" x="127.246094"/>
     <use xlink:href="#DejaVuSerif-32" x="159.033203"/>
     <use xlink:href="#DejaVuSerif-25" x="222.65625"/>
    </g>
   </g>
   <g id="text_56">
    <!-- 1.1% -->
    <g style="fill: #262626" transform="translate(864.752813 892.828645) scale(0.08 -0.08)">
     <use xlink:href="#DejaVuSerif-31"/>
     <use xlink:href="#DejaVuSerif-2e" x="63.623047"/>
     <use xlink:href="#DejaVuSerif-31" x="95.410156"/>
     <use xlink:href="#DejaVuSerif-25" x="159.033203"/>
    </g>
   </g>
   <g id="text_57">
    <!-- 5.8% -->
    <g style="fill: #262626" transform="translate(215.770646 857.645645) scale(0.08 -0.08)">
     <use xlink:href="#DejaVuSerif-35"/>
     <use xlink:href="#DejaVuSerif-2e" x="63.623047"/>
     <use xlink:href="#DejaVuSerif-38" x="95.410156"/>
     <use xlink:href="#DejaVuSerif-25" x="159.033203"/>
    </g>
   </g>
   <g id="text_58">
    <!-- 7.1% -->
    <g style="fill: #262626" transform="translate(453.203146 847.476983) scale(0.08 -0.08)">
     <use xlink:href="#DejaVuSerif-37"/>
     <use xlink:href="#DejaVuSerif-2e" x="63.623047"/>
     <use xlink:href="#DejaVuSerif-31" x="95.410156"/>
     <use xlink:href="#DejaVuSerif-25" x="159.033203"/>
    </g>
   </g>
   <g id="text_59">
    <!-- 50.7% -->
    <g style="fill: #262626" transform="translate(688.090646 519.344143) scale(0.08 -0.08)">
     <use xlink:href="#DejaVuSerif-35"/>
     <use xlink:href="#DejaVuSerif-30" x="63.623047"/>
     <use xlink:href="#DejaVuSerif-2e" x="127.246094"/>
     <use xlink:href="#DejaVuSerif-37" x="159.033203"/>
     <use xlink:href="#DejaVuSerif-25" x="222.65625"/>
    </g>
   </g>
   <g id="text_60">
    <!-- 32.2% -->
    <g style="fill: #262626" transform="translate(925.523146 658.99679) scale(0.08 -0.08)">
     <use xlink:href="#DejaVuSerif-33"/>
     <use xlink:href="#DejaVuSerif-32" x="63.623047"/>
     <use xlink:href="#DejaVuSerif-2e" x="127.246094"/>
     <use xlink:href="#DejaVuSerif-32" x="159.033203"/>
     <use xlink:href="#DejaVuSerif-25" x="222.65625"/>
    </g>
   </g>
   <g id="text_61">
    <!-- Component Importance Across Different Datasets -->
    <g style="fill: #262626" transform="translate(294.905938 481.017736) scale(0.16 -0.16)">
     <defs>
      <path id="DejaVuSerif-Bold-6f" d="M 2138 263 
Q 2488 263 2630 563 
Q 2772 863 2772 1663 
Q 2772 2463 2631 2761 
Q 2491 3059 2138 3059 
Q 1784 3059 1640 2757 
Q 1497 2456 1497 1663 
Q 1497 869 1640 566 
Q 1784 263 2138 263 
z
M 2138 -91 
Q 1259 -91 761 376 
Q 263 844 263 1663 
Q 263 2484 761 2948 
Q 1259 3413 2138 3413 
Q 3019 3413 3516 2948 
Q 4013 2484 4013 1663 
Q 4013 844 3514 376 
Q 3016 -91 2138 -91 
z
" transform="scale(0.015625)"/>
      <path id="DejaVuSerif-Bold-6d" d="M 3884 2778 
Q 4116 3109 4384 3261 
Q 4653 3413 5013 3413 
Q 5584 3413 5867 3089 
Q 6150 2766 6150 2113 
L 6150 378 
L 6625 378 
L 6625 0 
L 4647 0 
L 4647 378 
L 5044 378 
L 5044 1947 
Q 5044 2569 4948 2731 
Q 4853 2894 4594 2894 
Q 4300 2894 4137 2667 
Q 3975 2441 3975 2022 
L 3975 378 
L 4372 378 
L 4372 0 
L 2472 0 
L 2472 378 
L 2869 378 
L 2869 1947 
Q 2869 2569 2772 2731 
Q 2675 2894 2419 2894 
Q 2122 2894 1959 2667 
Q 1797 2441 1797 2022 
L 1797 378 
L 2194 378 
L 2194 0 
L 219 0 
L 219 378 
L 691 378 
L 691 2944 
L 219 2944 
L 219 3322 
L 1797 3322 
L 1797 2853 
Q 1991 3144 2241 3278 
Q 2491 3413 2834 3413 
Q 3241 3413 3494 3258 
Q 3747 3103 3884 2778 
z
" transform="scale(0.015625)"/>
      <path id="DejaVuSerif-Bold-70" d="M 1728 1825 
L 1728 1497 
Q 1728 916 1876 656 
Q 2025 397 2356 397 
Q 2697 397 2836 672 
Q 2975 947 2975 1663 
Q 2975 2378 2836 2651 
Q 2697 2925 2356 2925 
Q 2025 2925 1876 2665 
Q 1728 2406 1728 1825 
z
M 622 2944 
L 147 2944 
L 147 3322 
L 1728 3322 
L 1728 2900 
Q 1869 3159 2106 3286 
Q 2344 3413 2694 3413 
Q 3403 3413 3811 2945 
Q 4219 2478 4219 1663 
Q 4219 847 3811 378 
Q 3403 -91 2694 -91 
Q 2344 -91 2106 36 
Q 1869 163 1728 422 
L 1728 -953 
L 2241 -953 
L 2241 -1331 
L 147 -1331 
L 147 -953 
L 622 -953 
L 622 2944 
z
" transform="scale(0.015625)"/>
      <path id="DejaVuSerif-Bold-74" d="M 634 2944 
L 153 2944 
L 153 3322 
L 634 3322 
L 634 4353 
L 1741 4353 
L 1741 3322 
L 2663 3322 
L 2663 2944 
L 1741 2944 
L 1741 909 
Q 1741 475 1809 369 
Q 1878 263 2059 263 
Q 2259 263 2356 397 
Q 2453 531 2459 813 
L 2925 813 
Q 2897 313 2651 111 
Q 2406 -91 1806 -91 
Q 1122 -91 878 123 
Q 634 338 634 909 
L 634 2944 
z
" transform="scale(0.015625)"/>
      <path id="DejaVuSerif-Bold-49" d="M 300 0 
L 300 378 
L 897 378 
L 897 4288 
L 300 4288 
L 300 4666 
L 2700 4666 
L 2700 4288 
L 2100 4288 
L 2100 378 
L 2700 378 
L 2700 0 
L 300 0 
z
" transform="scale(0.015625)"/>
      <path id="DejaVuSerif-Bold-72" d="M 3438 3359 
L 3438 2369 
L 3084 2369 
Q 3066 2634 2941 2764 
Q 2816 2894 2578 2894 
Q 2216 2894 2006 2575 
Q 1797 2256 1797 1691 
L 1797 378 
L 2400 378 
L 2400 0 
L 219 0 
L 219 378 
L 691 378 
L 691 2944 
L 184 2944 
L 184 3322 
L 1797 3322 
L 1797 2731 
Q 1959 3078 2226 3245 
Q 2494 3413 2881 3413 
Q 2978 3413 3117 3398 
Q 3256 3384 3438 3359 
z
" transform="scale(0.015625)"/>
      <path id="DejaVuSerif-Bold-63" d="M 3609 1038 
Q 3491 469 3123 189 
Q 2756 -91 2125 -91 
Q 1238 -91 750 368 
Q 263 828 263 1663 
Q 263 2488 744 2950 
Q 1225 3413 2081 3413 
Q 2428 3413 2781 3347 
Q 3134 3281 3500 3150 
L 3500 2228 
L 3150 2228 
Q 3100 2650 2903 2854 
Q 2706 3059 2350 3059 
Q 1888 3059 1692 2746 
Q 1497 2434 1497 1663 
Q 1497 909 1687 586 
Q 1878 263 2309 263 
Q 2644 263 2845 463 
Q 3047 663 3091 1038 
L 3609 1038 
z
" transform="scale(0.015625)"/>
      <path id="DejaVuSerif-Bold-41" d="M -50 0 
L -50 378 
L 331 378 
L 2088 4666 
L 2834 4666 
L 4594 378 
L 5038 378 
L 5038 0 
L 2853 0 
L 2853 378 
L 3309 378 
L 2925 1331 
L 1172 1331 
L 781 378 
L 1338 378 
L 1338 0 
L -50 0 
z
M 1325 1709 
L 2772 1709 
L 2053 3494 
L 1325 1709 
z
" transform="scale(0.015625)"/>
      <path id="DejaVuSerif-Bold-73" d="M 300 97 
L 300 1025 
L 653 1025 
Q 697 653 931 458 
Q 1166 263 1569 263 
Q 1906 263 2086 380 
Q 2266 497 2266 716 
Q 2266 916 2152 1025 
Q 2038 1134 1709 1216 
L 1253 1331 
Q 738 1459 506 1698 
Q 275 1938 275 2344 
Q 275 2884 650 3148 
Q 1025 3413 1806 3413 
Q 2100 3413 2433 3364 
Q 2766 3316 3169 3213 
L 3169 2375 
L 2816 2375 
Q 2788 2716 2573 2887 
Q 2359 3059 1959 3059 
Q 1622 3059 1448 2951 
Q 1275 2844 1275 2638 
Q 1275 2469 1375 2372 
Q 1475 2275 1734 2209 
L 2188 2094 
Q 2841 1928 3091 1684 
Q 3341 1441 3341 1006 
Q 3341 444 2939 176 
Q 2538 -91 1691 -91 
Q 1381 -91 1034 -44 
Q 688 3 300 97 
z
" transform="scale(0.015625)"/>
      <path id="DejaVuSerif-Bold-44" d="M 2100 378 
L 2534 378 
Q 3266 378 3605 847 
Q 3944 1316 3944 2338 
Q 3944 3353 3606 3820 
Q 3269 4288 2534 4288 
L 2100 4288 
L 2100 378 
z
M 300 0 
L 300 378 
L 897 378 
L 897 4288 
L 300 4288 
L 300 4666 
L 2694 4666 
Q 3950 4666 4615 4066 
Q 5281 3466 5281 2338 
Q 5281 1203 4614 601 
Q 3947 0 2694 0 
L 300 0 
z
" transform="scale(0.015625)"/>
      <path id="DejaVuSerif-Bold-69" d="M 588 4263 
Q 588 4516 763 4689 
Q 938 4863 1191 4863 
Q 1438 4863 1611 4689 
Q 1784 4516 1784 4263 
Q 1784 4016 1611 3842 
Q 1438 3669 1191 3669 
Q 938 3669 763 3841 
Q 588 4013 588 4263 
z
M 1797 378 
L 2272 378 
L 2272 0 
L 219 0 
L 219 378 
L 691 378 
L 691 2944 
L 219 2944 
L 219 3322 
L 1797 3322 
L 1797 378 
z
" transform="scale(0.015625)"/>
      <path id="DejaVuSerif-Bold-66" d="M 3097 4031 
L 2747 4031 
Q 2722 4275 2605 4394 
Q 2488 4513 2272 4513 
Q 2022 4513 1909 4333 
Q 1797 4153 1797 3750 
L 1797 3322 
L 2631 3322 
L 2631 2944 
L 1797 2944 
L 1797 378 
L 2438 378 
L 2438 0 
L 219 0 
L 219 378 
L 691 378 
L 691 2944 
L 197 2944 
L 197 3322 
L 691 3322 
L 691 3738 
Q 691 4291 1044 4577 
Q 1397 4863 2081 4863 
Q 2347 4863 2600 4833 
Q 2853 4803 3097 4744 
L 3097 4031 
z
" transform="scale(0.015625)"/>
     </defs>
     <use xlink:href="#DejaVuSerif-Bold-43"/>
     <use xlink:href="#DejaVuSerif-Bold-6f" x="79.589844"/>
     <use xlink:href="#DejaVuSerif-Bold-6d" x="146.289062"/>
     <use xlink:href="#DejaVuSerif-Bold-70" x="252.099609"/>
     <use xlink:href="#DejaVuSerif-Bold-6f" x="322.021484"/>
     <use xlink:href="#DejaVuSerif-Bold-6e" x="388.720703"/>
     <use xlink:href="#DejaVuSerif-Bold-65" x="461.425781"/>
     <use xlink:href="#DejaVuSerif-Bold-6e" x="525.048828"/>
     <use xlink:href="#DejaVuSerif-Bold-74" x="597.753906"/>
     <use xlink:href="#DejaVuSerif-Bold-20" x="643.945312"/>
     <use xlink:href="#DejaVuSerif-Bold-49" x="678.759766"/>
     <use xlink:href="#DejaVuSerif-Bold-6d" x="725.537109"/>
     <use xlink:href="#DejaVuSerif-Bold-70" x="831.347656"/>
     <use xlink:href="#DejaVuSerif-Bold-6f" x="901.269531"/>
     <use xlink:href="#DejaVuSerif-Bold-72" x="967.96875"/>
     <use xlink:href="#DejaVuSerif-Bold-74" x="1020.654297"/>
     <use xlink:href="#DejaVuSerif-Bold-61" x="1066.845703"/>
     <use xlink:href="#DejaVuSerif-Bold-6e" x="1131.640625"/>
     <use xlink:href="#DejaVuSerif-Bold-63" x="1204.345703"/>
     <use xlink:href="#DejaVuSerif-Bold-65" x="1265.234375"/>
     <use xlink:href="#DejaVuSerif-Bold-20" x="1328.857422"/>
     <use xlink:href="#DejaVuSerif-Bold-41" x="1363.671875"/>
     <use xlink:href="#DejaVuSerif-Bold-63" x="1441.259766"/>
     <use xlink:href="#DejaVuSerif-Bold-72" x="1502.148438"/>
     <use xlink:href="#DejaVuSerif-Bold-6f" x="1554.833984"/>
     <use xlink:href="#DejaVuSerif-Bold-73" x="1621.533203"/>
     <use xlink:href="#DejaVuSerif-Bold-73" x="1677.832031"/>
     <use xlink:href="#DejaVuSerif-Bold-20" x="1734.130859"/>
     <use xlink:href="#DejaVuSerif-Bold-44" x="1768.945312"/>
     <use xlink:href="#DejaVuSerif-Bold-69" x="1855.664062"/>
     <use xlink:href="#DejaVuSerif-Bold-66" x="1893.652344"/>
     <use xlink:href="#DejaVuSerif-Bold-66" x="1936.669922"/>
     <use xlink:href="#DejaVuSerif-Bold-65" x="1979.6875"/>
     <use xlink:href="#DejaVuSerif-Bold-72" x="2043.310547"/>
     <use xlink:href="#DejaVuSerif-Bold-65" x="2095.996094"/>
     <use xlink:href="#DejaVuSerif-Bold-6e" x="2159.619141"/>
     <use xlink:href="#DejaVuSerif-Bold-74" x="2232.324219"/>
     <use xlink:href="#DejaVuSerif-Bold-20" x="2278.515625"/>
     <use xlink:href="#DejaVuSerif-Bold-44" x="2313.330078"/>
     <use xlink:href="#DejaVuSerif-Bold-61" x="2400.048828"/>
     <use xlink:href="#DejaVuSerif-Bold-74" x="2464.84375"/>
     <use xlink:href="#DejaVuSerif-Bold-61" x="2511.035156"/>
     <use xlink:href="#DejaVuSerif-Bold-73" x="2575.830078"/>
     <use xlink:href="#DejaVuSerif-Bold-65" x="2632.128906"/>
     <use xlink:href="#DejaVuSerif-Bold-74" x="2695.751953"/>
     <use xlink:href="#DejaVuSerif-Bold-73" x="2741.943359"/>
    </g>
   </g>
   <g id="legend_2">
    <g id="patch_41">
     <path d="M 855.03875 567.898048 
L 989.330938 567.898048 
Q 991.130938 567.898048 991.130938 566.098048 
L 991.130938 509.317736 
Q 991.130938 507.517736 989.330938 507.517736 
L 855.03875 507.517736 
Q 853.23875 507.517736 853.23875 509.317736 
L 853.23875 566.098048 
Q 853.23875 567.898048 855.03875 567.898048 
z
" style="fill: #4c4c4c; opacity: 0.5; stroke: #4c4c4c; stroke-linejoin: miter"/>
    </g>
    <g id="patch_42">
     <path d="M 853.03875 565.898048 
L 987.330938 565.898048 
Q 989.130938 565.898048 989.130938 564.098048 
L 989.130938 507.317736 
Q 989.130938 505.517736 987.330938 505.517736 
L 853.03875 505.517736 
Q 851.23875 505.517736 851.23875 507.317736 
L 851.23875 564.098048 
Q 851.23875 565.898048 853.03875 565.898048 
z
" style="fill: #ffffff; opacity: 0.9; stroke: #cccccc; stroke-linejoin: miter"/>
    </g>
    <g id="text_62">
     <!-- Model Component -->
     <g style="fill: #262626" transform="translate(854.83875 519.755548) scale(0.14 -0.14)">
      <use xlink:href="#DejaVuSerif-4d"/>
      <use xlink:href="#DejaVuSerif-6f" x="102.392578"/>
      <use xlink:href="#DejaVuSerif-64" x="162.597656"/>
      <use xlink:href="#DejaVuSerif-65" x="226.611328"/>
      <use xlink:href="#DejaVuSerif-6c" x="285.791016"/>
      <use xlink:href="#DejaVuSerif-20" x="317.773438"/>
      <use xlink:href="#DejaVuSerif-43" x="349.560547"/>
      <use xlink:href="#DejaVuSerif-6f" x="426.074219"/>
      <use xlink:href="#DejaVuSerif-6d" x="486.279297"/>
      <use xlink:href="#DejaVuSerif-70" x="581.103516"/>
      <use xlink:href="#DejaVuSerif-6f" x="645.117188"/>
      <use xlink:href="#DejaVuSerif-6e" x="705.322266"/>
      <use xlink:href="#DejaVuSerif-65" x="769.726562"/>
      <use xlink:href="#DejaVuSerif-6e" x="828.90625"/>
      <use xlink:href="#DejaVuSerif-74" x="893.310547"/>
     </g>
    </g>
    <g id="patch_43">
     <path d="M 894.495469 534.005705 
L 907.995469 534.005705 
L 907.995469 527.705705 
L 894.495469 527.705705 
z
" style="fill: #7da9c7; stroke: #000000; stroke-width: 0.8; stroke-linejoin: miter"/>
    </g>
    <g id="text_63">
     <!-- AGAM -->
     <g style="fill: #262626" transform="translate(915.195469 534.005705) scale(0.09 -0.09)">
      <use xlink:href="#DejaVuSerif-41"/>
      <use xlink:href="#DejaVuSerif-47" x="72.216797"/>
      <use xlink:href="#DejaVuSerif-41" x="152.099609"/>
      <use xlink:href="#DejaVuSerif-4d" x="224.316406"/>
     </g>
    </g>
    <g id="patch_44">
     <path d="M 894.495469 547.216017 
L 907.995469 547.216017 
L 907.995469 540.916017 
L 894.495469 540.916017 
z
" style="fill: #4884af; stroke: #000000; stroke-width: 0.8; stroke-linejoin: miter"/>
    </g>
    <g id="text_64">
     <!-- MTFM -->
     <g style="fill: #262626" transform="translate(915.195469 547.216017) scale(0.09 -0.09)">
      <use xlink:href="#DejaVuSerif-4d"/>
      <use xlink:href="#DejaVuSerif-54" x="102.392578"/>
      <use xlink:href="#DejaVuSerif-46" x="169.091797"/>
      <use xlink:href="#DejaVuSerif-4d" x="238.476562"/>
     </g>
    </g>
    <g id="patch_45">
     <path d="M 894.495469 560.42633 
L 907.995469 560.42633 
L 907.995469 554.12633 
L 894.495469 554.12633 
z
" style="fill: #3d5b70; stroke: #000000; stroke-width: 0.8; stroke-linejoin: miter"/>
    </g>
    <g id="text_65">
     <!-- PPRM -->
     <g style="fill: #262626" transform="translate(915.195469 560.42633) scale(0.09 -0.09)">
      <use xlink:href="#DejaVuSerif-50"/>
      <use xlink:href="#DejaVuSerif-50" x="67.285156"/>
      <use xlink:href="#DejaVuSerif-52" x="134.570312"/>
      <use xlink:href="#DejaVuSerif-4d" x="209.863281"/>
     </g>
    </g>
   </g>
  </g>
 </g>
 <defs>
  <clipPath id="p4b822dd0fc">
   <rect x="43.900938" y="26.318125" width="949.73" height="400.655861"/>
  </clipPath>
  <clipPath id="p2a7411f8df">
   <rect x="43.900938" y="501.017736" width="949.73" height="400.655861"/>
  </clipPath>
 </defs>
</svg>
