<?xml version="1.0" encoding="utf-8" standalone="no"?>
<!DOCTYPE svg PUBLIC "-//W3C//DTD SVG 1.1//EN"
  "http://www.w3.org/Graphics/SVG/1.1/DTD/svg11.dtd">
<svg xmlns:xlink="http://www.w3.org/1999/xlink" width="719.490937pt" height="450.726719pt" viewBox="0 0 719.490937 450.726719" xmlns="http://www.w3.org/2000/svg" version="1.1">
 <metadata>
  <rdf:RDF xmlns:dc="http://purl.org/dc/elements/1.1/" xmlns:cc="http://creativecommons.org/ns#" xmlns:rdf="http://www.w3.org/1999/02/22-rdf-syntax-ns#">
   <cc:Work>
    <dc:type rdf:resource="http://purl.org/dc/dcmitype/StillImage"/>
    <dc:date>2025-05-05T19:30:04.513715</dc:date>
    <dc:format>image/svg+xml</dc:format>
    <dc:creator>
     <cc:Agent>
      <dc:title>MSAGAT-Net</dc:title>
     </cc:Agent>
    </dc:creator>
   </cc:Work>
  </rdf:RDF>
 </metadata>
 <defs>
  <style type="text/css">*{stroke-linejoin: round; stroke-linecap: butt}</style>
 </defs>
 <g id="figure_1">
  <g id="patch_1">
   <path d="M 0 450.726719 
L 719.490937 450.726719 
L 719.490937 0 
L 0 0 
z
" style="fill: #ffffff"/>
  </g>
  <g id="axes_1">
   <g id="patch_2">
    <path d="M 42.690938 413.638281 
L 712.290938 413.638281 
L 712.290938 25.558281 
L 42.690938 25.558281 
z
" style="fill: #ffffff"/>
   </g>
   <g id="matplotlib.axis_1">
    <g id="xtick_1">
     <g id="line2d_1">
      <defs>
       <path id="md773bd4f53" d="M 0 0 
L 0 4 
" style="stroke: #262626"/>
      </defs>
      <g>
       <use xlink:href="#md773bd4f53" x="73.127301" y="413.638281" style="fill: #262626; stroke: #262626"/>
      </g>
     </g>
     <g id="text_1">
      <!-- 3 -->
      <g style="fill: #262626" transform="translate(70.264176 427.976875) scale(0.09 -0.09)">
       <defs>
        <path id="DejaVuSerif-33" d="M 622 4469 
Q 988 4606 1323 4678 
Q 1659 4750 1953 4750 
Q 2638 4750 3022 4454 
Q 3406 4159 3406 3634 
Q 3406 3213 3140 2930 
Q 2875 2647 2388 2547 
Q 2963 2466 3280 2130 
Q 3597 1794 3597 1259 
Q 3597 606 3158 257 
Q 2719 -91 1894 -91 
Q 1528 -91 1179 -12 
Q 831 66 488 225 
L 488 1131 
L 838 1131 
Q 869 681 1141 450 
Q 1413 219 1906 219 
Q 2384 219 2661 495 
Q 2938 772 2938 1253 
Q 2938 1803 2653 2086 
Q 2369 2369 1819 2369 
L 1522 2369 
L 1522 2688 
L 1678 2688 
Q 2225 2688 2498 2914 
Q 2772 3141 2772 3597 
Q 2772 4006 2547 4223 
Q 2322 4441 1900 4441 
Q 1478 4441 1245 4241 
Q 1013 4041 972 3647 
L 622 3647 
L 622 4469 
z
" transform="scale(0.015625)"/>
       </defs>
       <use xlink:href="#DejaVuSerif-33"/>
      </g>
     </g>
    </g>
    <g id="xtick_2">
     <g id="line2d_2">
      <g>
       <use xlink:href="#md773bd4f53" x="174.581847" y="413.638281" style="fill: #262626; stroke: #262626"/>
      </g>
     </g>
     <g id="text_2">
      <!-- 5 -->
      <g style="fill: #262626" transform="translate(171.718722 427.976875) scale(0.09 -0.09)">
       <defs>
        <path id="DejaVuSerif-35" d="M 3219 4666 
L 3219 4153 
L 1081 4153 
L 1081 2816 
Q 1244 2928 1461 2984 
Q 1678 3041 1947 3041 
Q 2703 3041 3140 2622 
Q 3578 2203 3578 1478 
Q 3578 738 3136 323 
Q 2694 -91 1894 -91 
Q 1572 -91 1234 -12 
Q 897 66 544 225 
L 544 1131 
L 897 1131 
Q 925 688 1179 453 
Q 1434 219 1894 219 
Q 2388 219 2653 544 
Q 2919 869 2919 1478 
Q 2919 2084 2655 2407 
Q 2391 2731 1894 2731 
Q 1613 2731 1398 2631 
Q 1184 2531 1019 2322 
L 750 2322 
L 750 4666 
L 3219 4666 
z
" transform="scale(0.015625)"/>
       </defs>
       <use xlink:href="#DejaVuSerif-35"/>
      </g>
     </g>
    </g>
    <g id="xtick_3">
     <g id="line2d_3">
      <g>
       <use xlink:href="#md773bd4f53" x="276.036392" y="413.638281" style="fill: #262626; stroke: #262626"/>
      </g>
     </g>
     <g id="text_3">
      <!-- 7 -->
      <g style="fill: #262626" transform="translate(273.173267 427.976875) scale(0.09 -0.09)">
       <defs>
        <path id="DejaVuSerif-37" d="M 3609 4347 
L 1784 0 
L 1319 0 
L 3059 4153 
L 903 4153 
L 903 3578 
L 538 3578 
L 538 4666 
L 3609 4666 
L 3609 4347 
z
" transform="scale(0.015625)"/>
       </defs>
       <use xlink:href="#DejaVuSerif-37"/>
      </g>
     </g>
    </g>
    <g id="xtick_4">
     <g id="line2d_4">
      <g>
       <use xlink:href="#md773bd4f53" x="428.21821" y="413.638281" style="fill: #262626; stroke: #262626"/>
      </g>
     </g>
     <g id="text_4">
      <!-- 10 -->
      <g style="fill: #262626" transform="translate(422.49196 427.976875) scale(0.09 -0.09)">
       <defs>
        <path id="DejaVuSerif-31" d="M 909 0 
L 909 331 
L 1722 331 
L 1722 4213 
L 781 3603 
L 781 4013 
L 1919 4750 
L 2350 4750 
L 2350 331 
L 3163 331 
L 3163 0 
L 909 0 
z
" transform="scale(0.015625)"/>
        <path id="DejaVuSerif-30" d="M 2034 219 
Q 2513 219 2750 744 
Q 2988 1269 2988 2328 
Q 2988 3391 2750 3916 
Q 2513 4441 2034 4441 
Q 1556 4441 1318 3916 
Q 1081 3391 1081 2328 
Q 1081 1269 1318 744 
Q 1556 219 2034 219 
z
M 2034 -91 
Q 1275 -91 848 546 
Q 422 1184 422 2328 
Q 422 3475 848 4112 
Q 1275 4750 2034 4750 
Q 2797 4750 3222 4112 
Q 3647 3475 3647 2328 
Q 3647 1184 3222 546 
Q 2797 -91 2034 -91 
z
" transform="scale(0.015625)"/>
       </defs>
       <use xlink:href="#DejaVuSerif-31"/>
       <use xlink:href="#DejaVuSerif-30" x="63.623047"/>
      </g>
     </g>
    </g>
    <g id="xtick_5">
     <g id="line2d_5">
      <g>
       <use xlink:href="#md773bd4f53" x="631.127301" y="413.638281" style="fill: #262626; stroke: #262626"/>
      </g>
     </g>
     <g id="text_5">
      <!-- 14 -->
      <g style="fill: #262626" transform="translate(625.401051 427.976875) scale(0.09 -0.09)">
       <defs>
        <path id="DejaVuSerif-34" d="M 2234 1581 
L 2234 4063 
L 641 1581 
L 2234 1581 
z
M 3609 0 
L 1484 0 
L 1484 331 
L 2234 331 
L 2234 1247 
L 197 1247 
L 197 1588 
L 2241 4750 
L 2859 4750 
L 2859 1581 
L 3750 1581 
L 3750 1247 
L 2859 1247 
L 2859 331 
L 3609 331 
L 3609 0 
z
" transform="scale(0.015625)"/>
       </defs>
       <use xlink:href="#DejaVuSerif-31"/>
       <use xlink:href="#DejaVuSerif-34" x="63.623047"/>
      </g>
     </g>
    </g>
    <g id="xtick_6">
     <g id="line2d_6">
      <g>
       <use xlink:href="#md773bd4f53" x="681.854574" y="413.638281" style="fill: #262626; stroke: #262626"/>
      </g>
     </g>
     <g id="text_6">
      <!-- 15 -->
      <g style="fill: #262626" transform="translate(676.128324 427.976875) scale(0.09 -0.09)">
       <use xlink:href="#DejaVuSerif-31"/>
       <use xlink:href="#DejaVuSerif-35" x="63.623047"/>
      </g>
     </g>
    </g>
    <g id="text_7">
     <!-- Prediction Horizon -->
     <g style="fill: #262626" transform="translate(329.525313 441.447031) scale(0.1 -0.1)">
      <defs>
       <path id="DejaVuSerif-50" d="M 1581 2375 
L 2406 2375 
Q 2872 2375 3115 2626 
Q 3359 2878 3359 3353 
Q 3359 3831 3115 4081 
Q 2872 4331 2406 4331 
L 1581 4331 
L 1581 2375 
z
M 353 0 
L 353 331 
L 947 331 
L 947 4331 
L 353 4331 
L 353 4666 
L 2559 4666 
Q 3259 4666 3668 4311 
Q 4078 3956 4078 3353 
Q 4078 2753 3668 2397 
Q 3259 2041 2559 2041 
L 1581 2041 
L 1581 331 
L 2303 331 
L 2303 0 
L 353 0 
z
" transform="scale(0.015625)"/>
       <path id="DejaVuSerif-72" d="M 3059 3328 
L 3059 2497 
L 2728 2497 
Q 2713 2744 2591 2866 
Q 2469 2988 2234 2988 
Q 1809 2988 1582 2694 
Q 1356 2400 1356 1850 
L 1356 331 
L 2022 331 
L 2022 0 
L 263 0 
L 263 331 
L 781 331 
L 781 2994 
L 231 2994 
L 231 3322 
L 1356 3322 
L 1356 2731 
Q 1525 3078 1790 3245 
Q 2056 3413 2438 3413 
Q 2578 3413 2733 3391 
Q 2888 3369 3059 3328 
z
" transform="scale(0.015625)"/>
       <path id="DejaVuSerif-65" d="M 3469 1600 
L 991 1600 
L 991 1575 
Q 991 903 1244 561 
Q 1497 219 1991 219 
Q 2369 219 2611 417 
Q 2853 616 2950 1006 
L 3413 1006 
Q 3275 459 2904 184 
Q 2534 -91 1931 -91 
Q 1203 -91 761 389 
Q 319 869 319 1663 
Q 319 2450 753 2931 
Q 1188 3413 1894 3413 
Q 2647 3413 3050 2948 
Q 3453 2484 3469 1600 
z
M 2791 1931 
Q 2772 2513 2545 2808 
Q 2319 3103 1894 3103 
Q 1497 3103 1269 2806 
Q 1041 2509 991 1931 
L 2791 1931 
z
" transform="scale(0.015625)"/>
       <path id="DejaVuSerif-64" d="M 3359 331 
L 3909 331 
L 3909 0 
L 2784 0 
L 2784 519 
Q 2616 206 2355 57 
Q 2094 -91 1709 -91 
Q 1097 -91 708 395 
Q 319 881 319 1663 
Q 319 2444 706 2928 
Q 1094 3413 1709 3413 
Q 2094 3413 2355 3264 
Q 2616 3116 2784 2803 
L 2784 4531 
L 2241 4531 
L 2241 4863 
L 3359 4863 
L 3359 331 
z
M 2784 1497 
L 2784 1825 
Q 2784 2422 2554 2737 
Q 2325 3053 1888 3053 
Q 1444 3053 1217 2703 
Q 991 2353 991 1663 
Q 991 975 1217 622 
Q 1444 269 1888 269 
Q 2325 269 2554 583 
Q 2784 897 2784 1497 
z
" transform="scale(0.015625)"/>
       <path id="DejaVuSerif-69" d="M 622 4353 
Q 622 4497 726 4603 
Q 831 4709 978 4709 
Q 1122 4709 1226 4603 
Q 1331 4497 1331 4353 
Q 1331 4206 1228 4103 
Q 1125 4000 978 4000 
Q 831 4000 726 4103 
Q 622 4206 622 4353 
z
M 1356 331 
L 1900 331 
L 1900 0 
L 231 0 
L 231 331 
L 781 331 
L 781 2988 
L 231 2988 
L 231 3322 
L 1356 3322 
L 1356 331 
z
" transform="scale(0.015625)"/>
       <path id="DejaVuSerif-63" d="M 3291 997 
Q 3169 466 2822 187 
Q 2475 -91 1925 -91 
Q 1200 -91 759 389 
Q 319 869 319 1663 
Q 319 2459 759 2936 
Q 1200 3413 1925 3413 
Q 2241 3413 2553 3339 
Q 2866 3266 3181 3116 
L 3181 2266 
L 2847 2266 
Q 2781 2703 2561 2903 
Q 2341 3103 1931 3103 
Q 1466 3103 1228 2742 
Q 991 2381 991 1663 
Q 991 944 1227 581 
Q 1463 219 1931 219 
Q 2303 219 2525 412 
Q 2747 606 2828 997 
L 3291 997 
z
" transform="scale(0.015625)"/>
       <path id="DejaVuSerif-74" d="M 691 2988 
L 184 2988 
L 184 3322 
L 691 3322 
L 691 4353 
L 1269 4353 
L 1269 3322 
L 2350 3322 
L 2350 2988 
L 1269 2988 
L 1269 878 
Q 1269 456 1350 337 
Q 1431 219 1650 219 
Q 1875 219 1978 351 
Q 2081 484 2088 781 
L 2522 781 
Q 2497 328 2275 118 
Q 2053 -91 1600 -91 
Q 1103 -91 897 129 
Q 691 350 691 878 
L 691 2988 
z
" transform="scale(0.015625)"/>
       <path id="DejaVuSerif-6f" d="M 1925 219 
Q 2388 219 2623 584 
Q 2859 950 2859 1663 
Q 2859 2375 2623 2739 
Q 2388 3103 1925 3103 
Q 1463 3103 1227 2739 
Q 991 2375 991 1663 
Q 991 950 1228 584 
Q 1466 219 1925 219 
z
M 1925 -91 
Q 1200 -91 759 389 
Q 319 869 319 1663 
Q 319 2456 758 2934 
Q 1197 3413 1925 3413 
Q 2653 3413 3092 2934 
Q 3531 2456 3531 1663 
Q 3531 869 3092 389 
Q 2653 -91 1925 -91 
z
" transform="scale(0.015625)"/>
       <path id="DejaVuSerif-6e" d="M 263 0 
L 263 331 
L 781 331 
L 781 2988 
L 231 2988 
L 231 3322 
L 1356 3322 
L 1356 2731 
Q 1516 3069 1770 3241 
Q 2025 3413 2363 3413 
Q 2913 3413 3172 3097 
Q 3431 2781 3431 2113 
L 3431 331 
L 3944 331 
L 3944 0 
L 2356 0 
L 2356 331 
L 2853 331 
L 2853 1931 
Q 2853 2541 2703 2767 
Q 2553 2994 2175 2994 
Q 1775 2994 1565 2701 
Q 1356 2409 1356 1850 
L 1356 331 
L 1856 331 
L 1856 0 
L 263 0 
z
" transform="scale(0.015625)"/>
       <path id="DejaVuSerif-20" transform="scale(0.015625)"/>
       <path id="DejaVuSerif-48" d="M 353 0 
L 353 331 
L 947 331 
L 947 4331 
L 353 4331 
L 353 4666 
L 2175 4666 
L 2175 4331 
L 1581 4331 
L 1581 2719 
L 4000 2719 
L 4000 4331 
L 3406 4331 
L 3406 4666 
L 5228 4666 
L 5228 4331 
L 4634 4331 
L 4634 331 
L 5228 331 
L 5228 0 
L 3406 0 
L 3406 331 
L 4000 331 
L 4000 2338 
L 1581 2338 
L 1581 331 
L 2175 331 
L 2175 0 
L 353 0 
z
" transform="scale(0.015625)"/>
       <path id="DejaVuSerif-7a" d="M 256 0 
L 256 269 
L 2338 2988 
L 691 2988 
L 691 2413 
L 359 2413 
L 359 3322 
L 3078 3322 
L 3078 3053 
L 997 331 
L 2803 331 
L 2803 934 
L 3138 934 
L 3138 0 
L 256 0 
z
" transform="scale(0.015625)"/>
      </defs>
      <use xlink:href="#DejaVuSerif-50"/>
      <use xlink:href="#DejaVuSerif-72" x="67.285156"/>
      <use xlink:href="#DejaVuSerif-65" x="115.087891"/>
      <use xlink:href="#DejaVuSerif-64" x="174.267578"/>
      <use xlink:href="#DejaVuSerif-69" x="238.28125"/>
      <use xlink:href="#DejaVuSerif-63" x="270.263672"/>
      <use xlink:href="#DejaVuSerif-74" x="326.269531"/>
      <use xlink:href="#DejaVuSerif-69" x="366.455078"/>
      <use xlink:href="#DejaVuSerif-6f" x="398.4375"/>
      <use xlink:href="#DejaVuSerif-6e" x="458.642578"/>
      <use xlink:href="#DejaVuSerif-20" x="523.046875"/>
      <use xlink:href="#DejaVuSerif-48" x="554.833984"/>
      <use xlink:href="#DejaVuSerif-6f" x="642.041016"/>
      <use xlink:href="#DejaVuSerif-72" x="702.246094"/>
      <use xlink:href="#DejaVuSerif-69" x="750.048828"/>
      <use xlink:href="#DejaVuSerif-7a" x="782.03125"/>
      <use xlink:href="#DejaVuSerif-6f" x="834.716797"/>
      <use xlink:href="#DejaVuSerif-6e" x="894.921875"/>
     </g>
    </g>
   </g>
   <g id="matplotlib.axis_2">
    <g id="ytick_1">
     <g id="line2d_7">
      <defs>
       <path id="md2e3ae458f" d="M 0 0 
L -4 0 
" style="stroke: #262626"/>
      </defs>
      <g>
       <use xlink:href="#md2e3ae458f" x="42.690938" y="369.357224" style="fill: #262626; stroke: #262626"/>
      </g>
     </g>
     <g id="text_8">
      <!-- 0.5 -->
      <g style="fill: #262626" transform="translate(20.878125 372.776521) scale(0.09 -0.09)">
       <defs>
        <path id="DejaVuSerif-2e" d="M 603 325 
Q 603 500 722 622 
Q 841 744 1019 744 
Q 1191 744 1312 622 
Q 1434 500 1434 325 
Q 1434 153 1312 31 
Q 1191 -91 1019 -91 
Q 841 -91 722 29 
Q 603 150 603 325 
z
" transform="scale(0.015625)"/>
       </defs>
       <use xlink:href="#DejaVuSerif-30"/>
       <use xlink:href="#DejaVuSerif-2e" x="63.623047"/>
       <use xlink:href="#DejaVuSerif-35" x="95.410156"/>
      </g>
     </g>
    </g>
    <g id="ytick_2">
     <g id="line2d_8">
      <g>
       <use xlink:href="#md2e3ae458f" x="42.690938" y="308.571724" style="fill: #262626; stroke: #262626"/>
      </g>
     </g>
     <g id="text_9">
      <!-- 0.6 -->
      <g style="fill: #262626" transform="translate(20.878125 311.991021) scale(0.09 -0.09)">
       <defs>
        <path id="DejaVuSerif-36" d="M 2094 219 
Q 2534 219 2771 542 
Q 3009 866 3009 1472 
Q 3009 2078 2771 2401 
Q 2534 2725 2094 2725 
Q 1647 2725 1412 2412 
Q 1178 2100 1178 1509 
Q 1178 888 1415 553 
Q 1653 219 2094 219 
z
M 1075 2569 
Q 1288 2803 1556 2918 
Q 1825 3034 2163 3034 
Q 2859 3034 3264 2615 
Q 3669 2197 3669 1472 
Q 3669 763 3233 336 
Q 2797 -91 2069 -91 
Q 1278 -91 853 498 
Q 428 1088 428 2181 
Q 428 3406 931 4078 
Q 1434 4750 2350 4750 
Q 2597 4750 2869 4703 
Q 3141 4656 3425 4563 
L 3425 3794 
L 3072 3794 
Q 3034 4109 2831 4275 
Q 2628 4441 2284 4441 
Q 1678 4441 1381 3981 
Q 1084 3522 1075 2569 
z
" transform="scale(0.015625)"/>
       </defs>
       <use xlink:href="#DejaVuSerif-30"/>
       <use xlink:href="#DejaVuSerif-2e" x="63.623047"/>
       <use xlink:href="#DejaVuSerif-36" x="95.410156"/>
      </g>
     </g>
    </g>
    <g id="ytick_3">
     <g id="line2d_9">
      <g>
       <use xlink:href="#md2e3ae458f" x="42.690938" y="247.786224" style="fill: #262626; stroke: #262626"/>
      </g>
     </g>
     <g id="text_10">
      <!-- 0.7 -->
      <g style="fill: #262626" transform="translate(20.878125 251.205521) scale(0.09 -0.09)">
       <use xlink:href="#DejaVuSerif-30"/>
       <use xlink:href="#DejaVuSerif-2e" x="63.623047"/>
       <use xlink:href="#DejaVuSerif-37" x="95.410156"/>
      </g>
     </g>
    </g>
    <g id="ytick_4">
     <g id="line2d_10">
      <g>
       <use xlink:href="#md2e3ae458f" x="42.690938" y="187.000724" style="fill: #262626; stroke: #262626"/>
      </g>
     </g>
     <g id="text_11">
      <!-- 0.8 -->
      <g style="fill: #262626" transform="translate(20.878125 190.420021) scale(0.09 -0.09)">
       <defs>
        <path id="DejaVuSerif-38" d="M 2981 1275 
Q 2981 1775 2732 2051 
Q 2484 2328 2034 2328 
Q 1584 2328 1336 2051 
Q 1088 1775 1088 1275 
Q 1088 772 1336 495 
Q 1584 219 2034 219 
Q 2484 219 2732 495 
Q 2981 772 2981 1275 
z
M 2853 3541 
Q 2853 3966 2637 4203 
Q 2422 4441 2034 4441 
Q 1650 4441 1433 4203 
Q 1216 3966 1216 3541 
Q 1216 3113 1433 2875 
Q 1650 2638 2034 2638 
Q 2422 2638 2637 2875 
Q 2853 3113 2853 3541 
z
M 2516 2484 
Q 3047 2413 3344 2092 
Q 3641 1772 3641 1275 
Q 3641 619 3225 264 
Q 2809 -91 2034 -91 
Q 1263 -91 845 264 
Q 428 619 428 1275 
Q 428 1772 725 2092 
Q 1022 2413 1556 2484 
Q 1084 2569 832 2842 
Q 581 3116 581 3541 
Q 581 4103 968 4426 
Q 1356 4750 2034 4750 
Q 2713 4750 3100 4426 
Q 3488 4103 3488 3541 
Q 3488 3116 3236 2842 
Q 2984 2569 2516 2484 
z
" transform="scale(0.015625)"/>
       </defs>
       <use xlink:href="#DejaVuSerif-30"/>
       <use xlink:href="#DejaVuSerif-2e" x="63.623047"/>
       <use xlink:href="#DejaVuSerif-38" x="95.410156"/>
      </g>
     </g>
    </g>
    <g id="ytick_5">
     <g id="line2d_11">
      <g>
       <use xlink:href="#md2e3ae458f" x="42.690938" y="126.215225" style="fill: #262626; stroke: #262626"/>
      </g>
     </g>
     <g id="text_12">
      <!-- 0.9 -->
      <g style="fill: #262626" transform="translate(20.878125 129.634522) scale(0.09 -0.09)">
       <defs>
        <path id="DejaVuSerif-39" d="M 2994 2091 
Q 2784 1856 2512 1740 
Q 2241 1625 1900 1625 
Q 1206 1625 804 2044 
Q 403 2463 403 3188 
Q 403 3897 839 4323 
Q 1275 4750 2003 4750 
Q 2794 4750 3217 4161 
Q 3641 3572 3641 2478 
Q 3641 1253 3137 581 
Q 2634 -91 1722 -91 
Q 1475 -91 1203 -44 
Q 931 3 647 97 
L 647 872 
L 997 872 
Q 1038 556 1241 387 
Q 1444 219 1784 219 
Q 2391 219 2687 676 
Q 2984 1134 2994 2091 
z
M 1978 4441 
Q 1534 4441 1298 4117 
Q 1063 3794 1063 3188 
Q 1063 2581 1298 2256 
Q 1534 1931 1978 1931 
Q 2422 1931 2658 2245 
Q 2894 2559 2894 3150 
Q 2894 3772 2656 4106 
Q 2419 4441 1978 4441 
z
" transform="scale(0.015625)"/>
       </defs>
       <use xlink:href="#DejaVuSerif-30"/>
       <use xlink:href="#DejaVuSerif-2e" x="63.623047"/>
       <use xlink:href="#DejaVuSerif-39" x="95.410156"/>
      </g>
     </g>
    </g>
    <g id="ytick_6">
     <g id="line2d_12">
      <g>
       <use xlink:href="#md2e3ae458f" x="42.690938" y="65.429725" style="fill: #262626; stroke: #262626"/>
      </g>
     </g>
     <g id="text_13">
      <!-- 1.0 -->
      <g style="fill: #262626" transform="translate(20.878125 68.849022) scale(0.09 -0.09)">
       <use xlink:href="#DejaVuSerif-31"/>
       <use xlink:href="#DejaVuSerif-2e" x="63.623047"/>
       <use xlink:href="#DejaVuSerif-30" x="95.410156"/>
      </g>
     </g>
    </g>
    <g id="text_14">
     <!-- Pearson Correlation Coefficient -->
     <g style="fill: #262626" transform="translate(14.798438 299.720937) rotate(-90) scale(0.1 -0.1)">
      <defs>
       <path id="DejaVuSerif-61" d="M 2547 1044 
L 2547 1747 
L 1806 1747 
Q 1378 1747 1168 1562 
Q 959 1378 959 997 
Q 959 650 1171 447 
Q 1384 244 1747 244 
Q 2106 244 2326 466 
Q 2547 688 2547 1044 
z
M 3122 2075 
L 3122 331 
L 3634 331 
L 3634 0 
L 2547 0 
L 2547 359 
Q 2356 128 2106 18 
Q 1856 -91 1522 -91 
Q 969 -91 644 203 
Q 319 497 319 997 
Q 319 1513 691 1797 
Q 1063 2081 1741 2081 
L 2547 2081 
L 2547 2309 
Q 2547 2688 2317 2895 
Q 2088 3103 1672 3103 
Q 1328 3103 1125 2947 
Q 922 2791 872 2484 
L 575 2484 
L 575 3156 
Q 875 3284 1158 3348 
Q 1441 3413 1709 3413 
Q 2400 3413 2761 3070 
Q 3122 2728 3122 2075 
z
" transform="scale(0.015625)"/>
       <path id="DejaVuSerif-73" d="M 359 184 
L 359 959 
L 691 959 
Q 703 588 923 403 
Q 1144 219 1575 219 
Q 1963 219 2166 364 
Q 2369 509 2369 788 
Q 2369 1006 2220 1140 
Q 2072 1275 1594 1428 
L 1178 1569 
Q 750 1706 558 1912 
Q 366 2119 366 2438 
Q 366 2894 700 3153 
Q 1034 3413 1625 3413 
Q 1888 3413 2178 3344 
Q 2469 3275 2778 3144 
L 2778 2419 
L 2447 2419 
Q 2434 2741 2221 2922 
Q 2009 3103 1644 3103 
Q 1281 3103 1095 2975 
Q 909 2847 909 2591 
Q 909 2381 1050 2254 
Q 1191 2128 1613 1997 
L 2069 1856 
Q 2541 1709 2748 1489 
Q 2956 1269 2956 922 
Q 2956 450 2595 179 
Q 2234 -91 1600 -91 
Q 1278 -91 972 -22 
Q 666 47 359 184 
z
" transform="scale(0.015625)"/>
       <path id="DejaVuSerif-43" d="M 4513 1234 
Q 4306 581 3820 245 
Q 3334 -91 2591 -91 
Q 2134 -91 1743 65 
Q 1353 222 1050 525 
Q 700 875 529 1320 
Q 359 1766 359 2328 
Q 359 3416 987 4083 
Q 1616 4750 2644 4750 
Q 3025 4750 3456 4650 
Q 3888 4550 4384 4347 
L 4384 3272 
L 4031 3272 
Q 3916 3859 3567 4137 
Q 3219 4416 2591 4416 
Q 1844 4416 1459 3886 
Q 1075 3356 1075 2328 
Q 1075 1303 1459 773 
Q 1844 244 2591 244 
Q 3113 244 3450 492 
Q 3788 741 3938 1234 
L 4513 1234 
z
" transform="scale(0.015625)"/>
       <path id="DejaVuSerif-6c" d="M 1313 331 
L 1856 331 
L 1856 0 
L 184 0 
L 184 331 
L 738 331 
L 738 4531 
L 184 4531 
L 184 4863 
L 1313 4863 
L 1313 331 
z
" transform="scale(0.015625)"/>
       <path id="DejaVuSerif-66" d="M 2753 4078 
L 2450 4078 
Q 2447 4313 2317 4434 
Q 2188 4556 1941 4556 
Q 1619 4556 1487 4379 
Q 1356 4203 1356 3750 
L 1356 3322 
L 2284 3322 
L 2284 2988 
L 1356 2988 
L 1356 331 
L 2094 331 
L 2094 0 
L 231 0 
L 231 331 
L 781 331 
L 781 2988 
L 231 2988 
L 231 3322 
L 781 3322 
L 781 3738 
Q 781 4294 1070 4578 
Q 1359 4863 1919 4863 
Q 2128 4863 2337 4825 
Q 2547 4788 2753 4709 
L 2753 4078 
z
" transform="scale(0.015625)"/>
      </defs>
      <use xlink:href="#DejaVuSerif-50"/>
      <use xlink:href="#DejaVuSerif-65" x="62.785156"/>
      <use xlink:href="#DejaVuSerif-61" x="121.964844"/>
      <use xlink:href="#DejaVuSerif-72" x="181.583984"/>
      <use xlink:href="#DejaVuSerif-73" x="229.386719"/>
      <use xlink:href="#DejaVuSerif-6f" x="280.705078"/>
      <use xlink:href="#DejaVuSerif-6e" x="340.910156"/>
      <use xlink:href="#DejaVuSerif-20" x="405.314453"/>
      <use xlink:href="#DejaVuSerif-43" x="437.101562"/>
      <use xlink:href="#DejaVuSerif-6f" x="513.615234"/>
      <use xlink:href="#DejaVuSerif-72" x="573.820312"/>
      <use xlink:href="#DejaVuSerif-72" x="621.623047"/>
      <use xlink:href="#DejaVuSerif-65" x="669.425781"/>
      <use xlink:href="#DejaVuSerif-6c" x="728.605469"/>
      <use xlink:href="#DejaVuSerif-61" x="760.587891"/>
      <use xlink:href="#DejaVuSerif-74" x="820.207031"/>
      <use xlink:href="#DejaVuSerif-69" x="860.392578"/>
      <use xlink:href="#DejaVuSerif-6f" x="892.375"/>
      <use xlink:href="#DejaVuSerif-6e" x="952.580078"/>
      <use xlink:href="#DejaVuSerif-20" x="1016.984375"/>
      <use xlink:href="#DejaVuSerif-43" x="1048.771484"/>
      <use xlink:href="#DejaVuSerif-6f" x="1125.285156"/>
      <use xlink:href="#DejaVuSerif-65" x="1185.490234"/>
      <use xlink:href="#DejaVuSerif-66" x="1244.669922"/>
      <use xlink:href="#DejaVuSerif-66" x="1281.681641"/>
      <use xlink:href="#DejaVuSerif-69" x="1318.693359"/>
      <use xlink:href="#DejaVuSerif-63" x="1350.675781"/>
      <use xlink:href="#DejaVuSerif-69" x="1406.681641"/>
      <use xlink:href="#DejaVuSerif-65" x="1438.664062"/>
      <use xlink:href="#DejaVuSerif-6e" x="1497.84375"/>
      <use xlink:href="#DejaVuSerif-74" x="1562.248047"/>
     </g>
    </g>
   </g>
   <g id="line2d_13">
    <path d="M 73.127301 135.319898 
L 174.581847 135.395258 
L 428.21821 170.647806 
L 681.854574 200.534067 
" clip-path="url(#pef63de7f32)" style="fill: none; stroke: #1f77b4; stroke-opacity: 0.9; stroke-width: 2.5; stroke-linecap: round"/>
    <defs>
     <path id="me0f2389cd6" d="M 0 5 
C 1.326016 5 2.597899 4.473168 3.535534 3.535534 
C 4.473168 2.597899 5 1.326016 5 0 
C 5 -1.326016 4.473168 -2.597899 3.535534 -3.535534 
C 2.597899 -4.473168 1.326016 -5 0 -5 
C -1.326016 -5 -2.597899 -4.473168 -3.535534 -3.535534 
C -4.473168 -2.597899 -5 -1.326016 -5 0 
C -5 1.326016 -4.473168 2.597899 -3.535534 3.535534 
C -2.597899 4.473168 -1.326016 5 0 5 
z
" style="stroke: #000000; stroke-opacity: 0.9"/>
    </defs>
    <g clip-path="url(#pef63de7f32)">
     <use xlink:href="#me0f2389cd6" x="73.127301" y="135.319898" style="fill: #1f77b4; fill-opacity: 0.9; stroke: #000000; stroke-opacity: 0.9"/>
     <use xlink:href="#me0f2389cd6" x="174.581847" y="135.395258" style="fill: #1f77b4; fill-opacity: 0.9; stroke: #000000; stroke-opacity: 0.9"/>
     <use xlink:href="#me0f2389cd6" x="428.21821" y="170.647806" style="fill: #1f77b4; fill-opacity: 0.9; stroke: #000000; stroke-opacity: 0.9"/>
     <use xlink:href="#me0f2389cd6" x="681.854574" y="200.534067" style="fill: #1f77b4; fill-opacity: 0.9; stroke: #000000; stroke-opacity: 0.9"/>
    </g>
   </g>
   <g id="line2d_14">
    <path d="M 73.127301 119.975685 
L 174.581847 162.9372 
L 428.21821 209.335295 
L 681.854574 382.591881 
" clip-path="url(#pef63de7f32)" style="fill: none; stroke-dasharray: 9.25,4; stroke-dashoffset: 0; stroke: #ff7f0e; stroke-opacity: 0.9; stroke-width: 2.5"/>
    <defs>
     <path id="m7a015bda8e" d="M -5 5 
L 5 5 
L 5 -5 
L -5 -5 
z
" style="stroke: #000000; stroke-opacity: 0.9; stroke-linejoin: miter"/>
    </defs>
    <g clip-path="url(#pef63de7f32)">
     <use xlink:href="#m7a015bda8e" x="73.127301" y="119.975685" style="fill: #ff7f0e; fill-opacity: 0.9; stroke: #000000; stroke-opacity: 0.9; stroke-linejoin: miter"/>
     <use xlink:href="#m7a015bda8e" x="174.581847" y="162.9372" style="fill: #ff7f0e; fill-opacity: 0.9; stroke: #000000; stroke-opacity: 0.9; stroke-linejoin: miter"/>
     <use xlink:href="#m7a015bda8e" x="428.21821" y="209.335295" style="fill: #ff7f0e; fill-opacity: 0.9; stroke: #000000; stroke-opacity: 0.9; stroke-linejoin: miter"/>
     <use xlink:href="#m7a015bda8e" x="681.854574" y="382.591881" style="fill: #ff7f0e; fill-opacity: 0.9; stroke: #000000; stroke-opacity: 0.9; stroke-linejoin: miter"/>
    </g>
   </g>
   <g id="line2d_15">
    <path d="M 73.127301 72.127881 
L 276.036392 92.467475 
L 631.127301 101.804249 
" clip-path="url(#pef63de7f32)" style="fill: none; stroke-dasharray: 16,4,2.5,4; stroke-dashoffset: 0; stroke: #2ca02c; stroke-opacity: 0.9; stroke-width: 2.5"/>
    <defs>
     <path id="m96798fc81b" d="M -0 7.071068 
L 7.071068 0 
L 0 -7.071068 
L -7.071068 -0 
z
" style="stroke: #000000; stroke-opacity: 0.9; stroke-linejoin: miter"/>
    </defs>
    <g clip-path="url(#pef63de7f32)">
     <use xlink:href="#m96798fc81b" x="73.127301" y="72.127881" style="fill: #2ca02c; fill-opacity: 0.9; stroke: #000000; stroke-opacity: 0.9; stroke-linejoin: miter"/>
     <use xlink:href="#m96798fc81b" x="276.036392" y="92.467475" style="fill: #2ca02c; fill-opacity: 0.9; stroke: #000000; stroke-opacity: 0.9; stroke-linejoin: miter"/>
     <use xlink:href="#m96798fc81b" x="631.127301" y="101.804249" style="fill: #2ca02c; fill-opacity: 0.9; stroke: #000000; stroke-opacity: 0.9; stroke-linejoin: miter"/>
    </g>
   </g>
   <g id="line2d_16">
    <path d="M 73.127301 121.071159 
L 276.036392 230.508823 
L 631.127301 359.245948 
" clip-path="url(#pef63de7f32)" style="fill: none; stroke-dasharray: 2.5,4.125; stroke-dashoffset: 0; stroke: #d62728; stroke-opacity: 0.9; stroke-width: 2.5"/>
    <defs>
     <path id="m9ca5b56bf8" d="M 0 -5 
L -5 5 
L 5 5 
z
" style="stroke: #000000; stroke-opacity: 0.9; stroke-linejoin: miter"/>
    </defs>
    <g clip-path="url(#pef63de7f32)">
     <use xlink:href="#m9ca5b56bf8" x="73.127301" y="121.071159" style="fill: #d62728; fill-opacity: 0.9; stroke: #000000; stroke-opacity: 0.9; stroke-linejoin: miter"/>
     <use xlink:href="#m9ca5b56bf8" x="276.036392" y="230.508823" style="fill: #d62728; fill-opacity: 0.9; stroke: #000000; stroke-opacity: 0.9; stroke-linejoin: miter"/>
     <use xlink:href="#m9ca5b56bf8" x="631.127301" y="359.245948" style="fill: #d62728; fill-opacity: 0.9; stroke: #000000; stroke-opacity: 0.9; stroke-linejoin: miter"/>
    </g>
   </g>
   <g id="patch_3">
    <path d="M 42.690938 413.638281 
L 42.690938 25.558281 
" style="fill: none; stroke: #262626; stroke-width: 0.8; stroke-linejoin: miter; stroke-linecap: square"/>
   </g>
   <g id="patch_4">
    <path d="M 42.690938 413.638281 
L 712.290938 413.638281 
" style="fill: none; stroke: #262626; stroke-width: 0.8; stroke-linejoin: miter; stroke-linecap: square"/>
   </g>
   <g id="text_15">
    <!-- Pearson Correlation Coefficient -->
    <g style="fill: #262626" transform="translate(289.356016 15.558281) scale(0.11 -0.11)">
     <use xlink:href="#DejaVuSerif-50"/>
     <use xlink:href="#DejaVuSerif-65" x="62.785156"/>
     <use xlink:href="#DejaVuSerif-61" x="121.964844"/>
     <use xlink:href="#DejaVuSerif-72" x="181.583984"/>
     <use xlink:href="#DejaVuSerif-73" x="229.386719"/>
     <use xlink:href="#DejaVuSerif-6f" x="280.705078"/>
     <use xlink:href="#DejaVuSerif-6e" x="340.910156"/>
     <use xlink:href="#DejaVuSerif-20" x="405.314453"/>
     <use xlink:href="#DejaVuSerif-43" x="437.101562"/>
     <use xlink:href="#DejaVuSerif-6f" x="513.615234"/>
     <use xlink:href="#DejaVuSerif-72" x="573.820312"/>
     <use xlink:href="#DejaVuSerif-72" x="621.623047"/>
     <use xlink:href="#DejaVuSerif-65" x="669.425781"/>
     <use xlink:href="#DejaVuSerif-6c" x="728.605469"/>
     <use xlink:href="#DejaVuSerif-61" x="760.587891"/>
     <use xlink:href="#DejaVuSerif-74" x="820.207031"/>
     <use xlink:href="#DejaVuSerif-69" x="860.392578"/>
     <use xlink:href="#DejaVuSerif-6f" x="892.375"/>
     <use xlink:href="#DejaVuSerif-6e" x="952.580078"/>
     <use xlink:href="#DejaVuSerif-20" x="1016.984375"/>
     <use xlink:href="#DejaVuSerif-43" x="1048.771484"/>
     <use xlink:href="#DejaVuSerif-6f" x="1125.285156"/>
     <use xlink:href="#DejaVuSerif-65" x="1185.490234"/>
     <use xlink:href="#DejaVuSerif-66" x="1244.669922"/>
     <use xlink:href="#DejaVuSerif-66" x="1281.681641"/>
     <use xlink:href="#DejaVuSerif-69" x="1318.693359"/>
     <use xlink:href="#DejaVuSerif-63" x="1350.675781"/>
     <use xlink:href="#DejaVuSerif-69" x="1406.681641"/>
     <use xlink:href="#DejaVuSerif-65" x="1438.664062"/>
     <use xlink:href="#DejaVuSerif-6e" x="1497.84375"/>
     <use xlink:href="#DejaVuSerif-74" x="1562.248047"/>
    </g>
   </g>
   <g id="legend_1">
    <g id="patch_5">
     <path d="M 594.320938 88.100156 
L 707.990938 88.100156 
Q 709.790938 88.100156 709.790938 86.300156 
L 709.790938 33.858281 
Q 709.790938 32.058281 707.990938 32.058281 
L 594.320938 32.058281 
Q 592.520938 32.058281 592.520938 33.858281 
L 592.520938 86.300156 
Q 592.520938 88.100156 594.320938 88.100156 
z
" style="fill: #4c4c4c; opacity: 0.5; stroke: #4c4c4c; stroke-linejoin: miter"/>
    </g>
    <g id="patch_6">
     <path d="M 592.320938 86.100156 
L 705.990938 86.100156 
Q 707.790938 86.100156 707.790938 84.300156 
L 707.790938 31.858281 
Q 707.790938 30.058281 705.990938 30.058281 
L 592.320938 30.058281 
Q 590.520938 30.058281 590.520938 31.858281 
L 590.520938 84.300156 
Q 590.520938 86.100156 592.320938 86.100156 
z
" style="fill: #ffffff; opacity: 0.95; stroke: #808080; stroke-linejoin: miter"/>
    </g>
    <g id="line2d_17">
     <path d="M 594.120938 37.346875 
L 600.870938 37.346875 
L 607.620938 37.346875 
" style="fill: none; stroke: #1f77b4; stroke-opacity: 0.9; stroke-width: 2.5; stroke-linecap: round"/>
     <defs>
      <path id="m63abacb71f" d="M 0 6 
C 1.591219 6 3.117479 5.367802 4.242641 4.242641 
C 5.367802 3.117479 6 1.591219 6 0 
C 6 -1.591219 5.367802 -3.117479 4.242641 -4.242641 
C 3.117479 -5.367802 1.591219 -6 0 -6 
C -1.591219 -6 -3.117479 -5.367802 -4.242641 -4.242641 
C -5.367802 -3.117479 -6 -1.591219 -6 0 
C -6 1.591219 -5.367802 3.117479 -4.242641 4.242641 
C -3.117479 5.367802 -1.591219 6 0 6 
z
" style="stroke: #000000; stroke-opacity: 0.9"/>
     </defs>
     <g>
      <use xlink:href="#m63abacb71f" x="600.870938" y="37.346875" style="fill: #1f77b4; fill-opacity: 0.9; stroke: #000000; stroke-opacity: 0.9"/>
     </g>
    </g>
    <g id="text_16">
     <!-- JAPAN -->
     <g style="fill: #262626" transform="translate(614.820938 40.496875) scale(0.09 -0.09)">
      <defs>
       <path id="DejaVuSerif-4a" d="M -538 -1119 
L -538 -384 
L -181 -384 
Q -172 -694 -34 -845 
Q 103 -997 378 -997 
Q 750 -997 897 -762 
Q 1044 -528 1044 153 
L 1044 4331 
L 319 4331 
L 319 4666 
L 2272 4666 
L 2272 4331 
L 1678 4331 
L 1678 128 
Q 1678 -644 1368 -987 
Q 1059 -1331 372 -1331 
Q 150 -1331 -79 -1278 
Q -309 -1225 -538 -1119 
z
" transform="scale(0.015625)"/>
       <path id="DejaVuSerif-41" d="M 1281 1691 
L 2994 1691 
L 2138 3909 
L 1281 1691 
z
M -38 0 
L -38 331 
L 372 331 
L 2034 4666 
L 2559 4666 
L 4225 331 
L 4684 331 
L 4684 0 
L 2988 0 
L 2988 331 
L 3506 331 
L 3116 1356 
L 1153 1356 
L 763 331 
L 1275 331 
L 1275 0 
L -38 0 
z
" transform="scale(0.015625)"/>
       <path id="DejaVuSerif-4e" d="M 313 0 
L 313 331 
L 941 331 
L 941 4331 
L 313 4331 
L 313 4666 
L 1509 4666 
L 4306 984 
L 4306 4331 
L 3681 4331 
L 3681 4666 
L 5319 4666 
L 5319 4331 
L 4691 4331 
L 4691 -91 
L 4313 -91 
L 1325 3841 
L 1325 331 
L 1953 331 
L 1953 0 
L 313 0 
z
" transform="scale(0.015625)"/>
      </defs>
      <use xlink:href="#DejaVuSerif-4a"/>
      <use xlink:href="#DejaVuSerif-41" x="40.087891"/>
      <use xlink:href="#DejaVuSerif-50" x="112.304688"/>
      <use xlink:href="#DejaVuSerif-41" x="170.464844"/>
      <use xlink:href="#DejaVuSerif-4e" x="242.681641"/>
     </g>
    </g>
    <g id="line2d_18">
     <path d="M 594.120938 50.557187 
L 600.870938 50.557187 
L 607.620938 50.557187 
" style="fill: none; stroke-dasharray: 9.25,4; stroke-dashoffset: 0; stroke: #ff7f0e; stroke-opacity: 0.9; stroke-width: 2.5"/>
     <defs>
      <path id="m3303ce22a8" d="M -6 6 
L 6 6 
L 6 -6 
L -6 -6 
z
" style="stroke: #000000; stroke-opacity: 0.9; stroke-linejoin: miter"/>
     </defs>
     <g>
      <use xlink:href="#m3303ce22a8" x="600.870938" y="50.557187" style="fill: #ff7f0e; fill-opacity: 0.9; stroke: #000000; stroke-opacity: 0.9; stroke-linejoin: miter"/>
     </g>
    </g>
    <g id="text_17">
     <!-- REGION785 -->
     <g style="fill: #262626" transform="translate(614.820938 53.707187) scale(0.09 -0.09)">
      <defs>
       <path id="DejaVuSerif-52" d="M 3066 2316 
Q 3284 2256 3442 2114 
Q 3600 1972 3725 1716 
L 4403 331 
L 4972 331 
L 4972 0 
L 3872 0 
L 3144 1484 
Q 2934 1916 2759 2042 
Q 2584 2169 2278 2169 
L 1581 2169 
L 1581 331 
L 2241 331 
L 2241 0 
L 353 0 
L 353 331 
L 947 331 
L 947 4331 
L 353 4331 
L 353 4666 
L 2719 4666 
Q 3400 4666 3770 4341 
Q 4141 4016 4141 3419 
Q 4141 2938 3870 2661 
Q 3600 2384 3066 2316 
z
M 1581 2503 
L 2503 2503 
Q 2975 2503 3200 2726 
Q 3425 2950 3425 3419 
Q 3425 3888 3200 4109 
Q 2975 4331 2503 4331 
L 1581 4331 
L 1581 2503 
z
" transform="scale(0.015625)"/>
       <path id="DejaVuSerif-45" d="M 353 0 
L 353 331 
L 947 331 
L 947 4331 
L 353 4331 
L 353 4666 
L 4109 4666 
L 4109 3628 
L 3725 3628 
L 3725 4281 
L 1581 4281 
L 1581 2719 
L 3109 2719 
L 3109 3303 
L 3494 3303 
L 3494 1753 
L 3109 1753 
L 3109 2338 
L 1581 2338 
L 1581 384 
L 3775 384 
L 3775 1038 
L 4159 1038 
L 4159 0 
L 353 0 
z
" transform="scale(0.015625)"/>
       <path id="DejaVuSerif-47" d="M 4097 3272 
Q 3988 3856 3641 4136 
Q 3294 4416 2675 4416 
Q 1869 4416 1472 3897 
Q 1075 3378 1075 2328 
Q 1075 1300 1484 772 
Q 1894 244 2688 244 
Q 3041 244 3362 331 
Q 3684 419 3975 594 
L 3975 1797 
L 3097 1797 
L 3097 2131 
L 4609 2131 
L 4609 391 
Q 4194 150 3714 29 
Q 3234 -91 2688 -91 
Q 1631 -91 995 570 
Q 359 1231 359 2328 
Q 359 3434 996 4092 
Q 1634 4750 2713 4750 
Q 3113 4750 3539 4658 
Q 3966 4566 4447 4378 
L 4447 3272 
L 4097 3272 
z
" transform="scale(0.015625)"/>
       <path id="DejaVuSerif-49" d="M 1581 331 
L 2175 331 
L 2175 0 
L 353 0 
L 353 331 
L 947 331 
L 947 4331 
L 353 4331 
L 353 4666 
L 2175 4666 
L 2175 4331 
L 1581 4331 
L 1581 331 
z
" transform="scale(0.015625)"/>
       <path id="DejaVuSerif-4f" d="M 2625 244 
Q 3391 244 3781 770 
Q 4172 1297 4172 2328 
Q 4172 3363 3781 3889 
Q 3391 4416 2625 4416 
Q 1856 4416 1465 3889 
Q 1075 3363 1075 2328 
Q 1075 1297 1465 770 
Q 1856 244 2625 244 
z
M 2625 -91 
Q 2150 -91 1751 65 
Q 1353 222 1050 525 
Q 700 875 529 1319 
Q 359 1763 359 2328 
Q 359 2894 529 3339 
Q 700 3784 1050 4134 
Q 1356 4441 1750 4595 
Q 2144 4750 2625 4750 
Q 3641 4750 4266 4084 
Q 4891 3419 4891 2328 
Q 4891 1769 4719 1320 
Q 4547 872 4197 525 
Q 3891 219 3497 64 
Q 3103 -91 2625 -91 
z
" transform="scale(0.015625)"/>
      </defs>
      <use xlink:href="#DejaVuSerif-52"/>
      <use xlink:href="#DejaVuSerif-45" x="75.292969"/>
      <use xlink:href="#DejaVuSerif-47" x="148.291016"/>
      <use xlink:href="#DejaVuSerif-49" x="228.173828"/>
      <use xlink:href="#DejaVuSerif-4f" x="267.675781"/>
      <use xlink:href="#DejaVuSerif-4e" x="349.658203"/>
      <use xlink:href="#DejaVuSerif-37" x="437.158203"/>
      <use xlink:href="#DejaVuSerif-38" x="500.78125"/>
      <use xlink:href="#DejaVuSerif-35" x="564.404297"/>
     </g>
    </g>
    <g id="line2d_19">
     <path d="M 594.120938 63.7675 
L 600.870938 63.7675 
L 607.620938 63.7675 
" style="fill: none; stroke-dasharray: 16,4,2.5,4; stroke-dashoffset: 0; stroke: #2ca02c; stroke-opacity: 0.9; stroke-width: 2.5"/>
     <defs>
      <path id="meba10a4da9" d="M -0 8.485281 
L 8.485281 0 
L 0 -8.485281 
L -8.485281 -0 
z
" style="stroke: #000000; stroke-opacity: 0.9; stroke-linejoin: miter"/>
     </defs>
     <g>
      <use xlink:href="#meba10a4da9" x="600.870938" y="63.7675" style="fill: #2ca02c; fill-opacity: 0.9; stroke: #000000; stroke-opacity: 0.9; stroke-linejoin: miter"/>
     </g>
    </g>
    <g id="text_18">
     <!-- NHS_TIMESERIES -->
     <g style="fill: #262626" transform="translate(614.820938 66.9175) scale(0.09 -0.09)">
      <defs>
       <path id="DejaVuSerif-53" d="M 594 225 
L 594 1288 
L 953 1284 
Q 969 753 1261 498 
Q 1553 244 2150 244 
Q 2706 244 2998 464 
Q 3291 684 3291 1106 
Q 3291 1444 3114 1625 
Q 2938 1806 2369 1978 
L 1753 2163 
Q 1084 2366 811 2669 
Q 538 2972 538 3500 
Q 538 4094 959 4422 
Q 1381 4750 2144 4750 
Q 2469 4750 2856 4679 
Q 3244 4609 3681 4475 
L 3681 3481 
L 3328 3481 
Q 3275 3975 2998 4195 
Q 2722 4416 2156 4416 
Q 1663 4416 1405 4214 
Q 1147 4013 1147 3628 
Q 1147 3294 1340 3103 
Q 1534 2913 2163 2725 
L 2741 2553 
Q 3375 2363 3645 2067 
Q 3916 1772 3916 1275 
Q 3916 597 3481 253 
Q 3047 -91 2188 -91 
Q 1803 -91 1404 -12 
Q 1006 66 594 225 
z
" transform="scale(0.015625)"/>
       <path id="DejaVuSerif-5f" d="M 3200 -1259 
L 3200 -1509 
L 0 -1509 
L 0 -1259 
L 3200 -1259 
z
" transform="scale(0.015625)"/>
       <path id="DejaVuSerif-54" d="M 1222 0 
L 1222 331 
L 1819 331 
L 1819 4294 
L 447 4294 
L 447 3566 
L 63 3566 
L 63 4666 
L 4206 4666 
L 4206 3566 
L 3822 3566 
L 3822 4294 
L 2450 4294 
L 2450 331 
L 3047 331 
L 3047 0 
L 1222 0 
z
" transform="scale(0.015625)"/>
       <path id="DejaVuSerif-4d" d="M 353 0 
L 353 331 
L 947 331 
L 947 4331 
L 319 4331 
L 319 4666 
L 1678 4666 
L 3316 1344 
L 4953 4666 
L 6228 4666 
L 6228 4331 
L 5606 4331 
L 5606 331 
L 6203 331 
L 6203 0 
L 4378 0 
L 4378 331 
L 4972 331 
L 4972 3938 
L 3372 684 
L 2931 684 
L 1331 3938 
L 1331 331 
L 1925 331 
L 1925 0 
L 353 0 
z
" transform="scale(0.015625)"/>
      </defs>
      <use xlink:href="#DejaVuSerif-4e"/>
      <use xlink:href="#DejaVuSerif-48" x="87.5"/>
      <use xlink:href="#DejaVuSerif-53" x="174.707031"/>
      <use xlink:href="#DejaVuSerif-5f" x="243.212891"/>
      <use xlink:href="#DejaVuSerif-54" x="293.212891"/>
      <use xlink:href="#DejaVuSerif-49" x="359.912109"/>
      <use xlink:href="#DejaVuSerif-4d" x="399.414062"/>
      <use xlink:href="#DejaVuSerif-45" x="501.806641"/>
      <use xlink:href="#DejaVuSerif-53" x="574.804688"/>
      <use xlink:href="#DejaVuSerif-45" x="643.310547"/>
      <use xlink:href="#DejaVuSerif-52" x="716.308594"/>
      <use xlink:href="#DejaVuSerif-49" x="791.601562"/>
      <use xlink:href="#DejaVuSerif-45" x="831.103516"/>
      <use xlink:href="#DejaVuSerif-53" x="904.101562"/>
     </g>
    </g>
    <g id="line2d_20">
     <path d="M 594.120938 77.228125 
L 600.870938 77.228125 
L 607.620938 77.228125 
" style="fill: none; stroke-dasharray: 2.5,4.125; stroke-dashoffset: 0; stroke: #d62728; stroke-opacity: 0.9; stroke-width: 2.5"/>
     <defs>
      <path id="md398f9061b" d="M 0 -6 
L -6 6 
L 6 6 
z
" style="stroke: #000000; stroke-opacity: 0.9; stroke-linejoin: miter"/>
     </defs>
     <g>
      <use xlink:href="#md398f9061b" x="600.870938" y="77.228125" style="fill: #d62728; fill-opacity: 0.9; stroke: #000000; stroke-opacity: 0.9; stroke-linejoin: miter"/>
     </g>
    </g>
    <g id="text_19">
     <!-- LTLA_TIMESERIES -->
     <g style="fill: #262626" transform="translate(614.820938 80.378125) scale(0.09 -0.09)">
      <defs>
       <path id="DejaVuSerif-4c" d="M 353 0 
L 353 331 
L 947 331 
L 947 4331 
L 353 4331 
L 353 4666 
L 2175 4666 
L 2175 4331 
L 1581 4331 
L 1581 384 
L 3713 384 
L 3713 1166 
L 4097 1166 
L 4097 0 
L 353 0 
z
" transform="scale(0.015625)"/>
      </defs>
      <use xlink:href="#DejaVuSerif-4c"/>
      <use xlink:href="#DejaVuSerif-54" x="58.28125"/>
      <use xlink:href="#DejaVuSerif-4c" x="124.980469"/>
      <use xlink:href="#DejaVuSerif-41" x="191.386719"/>
      <use xlink:href="#DejaVuSerif-5f" x="263.603516"/>
      <use xlink:href="#DejaVuSerif-54" x="313.603516"/>
      <use xlink:href="#DejaVuSerif-49" x="380.302734"/>
      <use xlink:href="#DejaVuSerif-4d" x="419.804688"/>
      <use xlink:href="#DejaVuSerif-45" x="522.197266"/>
      <use xlink:href="#DejaVuSerif-53" x="595.195312"/>
      <use xlink:href="#DejaVuSerif-45" x="663.701172"/>
      <use xlink:href="#DejaVuSerif-52" x="736.699219"/>
      <use xlink:href="#DejaVuSerif-49" x="811.992188"/>
      <use xlink:href="#DejaVuSerif-45" x="851.494141"/>
      <use xlink:href="#DejaVuSerif-53" x="924.492188"/>
     </g>
    </g>
   </g>
   <g id="text_20">
    <g id="patch_7">
     <path d="M 60.244645 129.891617 
L 86.009957 129.891617 
Q 88.709957 129.891617 88.709957 127.191617 
L 88.709957 118.481304 
Q 88.709957 115.781304 86.009957 115.781304 
L 60.244645 115.781304 
Q 57.544645 115.781304 57.544645 118.481304 
L 57.544645 127.191617 
Q 57.544645 129.891617 60.244645 129.891617 
z
" style="fill: #ffffff; opacity: 0.8; stroke: #808080; stroke-linejoin: miter"/>
    </g>
    <!-- 0.885 -->
    <g style="fill: #262626" transform="translate(60.244645 125.319898) scale(0.09 -0.09)">
     <use xlink:href="#DejaVuSerif-30"/>
     <use xlink:href="#DejaVuSerif-2e" x="63.623047"/>
     <use xlink:href="#DejaVuSerif-38" x="95.410156"/>
     <use xlink:href="#DejaVuSerif-38" x="159.033203"/>
     <use xlink:href="#DejaVuSerif-35" x="222.65625"/>
    </g>
   </g>
   <g id="text_21">
    <g id="patch_8">
     <path d="M 161.69919 129.966976 
L 187.464503 129.966976 
Q 190.164503 129.966976 190.164503 127.266976 
L 190.164503 118.556664 
Q 190.164503 115.856664 187.464503 115.856664 
L 161.69919 115.856664 
Q 158.99919 115.856664 158.99919 118.556664 
L 158.99919 127.266976 
Q 158.99919 129.966976 161.69919 129.966976 
z
" style="fill: #ffffff; opacity: 0.8; stroke: #808080; stroke-linejoin: miter"/>
    </g>
    <!-- 0.885 -->
    <g style="fill: #262626" transform="translate(161.69919 125.395258) scale(0.09 -0.09)">
     <use xlink:href="#DejaVuSerif-30"/>
     <use xlink:href="#DejaVuSerif-2e" x="63.623047"/>
     <use xlink:href="#DejaVuSerif-38" x="95.410156"/>
     <use xlink:href="#DejaVuSerif-38" x="159.033203"/>
     <use xlink:href="#DejaVuSerif-35" x="222.65625"/>
    </g>
   </g>
   <g id="text_22">
    <g id="patch_9">
     <path d="M 415.335554 165.219525 
L 441.100866 165.219525 
Q 443.800866 165.219525 443.800866 162.519525 
L 443.800866 153.809212 
Q 443.800866 151.109212 441.100866 151.109212 
L 415.335554 151.109212 
Q 412.635554 151.109212 412.635554 153.809212 
L 412.635554 162.519525 
Q 412.635554 165.219525 415.335554 165.219525 
z
" style="fill: #ffffff; opacity: 0.8; stroke: #808080; stroke-linejoin: miter"/>
    </g>
    <!-- 0.827 -->
    <g style="fill: #262626" transform="translate(415.335554 160.647806) scale(0.09 -0.09)">
     <defs>
      <path id="DejaVuSerif-32" d="M 819 3553 
L 469 3553 
L 469 4384 
Q 803 4563 1142 4656 
Q 1481 4750 1806 4750 
Q 2534 4750 2956 4397 
Q 3378 4044 3378 3438 
Q 3378 2753 2422 1800 
Q 2347 1728 2309 1691 
L 1131 513 
L 3078 513 
L 3078 1088 
L 3444 1088 
L 3444 0 
L 434 0 
L 434 341 
L 1850 1753 
Q 2319 2222 2519 2614 
Q 2719 3006 2719 3438 
Q 2719 3909 2473 4175 
Q 2228 4441 1797 4441 
Q 1350 4441 1106 4219 
Q 863 3997 819 3553 
z
" transform="scale(0.015625)"/>
     </defs>
     <use xlink:href="#DejaVuSerif-30"/>
     <use xlink:href="#DejaVuSerif-2e" x="63.623047"/>
     <use xlink:href="#DejaVuSerif-38" x="95.410156"/>
     <use xlink:href="#DejaVuSerif-32" x="159.033203"/>
     <use xlink:href="#DejaVuSerif-37" x="222.65625"/>
    </g>
   </g>
   <g id="text_23">
    <g id="patch_10">
     <path d="M 668.971918 195.105786 
L 694.73723 195.105786 
Q 697.43723 195.105786 697.43723 192.405786 
L 697.43723 183.695474 
Q 697.43723 180.995474 694.73723 180.995474 
L 668.971918 180.995474 
Q 666.271918 180.995474 666.271918 183.695474 
L 666.271918 192.405786 
Q 666.271918 195.105786 668.971918 195.105786 
z
" style="fill: #ffffff; opacity: 0.8; stroke: #808080; stroke-linejoin: miter"/>
    </g>
    <!-- 0.778 -->
    <g style="fill: #262626" transform="translate(668.971918 190.534067) scale(0.09 -0.09)">
     <use xlink:href="#DejaVuSerif-30"/>
     <use xlink:href="#DejaVuSerif-2e" x="63.623047"/>
     <use xlink:href="#DejaVuSerif-37" x="95.410156"/>
     <use xlink:href="#DejaVuSerif-37" x="159.033203"/>
     <use xlink:href="#DejaVuSerif-38" x="222.65625"/>
    </g>
   </g>
   <g id="text_24">
    <g id="patch_11">
     <path d="M 60.244645 114.547404 
L 86.009957 114.547404 
Q 88.709957 114.547404 88.709957 111.847404 
L 88.709957 103.137091 
Q 88.709957 100.437091 86.009957 100.437091 
L 60.244645 100.437091 
Q 57.544645 100.437091 57.544645 103.137091 
L 57.544645 111.847404 
Q 57.544645 114.547404 60.244645 114.547404 
z
" style="fill: #ffffff; opacity: 0.8; stroke: #808080; stroke-linejoin: miter"/>
    </g>
    <!-- 0.910 -->
    <g style="fill: #262626" transform="translate(60.244645 109.975685) scale(0.09 -0.09)">
     <use xlink:href="#DejaVuSerif-30"/>
     <use xlink:href="#DejaVuSerif-2e" x="63.623047"/>
     <use xlink:href="#DejaVuSerif-39" x="95.410156"/>
     <use xlink:href="#DejaVuSerif-31" x="159.033203"/>
     <use xlink:href="#DejaVuSerif-30" x="222.65625"/>
    </g>
   </g>
   <g id="text_25">
    <g id="patch_12">
     <path d="M 161.69919 157.508918 
L 187.464503 157.508918 
Q 190.164503 157.508918 190.164503 154.808918 
L 190.164503 146.098606 
Q 190.164503 143.398606 187.464503 143.398606 
L 161.69919 143.398606 
Q 158.99919 143.398606 158.99919 146.098606 
L 158.99919 154.808918 
Q 158.99919 157.508918 161.69919 157.508918 
z
" style="fill: #ffffff; opacity: 0.8; stroke: #808080; stroke-linejoin: miter"/>
    </g>
    <!-- 0.840 -->
    <g style="fill: #262626" transform="translate(161.69919 152.9372) scale(0.09 -0.09)">
     <use xlink:href="#DejaVuSerif-30"/>
     <use xlink:href="#DejaVuSerif-2e" x="63.623047"/>
     <use xlink:href="#DejaVuSerif-38" x="95.410156"/>
     <use xlink:href="#DejaVuSerif-34" x="159.033203"/>
     <use xlink:href="#DejaVuSerif-30" x="222.65625"/>
    </g>
   </g>
   <g id="text_26">
    <g id="patch_13">
     <path d="M 415.335554 203.907014 
L 441.100866 203.907014 
Q 443.800866 203.907014 443.800866 201.207014 
L 443.800866 192.496702 
Q 443.800866 189.796702 441.100866 189.796702 
L 415.335554 189.796702 
Q 412.635554 189.796702 412.635554 192.496702 
L 412.635554 201.207014 
Q 412.635554 203.907014 415.335554 203.907014 
z
" style="fill: #ffffff; opacity: 0.8; stroke: #808080; stroke-linejoin: miter"/>
    </g>
    <!-- 0.763 -->
    <g style="fill: #262626" transform="translate(415.335554 199.335295) scale(0.09 -0.09)">
     <use xlink:href="#DejaVuSerif-30"/>
     <use xlink:href="#DejaVuSerif-2e" x="63.623047"/>
     <use xlink:href="#DejaVuSerif-37" x="95.410156"/>
     <use xlink:href="#DejaVuSerif-36" x="159.033203"/>
     <use xlink:href="#DejaVuSerif-33" x="222.65625"/>
    </g>
   </g>
   <g id="text_27">
    <g id="patch_14">
     <path d="M 668.971918 377.1636 
L 694.73723 377.1636 
Q 697.43723 377.1636 697.43723 374.4636 
L 697.43723 365.753287 
Q 697.43723 363.053288 694.73723 363.053288 
L 668.971918 363.053288 
Q 666.271918 363.053288 666.271918 365.753287 
L 666.271918 374.4636 
Q 666.271918 377.1636 668.971918 377.1636 
z
" style="fill: #ffffff; opacity: 0.8; stroke: #808080; stroke-linejoin: miter"/>
    </g>
    <!-- 0.478 -->
    <g style="fill: #262626" transform="translate(668.971918 372.591881) scale(0.09 -0.09)">
     <use xlink:href="#DejaVuSerif-30"/>
     <use xlink:href="#DejaVuSerif-2e" x="63.623047"/>
     <use xlink:href="#DejaVuSerif-34" x="95.410156"/>
     <use xlink:href="#DejaVuSerif-37" x="159.033203"/>
     <use xlink:href="#DejaVuSerif-38" x="222.65625"/>
    </g>
   </g>
   <g id="text_28">
    <g id="patch_15">
     <path d="M 60.244645 66.6996 
L 86.009957 66.6996 
Q 88.709957 66.6996 88.709957 63.9996 
L 88.709957 55.289288 
Q 88.709957 52.589288 86.009957 52.589288 
L 60.244645 52.589288 
Q 57.544645 52.589288 57.544645 55.289288 
L 57.544645 63.9996 
Q 57.544645 66.6996 60.244645 66.6996 
z
" style="fill: #ffffff; opacity: 0.8; stroke: #808080; stroke-linejoin: miter"/>
    </g>
    <!-- 0.989 -->
    <g style="fill: #262626" transform="translate(60.244645 62.127881) scale(0.09 -0.09)">
     <use xlink:href="#DejaVuSerif-30"/>
     <use xlink:href="#DejaVuSerif-2e" x="63.623047"/>
     <use xlink:href="#DejaVuSerif-39" x="95.410156"/>
     <use xlink:href="#DejaVuSerif-38" x="159.033203"/>
     <use xlink:href="#DejaVuSerif-39" x="222.65625"/>
    </g>
   </g>
   <g id="text_29">
    <g id="patch_16">
     <path d="M 263.153736 87.039194 
L 288.919048 87.039194 
Q 291.619048 87.039194 291.619048 84.339194 
L 291.619048 75.628882 
Q 291.619048 72.928882 288.919048 72.928882 
L 263.153736 72.928882 
Q 260.453736 72.928882 260.453736 75.628882 
L 260.453736 84.339194 
Q 260.453736 87.039194 263.153736 87.039194 
z
" style="fill: #ffffff; opacity: 0.8; stroke: #808080; stroke-linejoin: miter"/>
    </g>
    <!-- 0.956 -->
    <g style="fill: #262626" transform="translate(263.153736 82.467475) scale(0.09 -0.09)">
     <use xlink:href="#DejaVuSerif-30"/>
     <use xlink:href="#DejaVuSerif-2e" x="63.623047"/>
     <use xlink:href="#DejaVuSerif-39" x="95.410156"/>
     <use xlink:href="#DejaVuSerif-35" x="159.033203"/>
     <use xlink:href="#DejaVuSerif-36" x="222.65625"/>
    </g>
   </g>
   <g id="text_30">
    <g id="patch_17">
     <path d="M 618.244645 96.375967 
L 644.009957 96.375967 
Q 646.709957 96.375967 646.709957 93.675967 
L 646.709957 84.965655 
Q 646.709957 82.265655 644.009957 82.265655 
L 618.244645 82.265655 
Q 615.544645 82.265655 615.544645 84.965655 
L 615.544645 93.675967 
Q 615.544645 96.375967 618.244645 96.375967 
z
" style="fill: #ffffff; opacity: 0.8; stroke: #808080; stroke-linejoin: miter"/>
    </g>
    <!-- 0.940 -->
    <g style="fill: #262626" transform="translate(618.244645 91.804249) scale(0.09 -0.09)">
     <use xlink:href="#DejaVuSerif-30"/>
     <use xlink:href="#DejaVuSerif-2e" x="63.623047"/>
     <use xlink:href="#DejaVuSerif-39" x="95.410156"/>
     <use xlink:href="#DejaVuSerif-34" x="159.033203"/>
     <use xlink:href="#DejaVuSerif-30" x="222.65625"/>
    </g>
   </g>
   <g id="text_31">
    <g id="patch_18">
     <path d="M 60.244645 115.642878 
L 86.009957 115.642878 
Q 88.709957 115.642878 88.709957 112.942878 
L 88.709957 104.232566 
Q 88.709957 101.532566 86.009957 101.532566 
L 60.244645 101.532566 
Q 57.544645 101.532566 57.544645 104.232566 
L 57.544645 112.942878 
Q 57.544645 115.642878 60.244645 115.642878 
z
" style="fill: #ffffff; opacity: 0.8; stroke: #808080; stroke-linejoin: miter"/>
    </g>
    <!-- 0.908 -->
    <g style="fill: #262626" transform="translate(60.244645 111.071159) scale(0.09 -0.09)">
     <use xlink:href="#DejaVuSerif-30"/>
     <use xlink:href="#DejaVuSerif-2e" x="63.623047"/>
     <use xlink:href="#DejaVuSerif-39" x="95.410156"/>
     <use xlink:href="#DejaVuSerif-30" x="159.033203"/>
     <use xlink:href="#DejaVuSerif-38" x="222.65625"/>
    </g>
   </g>
   <g id="text_32">
    <g id="patch_19">
     <path d="M 263.153736 225.080542 
L 288.919048 225.080542 
Q 291.619048 225.080542 291.619048 222.380542 
L 291.619048 213.670229 
Q 291.619048 210.970229 288.919048 210.970229 
L 263.153736 210.970229 
Q 260.453736 210.970229 260.453736 213.670229 
L 260.453736 222.380542 
Q 260.453736 225.080542 263.153736 225.080542 
z
" style="fill: #ffffff; opacity: 0.8; stroke: #808080; stroke-linejoin: miter"/>
    </g>
    <!-- 0.728 -->
    <g style="fill: #262626" transform="translate(263.153736 220.508823) scale(0.09 -0.09)">
     <use xlink:href="#DejaVuSerif-30"/>
     <use xlink:href="#DejaVuSerif-2e" x="63.623047"/>
     <use xlink:href="#DejaVuSerif-37" x="95.410156"/>
     <use xlink:href="#DejaVuSerif-32" x="159.033203"/>
     <use xlink:href="#DejaVuSerif-38" x="222.65625"/>
    </g>
   </g>
   <g id="text_33">
    <g id="patch_20">
     <path d="M 618.244645 353.817667 
L 644.009957 353.817667 
Q 646.709957 353.817667 646.709957 351.117667 
L 646.709957 342.407354 
Q 646.709957 339.707354 644.009957 339.707354 
L 618.244645 339.707354 
Q 615.544645 339.707354 615.544645 342.407354 
L 615.544645 351.117667 
Q 615.544645 353.817667 618.244645 353.817667 
z
" style="fill: #ffffff; opacity: 0.8; stroke: #808080; stroke-linejoin: miter"/>
    </g>
    <!-- 0.517 -->
    <g style="fill: #262626" transform="translate(618.244645 349.245948) scale(0.09 -0.09)">
     <use xlink:href="#DejaVuSerif-30"/>
     <use xlink:href="#DejaVuSerif-2e" x="63.623047"/>
     <use xlink:href="#DejaVuSerif-35" x="95.410156"/>
     <use xlink:href="#DejaVuSerif-31" x="159.033203"/>
     <use xlink:href="#DejaVuSerif-37" x="222.65625"/>
    </g>
   </g>
  </g>
 </g>
 <defs>
  <clipPath id="pef63de7f32">
   <rect x="42.690938" y="25.558281" width="669.6" height="388.08"/>
  </clipPath>
 </defs>
</svg>
